{"glyphs":{"0":{"ha":926,"x_min":47,"x_max":913,"o":"m 390 -14 q 193 31 272 -12 q 81 157 114 74 q 65 356 47 240 q 81 441 72 394 q 101 533 90 488 q 122 619 111 579 q 208 817 151 735 q 354 942 265 899 q 565 986 443 986 q 762 942 682 986 q 877 817 842 899 q 893 619 913 735 q 877 533 886 579 q 858 441 868 488 q 836 356 847 394 q 751 157 807 240 q 606 31 694 74 q 390 -14 518 -12 m 407 167 q 535 215 485 167 q 610 363 586 263 q 631 445 621 403 q 649 530 640 488 q 664 613 657 572 q 656 758 681 710 q 551 808 632 807 q 422 758 471 807 q 349 613 372 710 q 328 530 339 572 q 310 445 318 488 q 294 363 303 403 q 302 215 278 263 q 407 167 326 167 z "},"1":{"ha":661,"x_min":76,"x_max":682,"o":"m 293 0 q 271 10 279 0 q 265 35 263 19 l 410 710 l 185 561 q 157 555 169 553 q 138 569 144 557 l 82 669 q 81 696 76 682 q 101 718 86 710 l 469 963 q 485 970 479 968 q 503 972 492 972 l 651 972 q 674 963 665 972 q 679 938 682 953 l 486 35 q 472 10 483 19 q 446 0 460 0 l 293 0 z "},"2":{"ha":881,"x_min":-3,"x_max":893,"o":"m 26 0 q 4 10 11 0 q 0 35 -3 19 l 18 118 q 31 148 21 129 q 67 185 40 167 l 288 367 q 480 499 404 444 q 596 597 556 553 q 644 683 636 642 q 633 773 656 738 q 544 808 611 808 q 466 790 500 808 q 409 740 432 771 q 372 674 386 710 q 349 649 364 656 q 321 642 335 642 l 174 642 q 155 651 161 642 q 150 671 149 660 q 203 792 165 735 q 297 893 240 849 q 426 963 353 938 q 582 989 499 989 q 770 951 699 989 q 867 846 842 913 q 875 692 893 779 q 822 568 861 625 q 720 459 782 511 q 575 351 658 407 l 376 188 l 754 188 q 776 178 769 188 q 781 153 783 168 l 756 35 q 741 10 753 19 q 714 0 729 0 l 26 0 z "},"3":{"ha":894,"x_min":25,"x_max":919,"o":"m 371 -14 q 199 11 268 -14 q 92 75 131 36 q 39 160 53 114 q 33 250 25 207 q 47 271 36 263 q 69 279 57 279 l 222 279 q 246 273 238 279 q 260 251 254 267 q 283 200 263 219 q 338 173 304 181 q 410 165 371 165 q 538 201 486 165 q 606 303 590 238 q 583 399 619 369 q 472 428 547 428 l 324 428 q 301 438 310 428 q 297 461 293 447 l 311 529 q 323 557 314 546 q 340 574 332 568 l 626 793 l 235 793 q 212 803 219 793 q 207 826 204 813 l 231 938 q 245 963 233 953 q 272 972 257 972 l 889 972 q 912 963 904 972 q 917 938 919 953 l 894 838 q 883 812 892 822 q 867 796 875 801 l 593 572 l 607 571 q 744 531 686 563 q 826 440 801 499 q 829 290 850 381 q 744 128 810 196 q 581 23 678 60 q 371 -14 485 -14 z "},"4":{"ha":939,"x_min":1,"x_max":888,"o":"m 472 0 q 450 10 458 0 q 444 35 442 19 l 481 201 l 31 201 q 8 211 15 201 q 3 236 1 221 l 28 349 q 36 372 31 363 q 49 388 42 381 l 578 949 q 633 972 600 972 l 824 972 q 847 963 839 972 q 851 938 854 953 l 733 386 l 857 386 q 881 376 874 386 q 885 353 888 367 l 860 236 q 845 211 857 221 q 818 201 833 201 l 694 201 l 658 35 q 644 10 656 19 q 618 0 633 0 l 472 0 m 271 379 l 524 379 l 599 736 l 271 379 z "},"5":{"ha":878,"x_min":6,"x_max":874,"o":"m 358 -15 q 157 24 238 -15 q 41 128 76 64 q 17 269 6 193 q 29 290 19 282 q 51 299 39 299 l 208 299 q 235 291 225 299 q 246 271 246 283 q 265 210 247 233 q 310 175 282 186 q 375 164 339 164 q 463 183 421 164 q 535 238 504 201 q 576 326 565 274 q 559 439 592 397 q 451 481 526 481 q 390 472 415 481 q 344 452 364 464 q 310 431 325 440 q 281 422 296 422 l 126 422 q 106 433 113 422 q 104 457 100 443 l 253 932 q 274 962 260 951 q 304 972 288 972 l 843 972 q 866 963 858 972 q 871 938 874 953 l 847 826 q 832 803 843 813 q 806 793 821 793 l 404 793 l 340 589 q 413 622 371 607 q 529 636 456 636 q 652 613 596 636 q 747 547 708 590 q 801 444 786 504 q 801 313 817 385 q 725 139 781 213 q 578 25 669 65 q 358 -15 486 -15 z "},"6":{"ha":886,"x_min":33,"x_max":863,"o":"m 381 -14 q 178 31 258 -14 q 66 153 99 75 q 54 331 33 232 q 84 414 63 372 q 131 492 106 456 q 182 558 157 529 q 224 606 207 588 l 546 944 q 567 962 553 951 q 600 972 581 972 l 756 972 q 774 963 768 972 q 778 942 781 954 q 774 931 776 936 q 769 924 772 926 l 521 661 q 548 665 533 664 q 574 667 563 667 q 697 639 640 664 q 792 570 753 614 q 847 467 832 526 q 847 333 863 407 q 763 161 828 240 q 600 34 699 82 q 381 -14 501 -14 m 417 165 q 505 184 463 165 q 579 240 547 203 q 622 331 611 278 q 617 422 633 385 q 567 477 601 458 q 486 496 532 496 q 397 477 440 496 q 323 422 354 458 q 281 331 292 385 q 285 240 269 278 q 335 184 300 203 q 417 165 371 165 z "},"7":{"ha":775,"x_min":106,"x_max":872,"o":"m 131 0 q 112 9 118 0 q 108 31 106 18 q 114 43 110 38 l 599 786 l 172 786 q 151 796 158 786 q 146 819 143 806 l 171 938 q 186 963 174 953 q 213 972 199 972 l 842 972 q 865 963 858 972 q 869 938 872 953 l 847 833 q 836 799 843 813 q 819 772 829 786 l 338 33 q 317 13 331 25 q 282 0 304 0 l 131 0 z "},"8":{"ha":922,"x_min":22,"x_max":897,"o":"m 388 -14 q 178 28 263 -14 q 58 140 94 71 q 39 293 22 210 q 108 429 56 372 q 228 517 161 486 q 170 600 190 549 q 164 717 150 651 q 232 856 179 796 q 369 951 285 917 q 564 986 453 986 q 751 949 675 986 q 862 848 826 911 q 881 707 897 785 q 833 596 868 642 q 739 517 799 550 q 820 417 796 481 q 829 281 844 353 q 756 129 811 196 q 610 24 701 63 q 388 -14 518 -14 m 399 146 q 494 164 450 146 q 568 214 538 182 q 608 288 599 246 q 582 392 622 354 q 468 429 542 429 q 374 412 419 429 q 299 363 329 394 q 258 288 268 332 q 286 183 246 221 q 399 146 326 146 m 492 581 q 575 597 536 582 q 641 640 614 613 q 676 703 668 667 q 656 792 689 760 q 553 825 622 825 q 468 810 507 825 q 403 767 429 794 q 368 703 376 740 q 387 614 356 647 q 492 581 418 581 z "},"9":{"ha":874,"x_min":97,"x_max":907,"o":"m 181 0 q 162 9 168 0 q 158 31 156 18 q 163 42 160 38 q 168 49 165 46 l 426 324 q 376 319 401 318 q 255 347 310 322 q 163 414 200 371 q 112 515 126 457 q 113 644 97 574 q 164 769 126 708 q 260 879 201 831 q 397 957 318 928 q 571 986 475 986 q 734 960 667 986 q 842 887 801 933 q 894 780 882 840 q 892 651 907 719 q 847 538 879 590 q 774 439 814 485 q 694 350 733 393 l 392 28 q 372 10 385 21 q 338 0 358 0 l 181 0 m 465 483 q 553 503 513 483 q 624 558 594 522 q 664 644 654 594 q 660 732 675 696 q 613 788 646 768 q 535 807 581 807 q 448 788 489 807 q 377 732 407 768 q 338 644 347 696 q 340 558 326 594 q 388 503 354 522 q 465 483 421 483 z "},"A":{"ha":983,"x_min":-69,"x_max":892,"o":"m -40 0 q -63 14 -57 0 q -61 42 -69 28 l 458 935 q 481 961 467 950 q 518 972 494 972 l 704 972 q 736 961 726 972 q 747 935 746 950 l 889 42 q 882 11 892 22 q 857 0 872 0 l 715 0 q 686 10 694 0 q 675 32 678 19 l 647 183 l 256 183 l 163 28 q 144 9 156 18 q 114 0 133 0 l -40 0 m 346 363 l 633 363 l 574 763 l 346 363 z "},"Á":{"ha":983,"x_min":-69,"x_max":936,"o":"m -40 0 q -63 14 -57 0 q -61 42 -69 28 l 458 935 q 481 961 467 950 q 518 972 494 972 l 704 972 q 736 961 726 972 q 747 935 746 950 l 889 42 q 882 11 892 22 q 857 0 872 0 l 715 0 q 686 10 694 0 q 675 32 678 19 l 647 183 l 256 183 l 163 28 q 144 9 156 18 q 114 0 133 0 l -40 0 m 346 363 l 633 363 l 574 763 l 346 363 m 544 1042 q 525 1061 522 1042 q 536 1081 526 1072 l 686 1225 q 714 1247 703 1242 q 743 1251 725 1251 l 913 1251 q 931 1244 925 1251 q 935 1226 936 1236 q 922 1207 933 1214 l 714 1061 q 688 1047 700 1051 q 658 1042 676 1042 l 544 1042 z "},"Ă":{"ha":983,"x_min":-69,"x_max":892,"o":"m -40 0 q -63 14 -57 0 q -61 42 -69 28 l 458 935 q 481 961 467 950 q 518 972 494 972 l 704 972 q 736 961 726 972 q 747 935 746 950 l 889 42 q 882 11 892 22 q 857 0 872 0 l 715 0 q 686 10 694 0 q 675 32 678 19 l 647 183 l 256 183 l 163 28 q 144 9 156 18 q 114 0 133 0 l -40 0 m 346 363 l 633 363 l 574 763 l 346 363 m 625 1032 q 515 1058 558 1032 q 456 1126 472 1083 q 450 1221 439 1169 q 461 1240 453 1232 q 482 1247 469 1247 l 563 1247 q 581 1240 575 1247 q 583 1221 586 1232 q 586 1163 578 1189 q 635 1138 594 1138 q 696 1163 675 1138 q 725 1221 717 1189 q 736 1240 728 1232 q 757 1247 744 1247 l 838 1247 q 856 1240 850 1247 q 858 1221 861 1232 q 822 1126 847 1169 q 749 1058 796 1083 q 625 1032 701 1032 z "},"Â":{"ha":983,"x_min":-69,"x_max":892,"o":"m -40 0 q -63 14 -57 0 q -61 42 -69 28 l 458 935 q 481 961 467 950 q 518 972 494 972 l 704 972 q 736 961 726 972 q 747 935 746 950 l 889 42 q 882 11 892 22 q 857 0 872 0 l 715 0 q 686 10 694 0 q 675 32 678 19 l 647 183 l 256 183 l 163 28 q 144 9 156 18 q 114 0 133 0 l -40 0 m 346 363 l 633 363 l 574 763 l 346 363 m 382 1042 q 365 1060 363 1042 q 376 1079 367 1071 l 551 1228 q 580 1247 568 1243 q 604 1251 592 1251 l 703 1251 q 726 1247 717 1251 q 746 1228 736 1243 l 857 1081 q 861 1061 864 1072 q 838 1042 858 1042 l 779 1042 q 758 1044 768 1042 q 740 1051 749 1046 l 636 1122 l 503 1051 q 482 1044 492 1046 q 461 1042 472 1042 l 382 1042 z "},"Ä":{"ha":983,"x_min":-69,"x_max":899,"o":"m -40 0 q -63 14 -57 0 q -61 42 -69 28 l 458 935 q 481 961 467 950 q 518 972 494 972 l 704 972 q 736 961 726 972 q 747 935 746 950 l 889 42 q 882 11 892 22 q 857 0 872 0 l 715 0 q 686 10 694 0 q 675 32 678 19 l 647 183 l 256 183 l 163 28 q 144 9 156 18 q 114 0 133 0 l -40 0 m 346 363 l 633 363 l 574 763 l 346 363 m 719 1042 q 699 1050 706 1042 q 694 1074 692 1058 l 718 1188 q 732 1210 721 1201 q 757 1219 743 1219 l 871 1219 q 892 1210 885 1219 q 896 1188 899 1201 l 872 1074 q 858 1050 869 1058 q 833 1042 847 1042 l 719 1042 m 404 1042 q 383 1050 390 1042 q 379 1074 376 1058 l 403 1188 q 417 1210 406 1201 q 442 1219 428 1219 l 556 1219 q 576 1210 569 1219 q 581 1188 583 1201 l 557 1074 q 543 1050 554 1058 q 518 1042 532 1042 l 404 1042 z "},"À":{"ha":983,"x_min":-69,"x_max":892,"o":"m -40 0 q -63 14 -57 0 q -61 42 -69 28 l 458 935 q 481 961 467 950 q 518 972 494 972 l 704 972 q 736 961 726 972 q 747 935 746 950 l 889 42 q 882 11 892 22 q 857 0 872 0 l 715 0 q 686 10 694 0 q 675 32 678 19 l 647 183 l 256 183 l 163 28 q 144 9 156 18 q 114 0 133 0 l -40 0 m 346 363 l 633 363 l 574 763 l 346 363 m 576 1042 q 549 1047 558 1042 q 529 1061 539 1051 l 383 1206 q 379 1224 376 1213 q 411 1251 383 1251 l 575 1251 q 601 1247 593 1251 q 621 1225 610 1242 l 708 1082 q 711 1064 714 1074 q 685 1042 706 1042 l 576 1042 z "},"Ā":{"ha":983,"x_min":-69,"x_max":892,"o":"m -40 0 q -63 14 -57 0 q -61 42 -69 28 l 458 935 q 481 961 467 950 q 518 972 494 972 l 704 972 q 736 961 726 972 q 747 935 746 950 l 889 42 q 882 11 892 22 q 857 0 872 0 l 715 0 q 686 10 694 0 q 675 32 678 19 l 647 183 l 256 183 l 163 28 q 144 9 156 18 q 114 0 133 0 l -40 0 m 346 363 l 633 363 l 574 763 l 346 363 m 417 1042 q 397 1051 403 1042 q 393 1074 390 1060 l 411 1163 q 425 1185 414 1176 q 450 1193 436 1193 l 853 1193 q 873 1185 867 1193 q 876 1163 879 1176 l 858 1074 q 846 1051 857 1060 q 821 1042 835 1042 l 417 1042 z "},"Ą":{"ha":978,"x_min":-68,"x_max":886,"o":"m 739 -306 q 627 -278 668 -306 q 573 -201 586 -250 q 574 -90 560 -153 q 612 -8 583 -42 q 678 38 640 25 q 665 47 668 40 q 661 61 661 54 l 642 183 l 246 183 l 154 28 q 137 10 149 19 q 104 0 125 0 l -43 0 q -61 9 -54 0 q -65 29 -68 18 q -64 35 -65 32 q -61 42 -62 39 l 461 935 q 483 961 468 950 q 521 972 497 972 l 699 972 q 731 961 721 972 q 743 935 742 950 l 885 42 q 885 35 886 39 q 883 29 885 32 q 870 9 881 18 q 847 0 860 0 l 806 0 q 738 -28 765 -1 q 704 -90 711 -54 q 712 -154 696 -128 q 772 -181 728 -181 l 789 -181 q 812 -190 804 -181 q 817 -214 819 -200 l 804 -271 q 789 -296 801 -286 q 763 -306 776 -306 l 739 -306 m 336 363 l 626 363 l 567 763 l 336 363 z "},"Å":{"ha":983,"x_min":-69,"x_max":892,"o":"m -40 0 q -63 14 -57 0 q -61 42 -69 28 l 458 935 q 481 961 467 950 q 518 972 494 972 l 704 972 q 736 961 726 972 q 747 935 746 950 l 889 42 q 882 11 892 22 q 857 0 872 0 l 715 0 q 686 10 694 0 q 675 32 678 19 l 647 183 l 256 183 l 163 28 q 144 9 156 18 q 114 0 133 0 l -40 0 m 346 363 l 633 363 l 574 763 l 346 363 m 617 1028 q 534 1062 565 1028 q 514 1146 503 1096 q 569 1231 526 1197 q 663 1265 611 1265 q 745 1231 714 1265 q 765 1146 776 1197 q 711 1061 754 1094 q 617 1028 668 1028 m 628 1104 q 662 1116 647 1104 q 681 1146 676 1128 q 676 1176 685 1164 q 650 1188 668 1188 q 616 1176 631 1188 q 597 1146 601 1164 q 602 1116 593 1128 q 628 1104 611 1104 z "},"Ã":{"ha":983,"x_min":-69,"x_max":892,"o":"m -40 0 q -63 14 -57 0 q -61 42 -69 28 l 458 935 q 481 961 467 950 q 518 972 494 972 l 704 972 q 736 961 726 972 q 747 935 746 950 l 889 42 q 882 11 892 22 q 857 0 872 0 l 715 0 q 686 10 694 0 q 675 32 678 19 l 647 183 l 256 183 l 163 28 q 144 9 156 18 q 114 0 133 0 l -40 0 m 346 363 l 633 363 l 574 763 l 346 363 m 715 1035 q 656 1047 679 1035 q 613 1072 632 1060 q 569 1083 593 1083 q 536 1074 547 1083 q 517 1053 525 1064 q 493 1042 508 1042 l 419 1042 q 404 1049 410 1042 q 400 1065 399 1057 q 417 1115 404 1088 q 450 1169 429 1143 q 501 1213 471 1196 q 571 1231 532 1231 q 633 1218 608 1231 q 676 1193 657 1206 q 718 1181 694 1181 q 751 1192 740 1181 q 771 1213 763 1203 q 794 1224 779 1224 l 868 1224 q 884 1216 879 1224 q 888 1199 889 1208 q 871 1150 883 1178 q 837 1096 858 1122 q 785 1052 815 1069 q 715 1035 756 1035 z "},"Æ":{"ha":1361,"x_min":-60,"x_max":1403,"o":"m -31 0 q -56 16 -51 0 q -51 44 -60 32 l 465 936 q 490 962 475 951 q 524 972 504 972 l 1372 972 q 1395 963 1388 972 q 1400 938 1403 953 l 1376 826 q 1362 803 1374 813 q 1335 793 1350 793 l 907 793 l 860 575 l 1257 575 q 1280 565 1272 575 q 1285 540 1288 556 l 1263 438 q 1248 414 1260 424 q 1221 404 1236 404 l 824 404 l 775 179 l 1215 179 q 1238 169 1231 179 q 1242 144 1244 160 l 1219 35 q 1205 10 1217 19 q 1178 0 1193 0 l 558 0 q 536 10 544 0 q 531 35 528 19 l 564 183 l 263 183 l 169 28 q 152 9 164 18 q 121 0 140 0 l -31 0 m 353 363 l 600 363 l 692 788 l 594 788 l 353 363 z "},"Ǽ":{"ha":1361,"x_min":-60,"x_max":1403,"o":"m -31 0 q -56 16 -51 0 q -51 44 -60 32 l 465 936 q 490 962 475 951 q 524 972 504 972 l 1372 972 q 1395 963 1388 972 q 1400 938 1403 953 l 1376 826 q 1362 803 1374 813 q 1335 793 1350 793 l 907 793 l 860 575 l 1257 575 q 1280 565 1272 575 q 1285 540 1288 556 l 1263 438 q 1248 414 1260 424 q 1221 404 1236 404 l 824 404 l 775 179 l 1215 179 q 1238 169 1231 179 q 1242 144 1244 160 l 1219 35 q 1205 10 1217 19 q 1178 0 1193 0 l 558 0 q 536 10 544 0 q 531 35 528 19 l 564 183 l 263 183 l 169 28 q 152 9 164 18 q 121 0 140 0 l -31 0 m 353 363 l 600 363 l 692 788 l 594 788 l 353 363 m 785 1042 q 765 1061 763 1042 q 776 1081 767 1072 l 926 1225 q 954 1247 943 1242 q 983 1251 965 1251 l 1153 1251 q 1171 1244 1165 1251 q 1175 1226 1176 1236 q 1163 1207 1174 1214 l 954 1061 q 928 1047 940 1051 q 899 1042 917 1042 l 785 1042 z "},"B":{"ha":967,"x_min":19,"x_max":963,"o":"m 50 0 q 28 10 36 0 q 22 35 19 19 l 214 938 q 229 963 217 953 q 256 972 242 972 l 654 972 q 833 939 763 972 q 933 844 903 906 q 944 701 963 783 q 906 608 933 647 q 847 545 879 569 q 788 510 815 521 q 865 426 836 482 q 878 290 894 369 q 812 138 858 203 q 686 36 765 72 q 490 0 607 0 l 50 0 m 271 163 l 483 163 q 593 201 549 163 q 649 292 638 239 q 637 383 661 346 q 539 419 613 419 l 325 419 l 271 163 m 358 579 l 556 579 q 661 612 619 579 q 715 696 703 644 q 703 778 726 747 q 615 810 679 810 l 408 810 l 358 579 z "},"C":{"ha":961,"x_min":46,"x_max":976,"o":"m 418 -14 q 250 10 324 -14 q 129 83 176 35 q 64 202 82 132 q 61 363 46 272 q 85 485 71 419 q 114 610 100 550 q 206 813 144 729 q 365 942 268 897 q 593 986 461 986 q 758 963 683 986 q 883 897 832 940 q 955 792 933 853 q 963 657 976 732 q 952 636 961 644 q 931 628 943 628 l 769 628 q 744 636 753 628 q 733 664 735 644 q 694 775 738 743 q 578 807 650 807 q 429 760 492 807 q 340 603 367 713 q 290 369 311 489 q 310 213 271 260 q 433 165 349 165 q 563 197 506 165 q 657 308 621 228 q 678 337 668 329 q 706 344 689 344 l 865 344 q 885 336 878 344 q 890 315 893 328 q 832 183 871 243 q 734 78 793 122 q 597 10 675 33 q 418 -14 518 -14 z "},"Ć":{"ha":961,"x_min":46,"x_max":976,"o":"m 418 -14 q 250 10 324 -14 q 129 83 176 35 q 64 202 82 132 q 61 363 46 272 q 85 485 71 419 q 114 610 100 550 q 206 813 144 729 q 365 942 268 897 q 593 986 461 986 q 758 963 683 986 q 883 897 832 940 q 955 792 933 853 q 963 657 976 732 q 952 636 961 644 q 931 628 943 628 l 769 628 q 744 636 753 628 q 733 664 735 644 q 694 775 738 743 q 578 807 650 807 q 429 760 492 807 q 340 603 367 713 q 290 369 311 489 q 310 213 271 260 q 433 165 349 165 q 563 197 506 165 q 657 308 621 228 q 678 337 668 329 q 706 344 689 344 l 865 344 q 885 336 878 344 q 890 315 893 328 q 832 183 871 243 q 734 78 793 122 q 597 10 675 33 q 418 -14 518 -14 m 547 1042 q 528 1061 525 1042 q 539 1081 529 1072 l 689 1225 q 717 1247 706 1242 q 746 1251 728 1251 l 915 1251 q 933 1244 928 1251 q 938 1226 939 1236 q 925 1207 936 1214 l 717 1061 q 691 1047 703 1051 q 661 1042 679 1042 l 547 1042 z "},"Č":{"ha":961,"x_min":46,"x_max":976,"o":"m 418 -14 q 250 10 324 -14 q 129 83 176 35 q 64 202 82 132 q 61 363 46 272 q 85 485 71 419 q 114 610 100 550 q 206 813 144 729 q 365 942 268 897 q 593 986 461 986 q 758 963 683 986 q 883 897 832 940 q 955 792 933 853 q 963 657 976 732 q 952 636 961 644 q 931 628 943 628 l 769 628 q 744 636 753 628 q 733 664 735 644 q 694 775 738 743 q 578 807 650 807 q 429 760 492 807 q 340 603 367 713 q 290 369 311 489 q 310 213 271 260 q 433 165 349 165 q 563 197 506 165 q 657 308 621 228 q 678 337 668 329 q 706 344 689 344 l 865 344 q 885 336 878 344 q 890 315 893 328 q 832 183 871 243 q 734 78 793 122 q 597 10 675 33 q 418 -14 518 -14 m 572 1042 q 550 1047 560 1042 q 529 1065 540 1051 l 418 1213 q 414 1232 411 1221 q 438 1251 418 1251 l 496 1251 q 517 1249 507 1251 q 535 1242 526 1247 l 639 1171 l 772 1242 q 793 1249 783 1247 q 814 1251 803 1251 l 893 1251 q 910 1232 913 1251 q 899 1213 908 1222 l 724 1065 q 696 1047 707 1051 q 671 1042 685 1042 l 572 1042 z "},"Ç":{"ha":961,"x_min":43,"x_max":975,"o":"m 329 -306 q 265 -293 293 -306 q 228 -264 238 -281 q 235 -235 219 -247 l 264 -212 q 286 -206 278 -201 q 307 -219 294 -211 q 347 -228 319 -228 q 385 -215 368 -228 q 406 -183 401 -203 q 399 -153 410 -165 q 365 -140 388 -140 q 333 -145 349 -140 q 306 -151 318 -150 q 286 -143 294 -153 l 265 -117 q 263 -98 260 -108 q 276 -72 267 -87 l 318 -8 q 153 51 217 4 q 66 176 89 97 q 61 363 43 254 q 85 485 71 419 q 114 610 99 550 q 213 813 144 729 q 382 942 281 897 q 611 986 483 986 q 776 963 704 986 q 894 894 847 939 q 958 790 940 850 q 963 657 975 731 q 949 636 960 644 q 926 628 939 628 l 767 628 q 742 636 750 628 q 733 664 735 644 q 688 776 731 746 q 572 807 644 807 q 427 760 488 807 q 339 603 367 713 q 313 488 325 546 q 290 369 301 429 q 311 213 271 260 q 436 165 351 165 q 565 197 510 165 q 658 308 621 228 q 679 337 668 329 q 707 344 690 344 l 865 344 q 885 336 878 344 q 889 315 892 328 q 828 182 872 242 q 720 78 785 122 q 574 10 656 33 q 399 -14 492 -14 l 358 -71 q 383 -65 368 -67 q 408 -62 399 -62 q 480 -96 457 -62 q 492 -182 503 -129 q 437 -270 481 -235 q 329 -306 393 -306 z "},"Ĉ":{"ha":961,"x_min":46,"x_max":976,"o":"m 418 -14 q 250 10 324 -14 q 129 83 176 35 q 64 202 82 132 q 61 363 46 272 q 85 485 71 419 q 114 610 100 550 q 206 813 144 729 q 365 942 268 897 q 593 986 461 986 q 758 963 683 986 q 883 897 832 940 q 955 792 933 853 q 963 657 976 732 q 952 636 961 644 q 931 628 943 628 l 769 628 q 744 636 753 628 q 733 664 735 644 q 694 775 738 743 q 578 807 650 807 q 429 760 492 807 q 340 603 367 713 q 290 369 311 489 q 310 213 271 260 q 433 165 349 165 q 563 197 506 165 q 657 308 621 228 q 678 337 668 329 q 706 344 689 344 l 865 344 q 885 336 878 344 q 890 315 893 328 q 832 183 871 243 q 734 78 793 122 q 597 10 675 33 q 418 -14 518 -14 m 385 1042 q 368 1060 365 1042 q 379 1079 369 1071 l 554 1228 q 583 1247 571 1243 q 607 1251 594 1251 l 706 1251 q 729 1247 719 1251 q 749 1228 739 1243 l 860 1081 q 864 1061 867 1072 q 840 1042 861 1042 l 782 1042 q 761 1044 771 1042 q 743 1051 751 1046 l 639 1122 l 506 1051 q 485 1044 494 1046 q 464 1042 475 1042 l 385 1042 z "},"Ċ":{"ha":961,"x_min":46,"x_max":976,"o":"m 418 -14 q 250 10 324 -14 q 129 83 176 35 q 64 202 82 132 q 61 363 46 272 q 85 485 71 419 q 114 610 100 550 q 206 813 144 729 q 365 942 268 897 q 593 986 461 986 q 758 963 683 986 q 883 897 832 940 q 955 792 933 853 q 963 657 976 732 q 952 636 961 644 q 931 628 943 628 l 769 628 q 744 636 753 628 q 733 664 735 644 q 694 775 738 743 q 578 807 650 807 q 429 760 492 807 q 340 603 367 713 q 290 369 311 489 q 310 213 271 260 q 433 165 349 165 q 563 197 506 165 q 657 308 621 228 q 678 337 668 329 q 706 344 689 344 l 865 344 q 885 336 878 344 q 890 315 893 328 q 832 183 871 243 q 734 78 793 122 q 597 10 675 33 q 418 -14 518 -14 m 557 1042 q 536 1050 543 1042 q 532 1074 529 1058 l 560 1203 q 573 1226 563 1217 q 597 1235 583 1235 l 726 1235 q 747 1226 740 1235 q 751 1203 754 1217 l 725 1074 q 711 1050 722 1058 q 686 1042 700 1042 l 557 1042 z "},"D":{"ha":985,"x_min":19,"x_max":968,"o":"m 50 0 q 28 10 36 0 q 22 35 19 19 l 214 938 q 229 963 217 953 q 256 972 242 972 l 583 972 q 750 947 675 972 q 876 874 825 922 q 947 756 926 826 q 951 593 968 685 q 931 486 940 532 q 906 381 921 440 q 816 167 874 251 q 665 41 758 82 q 428 0 571 0 l 50 0 m 274 179 l 436 179 q 555 200 507 179 q 634 266 603 221 q 682 383 665 311 q 700 456 693 424 q 713 519 707 488 q 726 590 719 551 q 706 744 746 694 q 561 793 667 793 l 404 793 l 274 179 z "},"Ð":{"ha":1004,"x_min":25,"x_max":989,"o":"m 71 0 q 48 10 56 0 q 43 35 40 19 l 124 414 l 54 414 q 32 424 39 414 q 28 447 25 433 l 44 531 q 60 556 47 546 q 86 565 72 565 l 156 565 l 235 938 q 249 963 238 953 q 276 972 261 972 l 604 972 q 770 947 696 972 q 896 874 844 922 q 968 756 947 826 q 971 593 989 685 q 950 486 960 532 q 925 381 940 440 q 837 167 894 251 q 685 41 779 82 q 447 0 590 0 l 71 0 m 294 179 l 457 179 q 575 200 526 179 q 655 266 624 221 q 703 383 686 311 q 721 456 714 424 q 734 519 728 488 q 747 590 740 551 q 726 744 767 694 q 581 793 686 793 l 425 793 l 376 565 l 518 565 q 540 556 532 565 q 544 531 547 546 l 528 447 q 513 424 525 433 q 486 414 500 414 l 344 414 l 294 179 z "},"Ď":{"ha":985,"x_min":19,"x_max":968,"o":"m 50 0 q 28 10 36 0 q 22 35 19 19 l 214 938 q 229 963 217 953 q 256 972 242 972 l 583 972 q 750 947 675 972 q 876 874 825 922 q 947 756 926 826 q 951 593 968 685 q 931 486 940 532 q 906 381 921 440 q 816 167 874 251 q 665 41 758 82 q 428 0 571 0 l 50 0 m 274 179 l 436 179 q 555 200 507 179 q 634 266 603 221 q 682 383 665 311 q 700 456 693 424 q 713 519 707 488 q 726 590 719 551 q 706 744 746 694 q 561 793 667 793 l 404 793 l 274 179 m 519 1042 q 497 1047 507 1042 q 476 1065 488 1051 l 365 1213 q 361 1232 358 1221 q 385 1251 365 1251 l 443 1251 q 464 1249 454 1251 q 482 1242 474 1247 l 586 1171 l 719 1242 q 740 1249 731 1247 q 761 1251 750 1251 l 840 1251 q 857 1232 860 1251 q 846 1213 856 1222 l 671 1065 q 643 1047 654 1051 q 618 1042 632 1042 l 519 1042 z "},"Đ":{"ha":1004,"x_min":25,"x_max":989,"o":"m 71 0 q 48 10 56 0 q 43 35 40 19 l 124 414 l 54 414 q 32 424 39 414 q 28 447 25 433 l 44 531 q 60 556 47 546 q 86 565 72 565 l 156 565 l 235 938 q 249 963 238 953 q 276 972 261 972 l 604 972 q 770 947 696 972 q 896 874 844 922 q 968 756 947 826 q 971 593 989 685 q 950 486 960 532 q 925 381 940 440 q 837 167 894 251 q 685 41 779 82 q 447 0 590 0 l 71 0 m 294 179 l 457 179 q 575 200 526 179 q 655 266 624 221 q 703 383 686 311 q 721 456 714 424 q 734 519 728 488 q 747 590 740 551 q 726 744 767 694 q 581 793 686 793 l 425 793 l 376 565 l 518 565 q 540 556 532 565 q 544 531 547 546 l 528 447 q 513 424 525 433 q 486 414 500 414 l 344 414 l 294 179 z "},"E":{"ha":874,"x_min":19,"x_max":915,"o":"m 50 0 q 28 10 36 0 q 22 35 19 19 l 214 938 q 229 963 217 953 q 256 972 242 972 l 885 972 q 908 963 900 972 q 913 938 915 953 l 889 826 q 874 803 886 813 q 847 793 863 793 l 397 793 l 350 575 l 769 575 q 792 565 785 575 q 797 540 800 556 l 775 438 q 760 414 772 424 q 733 404 749 404 l 315 404 l 267 179 l 728 179 q 751 169 743 179 q 756 144 758 160 l 732 35 q 717 10 729 19 q 690 0 706 0 l 50 0 z "},"É":{"ha":874,"x_min":19,"x_max":915,"o":"m 50 0 q 28 10 36 0 q 22 35 19 19 l 214 938 q 229 963 217 953 q 256 972 242 972 l 885 972 q 908 963 900 972 q 913 938 915 953 l 889 826 q 874 803 886 813 q 847 793 863 793 l 397 793 l 350 575 l 769 575 q 792 565 785 575 q 797 540 800 556 l 775 438 q 760 414 772 424 q 733 404 749 404 l 315 404 l 267 179 l 728 179 q 751 169 743 179 q 756 144 758 160 l 732 35 q 717 10 729 19 q 690 0 706 0 l 50 0 m 503 1042 q 483 1061 481 1042 q 494 1081 485 1072 l 644 1225 q 672 1247 661 1242 q 701 1251 683 1251 l 871 1251 q 889 1244 883 1251 q 893 1226 894 1236 q 881 1207 892 1214 l 672 1061 q 647 1047 658 1051 q 617 1042 635 1042 l 503 1042 z "},"Ĕ":{"ha":874,"x_min":19,"x_max":915,"o":"m 50 0 q 28 10 36 0 q 22 35 19 19 l 214 938 q 229 963 217 953 q 256 972 242 972 l 885 972 q 908 963 900 972 q 913 938 915 953 l 889 826 q 874 803 886 813 q 847 793 863 793 l 397 793 l 350 575 l 769 575 q 792 565 785 575 q 797 540 800 556 l 775 438 q 760 414 772 424 q 733 404 749 404 l 315 404 l 267 179 l 728 179 q 751 169 743 179 q 756 144 758 160 l 732 35 q 717 10 729 19 q 690 0 706 0 l 50 0 m 583 1032 q 474 1058 517 1032 q 414 1126 431 1083 q 408 1221 397 1169 q 419 1240 411 1232 q 440 1247 428 1247 l 521 1247 q 539 1240 533 1247 q 542 1221 544 1232 q 544 1163 536 1189 q 593 1138 553 1138 q 654 1163 633 1138 q 683 1221 675 1189 q 694 1240 686 1232 q 715 1247 703 1247 l 796 1247 q 814 1240 808 1247 q 817 1221 819 1232 q 780 1126 806 1169 q 707 1058 754 1083 q 583 1032 660 1032 z "},"Ě":{"ha":874,"x_min":19,"x_max":915,"o":"m 50 0 q 28 10 36 0 q 22 35 19 19 l 214 938 q 229 963 217 953 q 256 972 242 972 l 885 972 q 908 963 900 972 q 913 938 915 953 l 889 826 q 874 803 886 813 q 847 793 863 793 l 397 793 l 350 575 l 769 575 q 792 565 785 575 q 797 540 800 556 l 775 438 q 760 414 772 424 q 733 404 749 404 l 315 404 l 267 179 l 728 179 q 751 169 743 179 q 756 144 758 160 l 732 35 q 717 10 729 19 q 690 0 706 0 l 50 0 m 528 1042 q 506 1047 515 1042 q 485 1065 496 1051 l 374 1213 q 369 1232 367 1221 q 393 1251 374 1251 l 451 1251 q 472 1249 463 1251 q 490 1242 482 1247 l 594 1171 l 728 1242 q 749 1249 739 1247 q 769 1251 758 1251 l 849 1251 q 865 1232 868 1251 q 854 1213 864 1222 l 679 1065 q 651 1047 663 1051 q 626 1042 640 1042 l 528 1042 z "},"Ê":{"ha":874,"x_min":19,"x_max":915,"o":"m 50 0 q 28 10 36 0 q 22 35 19 19 l 214 938 q 229 963 217 953 q 256 972 242 972 l 885 972 q 908 963 900 972 q 913 938 915 953 l 889 826 q 874 803 886 813 q 847 793 863 793 l 397 793 l 350 575 l 769 575 q 792 565 785 575 q 797 540 800 556 l 775 438 q 760 414 772 424 q 733 404 749 404 l 315 404 l 267 179 l 728 179 q 751 169 743 179 q 756 144 758 160 l 732 35 q 717 10 729 19 q 690 0 706 0 l 50 0 m 340 1042 q 324 1060 321 1042 q 335 1079 325 1071 l 510 1228 q 538 1247 526 1243 q 563 1251 550 1251 l 661 1251 q 685 1247 675 1251 q 704 1228 694 1243 l 815 1081 q 819 1061 822 1072 q 796 1042 817 1042 l 738 1042 q 717 1044 726 1042 q 699 1051 707 1046 l 594 1122 l 461 1051 q 440 1044 450 1046 q 419 1042 431 1042 l 340 1042 z "},"Ë":{"ha":874,"x_min":19,"x_max":915,"o":"m 50 0 q 28 10 36 0 q 22 35 19 19 l 214 938 q 229 963 217 953 q 256 972 242 972 l 885 972 q 908 963 900 972 q 913 938 915 953 l 889 826 q 874 803 886 813 q 847 793 863 793 l 397 793 l 350 575 l 769 575 q 792 565 785 575 q 797 540 800 556 l 775 438 q 760 414 772 424 q 733 404 749 404 l 315 404 l 267 179 l 728 179 q 751 169 743 179 q 756 144 758 160 l 732 35 q 717 10 729 19 q 690 0 706 0 l 50 0 m 678 1042 q 657 1050 664 1042 q 653 1074 650 1058 l 676 1188 q 690 1210 679 1201 q 715 1219 701 1219 l 829 1219 q 850 1210 843 1219 q 854 1188 857 1201 l 831 1074 q 817 1050 828 1058 q 792 1042 806 1042 l 678 1042 m 363 1042 q 342 1050 349 1042 q 338 1074 335 1058 l 361 1188 q 375 1210 364 1201 q 400 1219 386 1219 l 514 1219 q 535 1210 528 1219 q 539 1188 542 1201 l 515 1074 q 501 1050 513 1058 q 476 1042 490 1042 l 363 1042 z "},"Ė":{"ha":874,"x_min":19,"x_max":915,"o":"m 50 0 q 28 10 36 0 q 22 35 19 19 l 214 938 q 229 963 217 953 q 256 972 242 972 l 885 972 q 908 963 900 972 q 913 938 915 953 l 889 826 q 874 803 886 813 q 847 793 863 793 l 397 793 l 350 575 l 769 575 q 792 565 785 575 q 797 540 800 556 l 775 438 q 760 414 772 424 q 733 404 749 404 l 315 404 l 267 179 l 728 179 q 751 169 743 179 q 756 144 758 160 l 732 35 q 717 10 729 19 q 690 0 706 0 l 50 0 m 513 1042 q 492 1050 499 1042 q 488 1074 485 1058 l 515 1203 q 528 1226 518 1217 q 553 1235 539 1235 l 682 1235 q 703 1226 696 1235 q 707 1203 710 1217 l 681 1074 q 667 1050 678 1058 q 642 1042 656 1042 l 513 1042 z "},"È":{"ha":874,"x_min":19,"x_max":915,"o":"m 50 0 q 28 10 36 0 q 22 35 19 19 l 214 938 q 229 963 217 953 q 256 972 242 972 l 885 972 q 908 963 900 972 q 913 938 915 953 l 889 826 q 874 803 886 813 q 847 793 863 793 l 397 793 l 350 575 l 769 575 q 792 565 785 575 q 797 540 800 556 l 775 438 q 760 414 772 424 q 733 404 749 404 l 315 404 l 267 179 l 728 179 q 751 169 743 179 q 756 144 758 160 l 732 35 q 717 10 729 19 q 690 0 706 0 l 50 0 m 536 1042 q 508 1047 518 1042 q 489 1061 499 1051 l 343 1206 q 339 1224 336 1213 q 371 1251 343 1251 l 535 1251 q 561 1247 553 1251 q 581 1225 569 1242 l 668 1082 q 671 1064 674 1074 q 644 1042 665 1042 l 536 1042 z "},"Ē":{"ha":874,"x_min":19,"x_max":915,"o":"m 50 0 q 28 10 36 0 q 22 35 19 19 l 214 938 q 229 963 217 953 q 256 972 242 972 l 885 972 q 908 963 900 972 q 913 938 915 953 l 889 826 q 874 803 886 813 q 847 793 863 793 l 397 793 l 350 575 l 769 575 q 792 565 785 575 q 797 540 800 556 l 775 438 q 760 414 772 424 q 733 404 749 404 l 315 404 l 267 179 l 728 179 q 751 169 743 179 q 756 144 758 160 l 732 35 q 717 10 729 19 q 690 0 706 0 l 50 0 m 375 1042 q 355 1051 361 1042 q 351 1074 349 1060 l 369 1163 q 383 1185 372 1176 q 408 1193 394 1193 l 811 1193 q 831 1185 825 1193 q 835 1163 838 1176 l 817 1074 q 804 1051 815 1060 q 779 1042 793 1042 l 375 1042 z "},"Ę":{"ha":874,"x_min":19,"x_max":915,"o":"m 610 -306 q 497 -276 540 -306 q 438 -196 453 -246 q 436 -83 424 -146 q 450 -38 442 -60 q 471 0 458 -17 l 50 0 q 28 10 36 0 q 22 35 19 19 l 214 938 q 229 963 217 953 q 256 972 242 972 l 885 972 q 908 963 900 972 q 913 938 915 953 l 889 826 q 874 803 886 813 q 847 793 863 793 l 397 793 l 350 575 l 769 575 q 792 565 785 575 q 797 540 800 556 l 775 438 q 760 414 772 424 q 733 404 749 404 l 315 404 l 267 179 l 728 179 q 751 169 743 179 q 756 144 758 160 l 732 35 q 717 10 729 19 q 690 0 706 0 l 665 0 q 600 -28 625 -1 q 567 -90 575 -54 q 576 -154 560 -128 q 635 -181 592 -181 l 653 -181 q 674 -190 667 -181 q 679 -214 682 -200 l 667 -271 q 652 -296 664 -286 q 626 -306 640 -306 l 610 -306 z "},"F":{"ha":847,"x_min":19,"x_max":907,"o":"m 50 0 q 28 10 36 0 q 22 35 19 19 l 214 938 q 229 963 217 953 q 256 972 242 972 l 876 972 q 899 963 892 972 q 904 938 907 953 l 878 819 q 864 794 875 804 q 838 785 853 785 l 400 785 l 349 550 l 758 550 q 781 540 774 550 q 786 515 789 531 l 761 397 q 747 374 758 383 q 719 364 735 364 l 310 364 l 239 35 q 225 10 236 19 q 199 0 214 0 l 50 0 z "},"G":{"ha":986,"x_min":60,"x_max":1003,"o":"m 422 -14 q 208 30 292 -14 q 92 158 125 74 q 81 361 60 242 q 106 489 92 421 q 136 618 121 557 q 233 817 164 735 q 404 942 301 899 q 635 986 507 986 q 810 960 738 986 q 926 891 882 933 q 986 799 969 849 q 994 703 1003 749 q 983 681 993 690 q 958 672 972 672 l 786 672 q 766 678 772 672 q 756 694 760 683 q 737 745 753 719 q 688 789 721 771 q 596 807 654 807 q 449 761 510 807 q 363 611 388 715 q 334 490 347 551 q 310 368 321 429 q 334 213 292 260 q 463 165 376 165 q 570 185 521 165 q 655 249 619 206 q 704 358 690 292 l 711 393 l 560 393 q 538 403 546 393 q 533 428 531 414 l 553 517 q 567 542 556 532 q 594 551 579 551 l 935 551 q 958 542 950 551 q 963 517 965 532 l 929 365 q 835 161 906 246 q 658 31 764 76 q 422 -14 551 -14 z "},"Ğ":{"ha":986,"x_min":60,"x_max":1003,"o":"m 422 -14 q 208 30 292 -14 q 92 158 125 74 q 81 361 60 242 q 106 489 92 421 q 136 618 121 557 q 233 817 164 735 q 404 942 301 899 q 635 986 507 986 q 810 960 738 986 q 926 891 882 933 q 986 799 969 849 q 994 703 1003 749 q 983 681 993 690 q 958 672 972 672 l 786 672 q 766 678 772 672 q 756 694 760 683 q 737 745 753 719 q 688 789 721 771 q 596 807 654 807 q 449 761 510 807 q 363 611 388 715 q 334 490 347 551 q 310 368 321 429 q 334 213 292 260 q 463 165 376 165 q 570 185 521 165 q 655 249 619 206 q 704 358 690 292 l 711 393 l 560 393 q 538 403 546 393 q 533 428 531 414 l 553 517 q 567 542 556 532 q 594 551 579 551 l 935 551 q 958 542 950 551 q 963 517 965 532 l 929 365 q 835 161 906 246 q 658 31 764 76 q 422 -14 551 -14 m 635 1032 q 525 1058 568 1032 q 465 1126 482 1083 q 460 1221 449 1169 q 471 1240 463 1232 q 492 1247 479 1247 l 572 1247 q 590 1240 585 1247 q 593 1221 596 1232 q 596 1163 588 1189 q 644 1138 604 1138 q 706 1163 685 1138 q 735 1221 726 1189 q 746 1240 738 1232 q 767 1247 754 1247 l 847 1247 q 865 1240 860 1247 q 868 1221 871 1232 q 831 1126 857 1169 q 758 1058 806 1083 q 635 1032 711 1032 z "},"Ĝ":{"ha":986,"x_min":60,"x_max":1003,"o":"m 422 -14 q 208 30 292 -14 q 92 158 125 74 q 81 361 60 242 q 106 489 92 421 q 136 618 121 557 q 233 817 164 735 q 404 942 301 899 q 635 986 507 986 q 810 960 738 986 q 926 891 882 933 q 986 799 969 849 q 994 703 1003 749 q 983 681 993 690 q 958 672 972 672 l 786 672 q 766 678 772 672 q 756 694 760 683 q 737 745 753 719 q 688 789 721 771 q 596 807 654 807 q 449 761 510 807 q 363 611 388 715 q 334 490 347 551 q 310 368 321 429 q 334 213 292 260 q 463 165 376 165 q 570 185 521 165 q 655 249 619 206 q 704 358 690 292 l 711 393 l 560 393 q 538 403 546 393 q 533 428 531 414 l 553 517 q 567 542 556 532 q 594 551 579 551 l 935 551 q 958 542 950 551 q 963 517 965 532 l 929 365 q 835 161 906 246 q 658 31 764 76 q 422 -14 551 -14 m 392 1042 q 375 1060 372 1042 q 386 1079 376 1071 l 561 1228 q 590 1247 578 1243 q 614 1251 601 1251 l 713 1251 q 736 1247 726 1251 q 756 1228 746 1243 l 867 1081 q 871 1061 874 1072 q 847 1042 868 1042 l 789 1042 q 768 1044 778 1042 q 750 1051 758 1046 l 646 1122 l 513 1051 q 492 1044 501 1046 q 471 1042 482 1042 l 392 1042 z "},"Ģ":{"ha":986,"x_min":60,"x_max":1003,"o":"m 422 -14 q 208 30 292 -14 q 92 158 125 74 q 81 361 60 242 q 106 489 92 421 q 136 618 121 557 q 233 817 164 735 q 404 942 301 899 q 635 986 507 986 q 810 960 738 986 q 926 891 882 933 q 986 799 969 849 q 994 703 1003 749 q 983 681 993 690 q 958 672 972 672 l 786 672 q 766 678 772 672 q 756 694 760 683 q 737 745 753 719 q 688 789 721 771 q 596 807 654 807 q 449 761 510 807 q 363 611 388 715 q 334 490 347 551 q 310 368 321 429 q 334 213 292 260 q 463 165 376 165 q 570 185 521 165 q 655 249 619 206 q 704 358 690 292 l 711 393 l 560 393 q 538 403 546 393 q 533 428 531 414 l 553 517 q 567 542 556 532 q 594 551 579 551 l 935 551 q 958 542 950 551 q 963 517 965 532 l 929 365 q 835 161 906 246 q 658 31 764 76 q 422 -14 551 -14 m 233 -321 q 215 -311 221 -321 q 214 -289 208 -301 l 278 -115 q 299 -83 285 -97 q 335 -69 313 -69 l 474 -69 q 489 -77 483 -69 q 493 -93 494 -85 q 486 -112 492 -103 l 383 -283 q 362 -309 375 -297 q 328 -321 349 -321 l 233 -321 z "},"Ġ":{"ha":986,"x_min":60,"x_max":1003,"o":"m 422 -14 q 208 30 292 -14 q 92 158 125 74 q 81 361 60 242 q 106 489 92 421 q 136 618 121 557 q 233 817 164 735 q 404 942 301 899 q 635 986 507 986 q 810 960 738 986 q 926 891 882 933 q 986 799 969 849 q 994 703 1003 749 q 983 681 993 690 q 958 672 972 672 l 786 672 q 766 678 772 672 q 756 694 760 683 q 737 745 753 719 q 688 789 721 771 q 596 807 654 807 q 449 761 510 807 q 363 611 388 715 q 334 490 347 551 q 310 368 321 429 q 334 213 292 260 q 463 165 376 165 q 570 185 521 165 q 655 249 619 206 q 704 358 690 292 l 711 393 l 560 393 q 538 403 546 393 q 533 428 531 414 l 553 517 q 567 542 556 532 q 594 551 579 551 l 935 551 q 958 542 950 551 q 963 517 965 532 l 929 365 q 835 161 906 246 q 658 31 764 76 q 422 -14 551 -14 m 564 1042 q 543 1050 550 1042 q 539 1074 536 1058 l 567 1203 q 580 1226 569 1217 q 604 1235 590 1235 l 733 1235 q 754 1226 747 1235 q 758 1203 761 1217 l 732 1074 q 718 1050 729 1058 q 693 1042 707 1042 l 564 1042 z "},"H":{"ha":1024,"x_min":19,"x_max":1035,"o":"m 50 0 q 28 10 36 0 q 22 35 19 19 l 214 938 q 229 963 217 953 q 256 972 242 972 l 407 972 q 430 963 422 972 q 435 938 438 953 l 361 590 l 738 590 l 813 938 q 827 963 815 953 q 853 972 839 972 l 1004 972 q 1027 963 1019 972 q 1032 938 1035 953 l 840 35 q 826 10 838 19 q 799 0 814 0 l 647 0 q 625 10 633 0 q 619 35 617 19 l 696 393 l 319 393 l 243 35 q 228 10 240 19 q 201 0 217 0 l 50 0 z "},"Ħ":{"ha":1029,"x_min":19,"x_max":1057,"o":"m 153 717 q 131 726 138 717 q 126 751 124 736 l 138 810 q 153 835 140 825 q 179 844 165 844 l 1026 844 q 1049 835 1042 844 q 1054 810 1057 825 l 1042 751 q 1027 726 1039 736 q 1000 717 1015 717 l 153 717 m 50 0 q 28 10 36 0 q 22 35 19 19 l 214 938 q 229 963 217 953 q 256 972 242 972 l 407 972 q 430 963 422 972 q 435 938 438 953 l 361 590 l 738 590 l 813 938 q 827 963 815 953 q 853 972 839 972 l 1004 972 q 1027 963 1019 972 q 1032 938 1035 953 l 840 35 q 826 10 838 19 q 799 0 814 0 l 647 0 q 625 10 633 0 q 619 35 617 19 l 696 393 l 319 393 l 243 35 q 228 10 240 19 q 201 0 217 0 l 50 0 z "},"Ĥ":{"ha":1024,"x_min":19,"x_max":1035,"o":"m 50 0 q 28 10 36 0 q 22 35 19 19 l 214 938 q 229 963 217 953 q 256 972 242 972 l 407 972 q 430 963 422 972 q 435 938 438 953 l 361 590 l 738 590 l 813 938 q 827 963 815 953 q 853 972 839 972 l 1004 972 q 1027 963 1019 972 q 1032 938 1035 953 l 840 35 q 826 10 838 19 q 799 0 814 0 l 647 0 q 625 10 633 0 q 619 35 617 19 l 696 393 l 319 393 l 243 35 q 228 10 240 19 q 201 0 217 0 l 50 0 m 394 1042 q 378 1060 375 1042 q 389 1079 379 1071 l 564 1228 q 592 1247 581 1243 q 617 1251 604 1251 l 715 1251 q 739 1247 729 1251 q 758 1228 749 1243 l 869 1081 q 874 1061 876 1072 q 850 1042 871 1042 l 792 1042 q 771 1044 781 1042 q 753 1051 761 1046 l 649 1122 l 515 1051 q 494 1044 504 1046 q 474 1042 485 1042 l 394 1042 z "},"I":{"ha":432,"x_min":19,"x_max":444,"o":"m 50 0 q 27 10 35 0 q 22 35 19 19 l 215 938 q 230 963 218 953 q 256 972 242 972 l 414 972 q 436 963 428 972 q 442 938 444 953 l 249 35 q 234 10 246 19 q 208 0 222 0 l 50 0 z "},"Ĳ":{"ha":974,"x_min":19,"x_max":993,"o":"m 383 -14 q 361 -4 368 -14 q 357 21 354 6 l 383 144 q 398 169 386 160 q 425 179 410 179 q 569 233 514 179 q 646 386 625 286 l 764 938 q 778 963 767 953 q 804 972 790 972 l 963 972 q 985 963 978 972 q 990 938 993 953 l 867 357 q 783 146 840 228 q 629 25 726 64 q 383 -14 532 -14 m 50 0 q 28 10 36 0 q 22 35 19 19 l 215 938 q 230 963 218 953 q 256 972 242 972 l 414 972 q 436 963 428 972 q 442 938 444 953 l 249 35 q 234 10 246 19 q 208 0 222 0 l 50 0 z "},"Í":{"ha":432,"x_min":19,"x_max":667,"o":"m 50 0 q 27 10 35 0 q 22 35 19 19 l 215 938 q 230 963 218 953 q 256 972 242 972 l 414 972 q 436 963 428 972 q 442 938 444 953 l 249 35 q 234 10 246 19 q 208 0 222 0 l 50 0 m 275 1042 q 256 1061 253 1042 q 267 1081 257 1072 l 417 1225 q 444 1247 433 1242 q 474 1251 456 1251 l 643 1251 q 661 1244 656 1251 q 665 1226 667 1236 q 653 1207 664 1214 l 444 1061 q 419 1047 431 1051 q 389 1042 407 1042 l 275 1042 z "},"Ĭ":{"ha":432,"x_min":19,"x_max":592,"o":"m 50 0 q 27 10 35 0 q 22 35 19 19 l 215 938 q 230 963 218 953 q 256 972 242 972 l 414 972 q 436 963 428 972 q 442 938 444 953 l 249 35 q 234 10 246 19 q 208 0 222 0 l 50 0 m 357 1032 q 247 1058 290 1032 q 188 1126 204 1083 q 182 1221 171 1169 q 193 1240 185 1232 q 214 1247 201 1247 l 294 1247 q 313 1240 307 1247 q 315 1221 318 1232 q 318 1163 310 1189 q 367 1138 326 1138 q 428 1163 407 1138 q 457 1221 449 1189 q 468 1240 460 1232 q 489 1247 476 1247 l 569 1247 q 588 1240 582 1247 q 590 1221 593 1232 q 553 1126 579 1169 q 481 1058 528 1083 q 357 1032 433 1032 z "},"Î":{"ha":432,"x_min":19,"x_max":594,"o":"m 50 0 q 27 10 35 0 q 22 35 19 19 l 215 938 q 230 963 218 953 q 256 972 242 972 l 414 972 q 436 963 428 972 q 442 938 444 953 l 249 35 q 234 10 246 19 q 208 0 222 0 l 50 0 m 113 1042 q 96 1060 93 1042 q 107 1079 97 1071 l 282 1228 q 310 1247 299 1243 q 335 1251 322 1251 l 433 1251 q 457 1247 447 1251 q 476 1228 467 1243 l 588 1081 q 592 1061 594 1072 q 568 1042 589 1042 l 510 1042 q 489 1044 499 1042 q 471 1051 479 1046 l 367 1122 l 233 1051 q 213 1044 222 1046 q 192 1042 203 1042 l 113 1042 z "},"Ï":{"ha":432,"x_min":19,"x_max":631,"o":"m 50 0 q 27 10 35 0 q 22 35 19 19 l 215 938 q 230 963 218 953 q 256 972 242 972 l 414 972 q 436 963 428 972 q 442 938 444 953 l 249 35 q 234 10 246 19 q 208 0 222 0 l 50 0 m 451 1042 q 431 1050 438 1042 q 426 1074 424 1058 l 450 1188 q 464 1210 453 1201 q 489 1219 475 1219 l 603 1219 q 624 1210 617 1219 q 628 1188 631 1201 l 604 1074 q 590 1050 601 1058 q 565 1042 579 1042 l 451 1042 m 136 1042 q 115 1050 122 1042 q 111 1074 108 1058 l 135 1188 q 149 1210 138 1201 q 174 1219 160 1219 l 288 1219 q 308 1210 301 1219 q 313 1188 315 1201 l 289 1074 q 275 1050 286 1058 q 250 1042 264 1042 l 136 1042 z "},"İ":{"ha":432,"x_min":19,"x_max":483,"o":"m 50 0 q 27 10 35 0 q 22 35 19 19 l 215 938 q 230 963 218 953 q 256 972 242 972 l 414 972 q 436 963 428 972 q 442 938 444 953 l 249 35 q 234 10 246 19 q 208 0 222 0 l 50 0 m 285 1042 q 264 1050 271 1042 q 260 1074 257 1058 l 288 1203 q 301 1226 290 1217 q 325 1235 311 1235 l 454 1235 q 475 1226 468 1235 q 479 1203 482 1217 l 453 1074 q 439 1050 450 1058 q 414 1042 428 1042 l 285 1042 z "},"Ì":{"ha":432,"x_min":19,"x_max":446,"o":"m 50 0 q 27 10 35 0 q 22 35 19 19 l 215 938 q 230 963 218 953 q 256 972 242 972 l 414 972 q 436 963 428 972 q 442 938 444 953 l 249 35 q 234 10 246 19 q 208 0 222 0 l 50 0 m 308 1042 q 281 1047 290 1042 q 261 1061 271 1051 l 115 1206 q 111 1224 108 1213 q 143 1251 115 1251 l 307 1251 q 333 1247 325 1251 q 353 1225 342 1242 l 440 1082 q 443 1064 446 1074 q 417 1042 438 1042 l 308 1042 z "},"Ī":{"ha":432,"x_min":19,"x_max":611,"o":"m 50 0 q 27 10 35 0 q 22 35 19 19 l 215 938 q 230 963 218 953 q 256 972 242 972 l 414 972 q 436 963 428 972 q 442 938 444 953 l 249 35 q 234 10 246 19 q 208 0 222 0 l 50 0 m 147 1042 q 127 1051 133 1042 q 124 1074 121 1060 l 142 1163 q 156 1185 144 1176 q 181 1193 167 1193 l 583 1193 q 603 1185 597 1193 q 607 1163 610 1176 l 589 1074 q 576 1051 588 1060 q 551 1042 565 1042 l 147 1042 z "},"Į":{"ha":444,"x_min":-28,"x_max":475,"o":"m 151 -307 q 40 -279 81 -307 q -15 -202 -1 -251 q -14 -92 -28 -153 q 24 -9 -4 -42 q 90 38 53 24 l 75 43 q 64 52 68 44 q 63 69 60 60 l 246 938 q 261 963 249 953 q 288 972 274 972 l 446 972 q 468 963 461 972 q 472 938 475 953 l 281 35 q 266 10 278 19 q 239 0 254 0 l 222 0 q 151 -27 179 0 q 117 -92 124 -54 q 124 -155 108 -128 q 183 -182 140 -182 l 201 -182 q 223 -192 215 -182 q 228 -215 231 -201 l 215 -272 q 201 -297 213 -287 q 174 -307 189 -307 l 151 -307 z "},"Ĩ":{"ha":432,"x_min":19,"x_max":621,"o":"m 50 0 q 27 10 35 0 q 22 35 19 19 l 215 938 q 230 963 218 953 q 256 972 242 972 l 414 972 q 436 963 428 972 q 442 938 444 953 l 249 35 q 234 10 246 19 q 208 0 222 0 l 50 0 m 446 1035 q 386 1047 410 1035 q 343 1072 363 1060 q 300 1083 324 1083 q 267 1074 278 1083 q 247 1053 256 1064 q 224 1042 239 1042 l 150 1042 q 135 1049 140 1042 q 131 1065 129 1057 q 147 1115 135 1088 q 181 1169 160 1143 q 232 1213 201 1196 q 301 1231 263 1231 q 363 1218 339 1231 q 406 1193 388 1206 q 449 1181 425 1181 q 482 1192 471 1181 q 501 1213 493 1203 q 525 1224 510 1224 l 599 1224 q 615 1216 610 1224 q 618 1199 619 1208 q 601 1150 614 1178 q 567 1096 589 1122 q 516 1052 546 1069 q 446 1035 486 1035 z "},"J":{"ha":913,"x_min":-4,"x_max":933,"o":"m 358 -14 q 222 6 289 -14 q 101 65 154 25 q 22 163 47 104 q 8 299 -4 221 q 20 320 11 311 q 43 329 29 329 l 203 329 q 230 319 222 329 q 239 292 238 310 q 271 195 236 225 q 372 165 306 165 q 509 217 458 165 q 581 363 560 268 l 671 788 l 210 788 q 188 797 196 788 q 183 821 181 807 l 208 938 q 222 963 211 953 q 249 972 233 972 l 903 972 q 926 963 918 972 q 931 938 933 953 l 807 357 q 726 155 782 238 q 581 29 671 72 q 358 -14 490 -14 z "},"Ĵ":{"ha":913,"x_min":-4,"x_max":933,"o":"m 358 -14 q 222 6 289 -14 q 101 65 154 25 q 22 163 47 104 q 8 299 -4 221 q 20 320 11 311 q 43 329 29 329 l 203 329 q 230 319 222 329 q 239 292 238 310 q 271 195 236 225 q 372 165 306 165 q 509 217 458 165 q 581 363 560 268 l 671 788 l 210 788 q 188 797 196 788 q 183 821 181 807 l 208 938 q 222 963 211 953 q 249 972 233 972 l 903 972 q 926 963 918 972 q 931 938 933 953 l 807 357 q 726 155 782 238 q 581 29 671 72 q 358 -14 490 -14 m 354 1042 q 338 1060 335 1042 q 349 1079 339 1071 l 524 1228 q 552 1247 540 1243 q 576 1251 564 1251 l 675 1251 q 699 1247 689 1251 q 718 1228 708 1243 l 829 1081 q 833 1061 836 1072 q 810 1042 831 1042 l 751 1042 q 731 1044 740 1042 q 713 1051 721 1046 l 608 1122 l 475 1051 q 454 1044 464 1046 q 433 1042 444 1042 l 354 1042 z "},"K":{"ha":888,"x_min":19,"x_max":963,"o":"m 50 0 q 28 10 36 0 q 22 35 19 19 l 214 938 q 228 963 217 953 q 254 972 240 972 l 404 972 q 427 963 419 972 q 432 938 435 953 l 365 628 l 701 946 q 722 963 708 954 q 760 972 736 972 l 932 972 q 958 955 953 972 q 950 926 963 938 l 506 492 l 792 46 q 791 14 803 28 q 764 0 779 0 l 600 0 q 567 8 578 0 q 551 26 556 17 l 315 388 l 239 35 q 226 10 236 19 q 200 0 215 0 l 50 0 z "},"Ķ":{"ha":888,"x_min":19,"x_max":963,"o":"m 50 0 q 28 10 36 0 q 22 35 19 19 l 214 938 q 228 963 217 953 q 254 972 240 972 l 404 972 q 427 963 419 972 q 432 938 435 953 l 365 628 l 701 946 q 722 963 708 954 q 760 972 736 972 l 932 972 q 958 955 953 972 q 950 926 963 938 l 506 492 l 792 46 q 791 14 803 28 q 764 0 779 0 l 600 0 q 567 8 578 0 q 551 26 556 17 l 315 388 l 239 35 q 226 10 236 19 q 200 0 215 0 l 50 0 m 194 -321 q 176 -311 182 -321 q 175 -289 169 -301 l 239 -115 q 260 -83 246 -97 q 296 -69 274 -69 l 435 -69 q 450 -77 444 -69 q 454 -93 456 -85 q 447 -112 453 -103 l 344 -283 q 323 -309 336 -297 q 289 -321 310 -321 l 194 -321 z "},"L":{"ha":810,"x_min":19,"x_max":739,"o":"m 50 0 q 28 10 36 0 q 22 35 19 19 l 215 938 q 230 963 218 953 q 256 972 242 972 l 411 972 q 433 963 425 972 q 439 938 442 953 l 278 186 l 708 186 q 731 176 724 186 q 736 151 739 167 l 711 35 q 697 10 708 19 q 671 0 686 0 l 50 0 z "},"Ĺ":{"ha":810,"x_min":19,"x_max":739,"o":"m 50 0 q 28 10 36 0 q 22 35 19 19 l 215 938 q 230 963 218 953 q 256 972 242 972 l 411 972 q 433 963 425 972 q 439 938 442 953 l 278 186 l 708 186 q 731 176 724 186 q 736 151 739 167 l 711 35 q 697 10 708 19 q 671 0 686 0 l 50 0 m 276 1042 q 257 1061 254 1042 q 268 1081 258 1072 l 418 1225 q 446 1247 435 1242 q 475 1251 457 1251 l 644 1251 q 663 1244 657 1251 q 667 1226 668 1236 q 654 1207 665 1214 l 446 1061 q 420 1047 432 1051 q 390 1042 408 1042 l 276 1042 z "},"Ľ":{"ha":814,"x_min":19,"x_max":794,"o":"m 533 735 q 515 744 521 735 q 514 767 508 754 l 578 940 q 599 972 585 958 q 635 986 613 986 l 774 986 q 789 978 783 986 q 793 963 794 971 q 786 943 792 953 l 683 772 q 662 747 675 758 q 628 735 649 735 l 533 735 m 50 0 q 28 10 36 0 q 22 35 19 19 l 215 938 q 230 963 218 953 q 256 972 242 972 l 411 972 q 433 963 425 972 q 439 938 442 953 l 278 186 l 708 186 q 731 176 724 186 q 736 151 739 167 l 711 35 q 697 10 708 19 q 671 0 686 0 l 50 0 z "},"Ļ":{"ha":810,"x_min":19,"x_max":739,"o":"m 50 0 q 28 10 36 0 q 22 35 19 19 l 215 938 q 230 963 218 953 q 256 972 242 972 l 411 972 q 433 963 425 972 q 439 938 442 953 l 278 186 l 708 186 q 731 176 724 186 q 736 151 739 167 l 711 35 q 697 10 708 19 q 671 0 686 0 l 50 0 m 164 -321 q 145 -311 151 -321 q 144 -289 139 -301 l 208 -115 q 229 -83 215 -97 q 265 -69 243 -69 l 404 -69 q 419 -77 414 -69 q 424 -93 425 -85 q 417 -112 422 -103 l 314 -283 q 292 -309 306 -297 q 258 -321 279 -321 l 164 -321 z "},"Ŀ":{"ha":814,"x_min":19,"x_max":756,"o":"m 50 0 q 28 10 36 0 q 22 35 19 19 l 215 938 q 230 963 218 953 q 256 972 242 972 l 411 972 q 433 963 425 972 q 439 938 442 953 l 278 186 l 708 186 q 731 176 724 186 q 736 151 739 167 l 711 35 q 697 10 708 19 q 671 0 686 0 l 50 0 m 557 432 q 536 440 543 432 q 532 463 529 449 l 560 593 q 574 616 564 607 q 597 625 583 625 l 728 625 q 748 616 740 625 q 753 593 756 607 l 725 463 q 711 440 722 449 q 686 432 700 432 l 557 432 z "},"Ł":{"ha":821,"x_min":4,"x_max":751,"o":"m 61 0 q 39 10 47 0 q 33 35 31 19 l 103 358 l 46 338 q 28 333 33 333 q 10 341 17 333 q 7 361 4 349 l 26 451 q 38 477 29 468 q 65 492 47 486 l 136 517 l 226 938 q 241 963 229 953 q 267 972 253 972 l 422 972 q 444 963 436 972 q 450 938 453 953 l 378 604 l 596 683 q 614 688 608 688 q 633 680 626 688 q 636 660 639 672 l 617 571 q 605 546 614 554 q 578 531 596 538 l 344 446 l 289 186 l 721 186 q 743 176 735 186 q 747 153 751 167 l 722 35 q 708 10 719 19 q 682 0 697 0 l 61 0 z "},"M":{"ha":1139,"x_min":19,"x_max":1150,"o":"m 51 0 q 28 10 36 0 q 22 35 19 19 l 214 938 q 229 963 217 953 q 257 972 242 972 l 386 972 q 415 961 407 972 q 426 944 424 950 l 583 474 l 940 944 q 957 961 944 950 q 990 972 969 972 l 1119 972 q 1142 963 1135 972 q 1147 938 1150 953 l 956 35 q 941 10 953 19 q 914 0 929 0 l 772 0 q 750 10 758 0 q 744 35 742 19 l 863 585 l 622 265 q 599 243 613 253 q 568 233 586 233 l 504 233 q 476 243 485 233 q 464 265 468 253 l 353 603 l 233 35 q 219 10 231 19 q 193 0 207 0 l 51 0 z "},"N":{"ha":992,"x_min":19,"x_max":1003,"o":"m 50 0 q 28 10 36 0 q 22 35 19 19 l 214 938 q 228 963 217 953 q 256 972 240 972 l 381 972 q 410 963 401 972 q 419 947 418 954 l 668 364 l 790 938 q 805 963 793 953 q 832 972 817 972 l 972 972 q 995 963 988 972 q 1000 938 1003 953 l 808 35 q 794 10 806 21 q 768 0 782 0 l 642 0 q 613 10 621 0 q 603 25 606 19 l 351 592 l 233 35 q 219 10 231 19 q 192 0 207 0 l 50 0 z "},"Ń":{"ha":992,"x_min":19,"x_max":1003,"o":"m 50 0 q 28 10 36 0 q 22 35 19 19 l 214 938 q 228 963 217 953 q 256 972 240 972 l 381 972 q 410 963 401 972 q 419 947 418 954 l 668 364 l 790 938 q 805 963 793 953 q 832 972 817 972 l 972 972 q 995 963 988 972 q 1000 938 1003 953 l 808 35 q 794 10 806 21 q 768 0 782 0 l 642 0 q 613 10 621 0 q 603 25 606 19 l 351 592 l 233 35 q 219 10 231 19 q 192 0 207 0 l 50 0 m 540 1042 q 521 1061 518 1042 q 532 1081 522 1072 l 682 1225 q 710 1247 699 1242 q 739 1251 721 1251 l 908 1251 q 926 1244 921 1251 q 931 1226 932 1236 q 918 1207 929 1214 l 710 1061 q 684 1047 696 1051 q 654 1042 672 1042 l 540 1042 z "},"Ň":{"ha":992,"x_min":19,"x_max":1003,"o":"m 50 0 q 28 10 36 0 q 22 35 19 19 l 214 938 q 228 963 217 953 q 256 972 240 972 l 381 972 q 410 963 401 972 q 419 947 418 954 l 668 364 l 790 938 q 805 963 793 953 q 832 972 817 972 l 972 972 q 995 963 988 972 q 1000 938 1003 953 l 808 35 q 794 10 806 21 q 768 0 782 0 l 642 0 q 613 10 621 0 q 603 25 606 19 l 351 592 l 233 35 q 219 10 231 19 q 192 0 207 0 l 50 0 m 565 1042 q 543 1047 553 1042 q 522 1065 533 1051 l 411 1213 q 407 1232 404 1221 q 431 1251 411 1251 l 489 1251 q 510 1249 500 1251 q 528 1242 519 1247 l 632 1171 l 765 1242 q 786 1249 776 1247 q 807 1251 796 1251 l 886 1251 q 903 1232 906 1251 q 892 1213 901 1222 l 717 1065 q 689 1047 700 1051 q 664 1042 678 1042 l 565 1042 z "},"Ņ":{"ha":992,"x_min":19,"x_max":1003,"o":"m 50 0 q 28 10 36 0 q 22 35 19 19 l 214 938 q 228 963 217 953 q 256 972 240 972 l 381 972 q 410 963 401 972 q 419 947 418 954 l 668 364 l 790 938 q 805 963 793 953 q 832 972 817 972 l 972 972 q 995 963 988 972 q 1000 938 1003 953 l 808 35 q 794 10 806 21 q 768 0 782 0 l 642 0 q 613 10 621 0 q 603 25 606 19 l 351 592 l 233 35 q 219 10 231 19 q 192 0 207 0 l 50 0 m 240 -321 q 222 -311 228 -321 q 221 -289 215 -301 l 285 -115 q 306 -83 292 -97 q 342 -69 319 -69 l 481 -69 q 496 -77 490 -69 q 500 -93 501 -85 q 493 -112 499 -103 l 390 -283 q 369 -309 382 -297 q 335 -321 356 -321 l 240 -321 z "},"Ñ":{"ha":992,"x_min":19,"x_max":1003,"o":"m 50 0 q 28 10 36 0 q 22 35 19 19 l 214 938 q 228 963 217 953 q 256 972 240 972 l 381 972 q 410 963 401 972 q 419 947 418 954 l 668 364 l 790 938 q 805 963 793 953 q 832 972 817 972 l 972 972 q 995 963 988 972 q 1000 938 1003 953 l 808 35 q 794 10 806 21 q 768 0 782 0 l 642 0 q 613 10 621 0 q 603 25 606 19 l 351 592 l 233 35 q 219 10 231 19 q 192 0 207 0 l 50 0 m 711 1035 q 651 1047 675 1035 q 608 1072 628 1060 q 565 1083 589 1083 q 532 1074 543 1083 q 513 1053 521 1064 q 489 1042 504 1042 l 415 1042 q 400 1049 406 1042 q 396 1065 394 1057 q 413 1115 400 1088 q 446 1169 425 1143 q 497 1213 467 1196 q 567 1231 528 1231 q 628 1218 604 1231 q 672 1193 653 1206 q 714 1181 690 1181 q 747 1192 736 1181 q 767 1213 758 1203 q 790 1224 775 1224 l 864 1224 q 880 1216 875 1224 q 883 1199 885 1208 q 867 1150 879 1178 q 833 1096 854 1122 q 781 1052 811 1069 q 711 1035 751 1035 z "},"Ŋ":{"ha":990,"x_min":40,"x_max":1021,"o":"m 404 -312 q 382 -303 389 -312 q 378 -278 375 -293 l 403 -161 q 417 -137 406 -147 q 444 -128 429 -128 l 475 -128 q 543 -112 517 -128 q 585 -72 569 -97 q 607 -12 600 -46 l 617 32 l 369 586 l 253 35 q 238 10 250 19 q 210 0 225 0 l 69 0 q 47 10 54 0 q 43 35 40 19 l 233 938 q 249 963 236 953 q 276 972 261 972 l 403 972 q 431 963 424 972 q 440 947 439 953 l 688 368 l 808 938 q 824 963 811 953 q 850 972 836 972 l 992 972 q 1014 963 1007 972 q 1018 938 1021 953 l 815 -19 q 742 -178 796 -112 q 607 -278 689 -243 q 418 -312 525 -312 l 404 -312 z "},"O":{"ha":976,"x_min":46,"x_max":963,"o":"m 417 -14 q 258 10 331 -14 q 135 81 185 33 q 66 199 86 128 q 63 365 46 269 q 85 484 72 425 q 113 604 99 543 q 277 889 158 792 q 592 986 396 986 q 750 962 678 986 q 872 889 822 938 q 942 769 922 840 q 946 604 963 699 q 922 484 935 543 q 894 365 910 425 q 729 80 847 174 q 417 -14 611 -14 m 432 165 q 579 215 515 165 q 668 372 643 264 q 695 487 683 433 q 717 600 707 540 q 699 758 738 708 q 576 807 661 807 q 429 758 492 807 q 340 600 367 708 q 314 487 325 540 q 292 372 303 433 q 309 215 272 264 q 432 165 346 165 z "},"Ó":{"ha":976,"x_min":46,"x_max":963,"o":"m 417 -14 q 258 10 331 -14 q 135 81 185 33 q 66 199 86 128 q 63 365 46 269 q 85 484 72 425 q 113 604 99 543 q 277 889 158 792 q 592 986 396 986 q 750 962 678 986 q 872 889 822 938 q 942 769 922 840 q 946 604 963 699 q 922 484 935 543 q 894 365 910 425 q 729 80 847 174 q 417 -14 611 -14 m 432 165 q 579 215 515 165 q 668 372 643 264 q 695 487 683 433 q 717 600 707 540 q 699 758 738 708 q 576 807 661 807 q 429 758 492 807 q 340 600 367 708 q 314 487 325 540 q 292 372 303 433 q 309 215 272 264 q 432 165 346 165 m 539 1042 q 519 1061 517 1042 q 531 1081 521 1072 l 681 1225 q 708 1247 697 1242 q 738 1251 719 1251 l 907 1251 q 925 1244 919 1251 q 929 1226 931 1236 q 917 1207 928 1214 l 708 1061 q 683 1047 694 1051 q 653 1042 671 1042 l 539 1042 z "},"Ŏ":{"ha":976,"x_min":46,"x_max":963,"o":"m 417 -14 q 258 10 331 -14 q 135 81 185 33 q 66 199 86 128 q 63 365 46 269 q 85 484 72 425 q 113 604 99 543 q 277 889 158 792 q 592 986 396 986 q 750 962 678 986 q 872 889 822 938 q 942 769 922 840 q 946 604 963 699 q 922 484 935 543 q 894 365 910 425 q 729 80 847 174 q 417 -14 611 -14 m 432 165 q 579 215 515 165 q 668 372 643 264 q 695 487 683 433 q 717 600 707 540 q 699 758 738 708 q 576 807 661 807 q 429 758 492 807 q 340 600 367 708 q 314 487 325 540 q 292 372 303 433 q 309 215 272 264 q 432 165 346 165 m 621 1032 q 511 1058 554 1032 q 451 1126 468 1083 q 446 1221 435 1169 q 457 1240 449 1232 q 478 1247 465 1247 l 558 1247 q 576 1240 571 1247 q 579 1221 582 1232 q 582 1163 574 1189 q 631 1138 590 1138 q 692 1163 671 1138 q 721 1221 713 1189 q 732 1240 724 1232 q 753 1247 740 1247 l 833 1247 q 851 1240 846 1247 q 854 1221 857 1232 q 817 1126 843 1169 q 744 1058 792 1083 q 621 1032 697 1032 z "},"Ô":{"ha":976,"x_min":46,"x_max":963,"o":"m 417 -14 q 258 10 331 -14 q 135 81 185 33 q 66 199 86 128 q 63 365 46 269 q 85 484 72 425 q 113 604 99 543 q 277 889 158 792 q 592 986 396 986 q 750 962 678 986 q 872 889 822 938 q 942 769 922 840 q 946 604 963 699 q 922 484 935 543 q 894 365 910 425 q 729 80 847 174 q 417 -14 611 -14 m 432 165 q 579 215 515 165 q 668 372 643 264 q 695 487 683 433 q 717 600 707 540 q 699 758 738 708 q 576 807 661 807 q 429 758 492 807 q 340 600 367 708 q 314 487 325 540 q 292 372 303 433 q 309 215 272 264 q 432 165 346 165 m 376 1042 q 360 1060 357 1042 q 371 1079 361 1071 l 546 1228 q 574 1247 563 1243 q 599 1251 586 1251 l 697 1251 q 721 1247 711 1251 q 740 1228 731 1243 l 851 1081 q 856 1061 858 1072 q 832 1042 853 1042 l 774 1042 q 753 1044 763 1042 q 735 1051 743 1046 l 631 1122 l 497 1051 q 476 1044 486 1046 q 456 1042 467 1042 l 376 1042 z "},"Ö":{"ha":976,"x_min":46,"x_max":963,"o":"m 417 -14 q 258 10 331 -14 q 135 81 185 33 q 66 199 86 128 q 63 365 46 269 q 85 484 72 425 q 113 604 99 543 q 277 889 158 792 q 592 986 396 986 q 750 962 678 986 q 872 889 822 938 q 942 769 922 840 q 946 604 963 699 q 922 484 935 543 q 894 365 910 425 q 729 80 847 174 q 417 -14 611 -14 m 432 165 q 579 215 515 165 q 668 372 643 264 q 695 487 683 433 q 717 600 707 540 q 699 758 738 708 q 576 807 661 807 q 429 758 492 807 q 340 600 367 708 q 314 487 325 540 q 292 372 303 433 q 309 215 272 264 q 432 165 346 165 m 715 1042 q 694 1050 701 1042 q 690 1074 688 1058 l 714 1188 q 728 1210 717 1201 q 753 1219 739 1219 l 867 1219 q 888 1210 881 1219 q 892 1188 894 1201 l 868 1074 q 854 1050 865 1058 q 829 1042 843 1042 l 715 1042 m 400 1042 q 379 1050 386 1042 q 375 1074 372 1058 l 399 1188 q 413 1210 401 1201 q 438 1219 424 1219 l 551 1219 q 572 1210 565 1219 q 576 1188 579 1201 l 553 1074 q 539 1050 550 1058 q 514 1042 528 1042 l 400 1042 z "},"Ò":{"ha":976,"x_min":46,"x_max":963,"o":"m 417 -14 q 258 10 331 -14 q 135 81 185 33 q 66 199 86 128 q 63 365 46 269 q 85 484 72 425 q 113 604 99 543 q 277 889 158 792 q 592 986 396 986 q 750 962 678 986 q 872 889 822 938 q 942 769 922 840 q 946 604 963 699 q 922 484 935 543 q 894 365 910 425 q 729 80 847 174 q 417 -14 611 -14 m 432 165 q 579 215 515 165 q 668 372 643 264 q 695 487 683 433 q 717 600 707 540 q 699 758 738 708 q 576 807 661 807 q 429 758 492 807 q 340 600 367 708 q 314 487 325 540 q 292 372 303 433 q 309 215 272 264 q 432 165 346 165 m 572 1042 q 544 1047 554 1042 q 525 1061 535 1051 l 379 1206 q 375 1224 372 1213 q 407 1251 379 1251 l 571 1251 q 597 1247 589 1251 q 617 1225 606 1242 l 704 1082 q 707 1064 710 1074 q 681 1042 701 1042 l 572 1042 z "},"Ő":{"ha":976,"x_min":46,"x_max":1001,"o":"m 417 -14 q 258 10 331 -14 q 135 81 185 33 q 66 199 86 128 q 63 365 46 269 q 85 484 72 425 q 113 604 99 543 q 277 889 158 792 q 592 986 396 986 q 750 962 678 986 q 872 889 822 938 q 942 769 922 840 q 946 604 963 699 q 922 484 935 543 q 894 365 910 425 q 729 80 847 174 q 417 -14 611 -14 m 432 165 q 579 215 515 165 q 668 372 643 264 q 695 487 683 433 q 717 600 707 540 q 699 758 738 708 q 576 807 661 807 q 429 758 492 807 q 340 600 367 708 q 314 487 325 540 q 292 372 303 433 q 309 215 272 264 q 432 165 346 165 m 694 1042 q 675 1061 674 1042 q 679 1071 676 1065 q 685 1081 682 1076 l 781 1225 q 803 1245 790 1239 q 838 1251 815 1251 l 976 1251 q 999 1228 1003 1251 q 988 1207 997 1217 l 826 1061 q 778 1042 804 1042 l 694 1042 m 419 1042 q 401 1061 399 1042 q 405 1071 401 1065 q 411 1081 408 1076 l 506 1225 q 528 1245 515 1239 q 563 1251 540 1251 l 701 1251 q 724 1228 728 1251 q 713 1207 724 1217 l 551 1061 q 503 1042 529 1042 l 419 1042 z "},"Ō":{"ha":976,"x_min":46,"x_max":963,"o":"m 417 -14 q 258 10 331 -14 q 135 81 185 33 q 66 199 86 128 q 63 365 46 269 q 85 484 72 425 q 113 604 99 543 q 277 889 158 792 q 592 986 396 986 q 750 962 678 986 q 872 889 822 938 q 942 769 922 840 q 946 604 963 699 q 922 484 935 543 q 894 365 910 425 q 729 80 847 174 q 417 -14 611 -14 m 432 165 q 579 215 515 165 q 668 372 643 264 q 695 487 683 433 q 717 600 707 540 q 699 758 738 708 q 576 807 661 807 q 429 758 492 807 q 340 600 367 708 q 314 487 325 540 q 292 372 303 433 q 309 215 272 264 q 432 165 346 165 m 411 1042 q 391 1051 397 1042 q 388 1074 385 1060 l 406 1163 q 419 1185 408 1176 q 444 1193 431 1193 l 847 1193 q 867 1185 861 1193 q 871 1163 874 1176 l 853 1074 q 840 1051 851 1060 q 815 1042 829 1042 l 411 1042 z "},"Ø":{"ha":976,"x_min":14,"x_max":1014,"o":"m 417 -14 q 258 10 331 -14 q 135 81 185 33 q 66 199 86 128 q 63 365 46 269 q 85 484 72 425 q 113 604 99 543 q 277 889 158 792 q 592 986 396 986 q 750 962 678 986 q 872 889 822 938 q 942 769 922 840 q 946 604 963 699 q 922 484 935 543 q 894 365 910 425 q 729 80 847 174 q 417 -14 611 -14 m 432 165 q 579 215 515 165 q 668 372 643 264 q 695 487 683 433 q 717 600 707 540 q 699 758 738 708 q 576 807 661 807 q 429 758 492 807 q 340 600 367 708 q 314 487 325 540 q 292 372 303 433 q 309 215 272 264 q 432 165 346 165 m 46 -90 q 22 -75 29 -90 q 28 -43 14 -60 l 906 1043 q 917 1055 908 1047 q 939 1063 925 1063 l 982 1063 q 1006 1048 999 1063 q 1001 1017 1014 1033 l 122 -69 q 111 -82 119 -74 q 88 -90 103 -90 l 46 -90 z "},"Ǿ":{"ha":1014,"x_min":14,"x_max":1014,"o":"m 561 1042 q 542 1061 539 1042 q 553 1081 543 1072 l 703 1225 q 731 1247 719 1242 q 760 1251 742 1251 l 929 1251 q 947 1244 942 1251 q 951 1226 953 1236 q 939 1207 950 1214 l 731 1061 q 705 1047 717 1051 q 675 1042 693 1042 l 561 1042 m 417 -14 q 258 10 331 -14 q 135 81 185 33 q 66 199 86 128 q 63 365 46 269 q 85 484 72 425 q 113 604 99 543 q 277 889 158 792 q 592 986 396 986 q 750 962 678 986 q 872 889 822 938 q 942 769 922 840 q 946 604 963 699 q 922 484 935 543 q 894 365 910 425 q 729 80 847 174 q 417 -14 611 -14 m 432 165 q 579 215 515 165 q 668 372 643 264 q 695 487 683 433 q 717 600 707 540 q 699 758 738 708 q 576 807 661 807 q 429 758 492 807 q 340 600 367 708 q 314 487 325 540 q 292 372 303 433 q 309 215 272 264 q 432 165 346 165 m 46 -90 q 22 -75 29 -90 q 28 -43 14 -60 l 906 1043 q 917 1055 908 1047 q 939 1063 925 1063 l 982 1063 q 1006 1048 999 1063 q 1001 1017 1014 1033 l 122 -69 q 111 -82 119 -74 q 88 -90 103 -90 l 46 -90 z "},"Õ":{"ha":976,"x_min":46,"x_max":963,"o":"m 417 -14 q 258 10 331 -14 q 135 81 185 33 q 66 199 86 128 q 63 365 46 269 q 85 484 72 425 q 113 604 99 543 q 277 889 158 792 q 592 986 396 986 q 750 962 678 986 q 872 889 822 938 q 942 769 922 840 q 946 604 963 699 q 922 484 935 543 q 894 365 910 425 q 729 80 847 174 q 417 -14 611 -14 m 432 165 q 579 215 515 165 q 668 372 643 264 q 695 487 683 433 q 717 600 707 540 q 699 758 738 708 q 576 807 661 807 q 429 758 492 807 q 340 600 367 708 q 314 487 325 540 q 292 372 303 433 q 309 215 272 264 q 432 165 346 165 m 711 1035 q 651 1047 675 1035 q 608 1072 628 1060 q 565 1083 589 1083 q 532 1074 543 1083 q 513 1053 521 1064 q 489 1042 504 1042 l 415 1042 q 400 1049 406 1042 q 396 1065 394 1057 q 413 1115 400 1088 q 446 1169 425 1143 q 497 1213 467 1196 q 567 1231 528 1231 q 628 1218 604 1231 q 672 1193 653 1206 q 714 1181 690 1181 q 747 1192 736 1181 q 767 1213 758 1203 q 790 1224 775 1224 l 864 1224 q 880 1216 875 1224 q 883 1199 885 1208 q 867 1150 879 1178 q 833 1096 854 1122 q 781 1052 811 1069 q 711 1035 751 1035 z "},"Œ":{"ha":1319,"x_min":47,"x_max":1363,"o":"m 428 0 q 262 24 336 0 q 138 94 188 47 q 67 213 88 142 q 65 379 47 285 q 87 485 76 439 q 111 593 97 532 q 200 803 142 719 q 355 930 258 888 q 592 972 451 972 l 1331 972 q 1354 963 1346 972 q 1360 938 1363 953 l 1336 826 q 1321 803 1332 813 q 1294 793 1310 793 l 885 793 l 838 575 l 1217 575 q 1240 565 1232 575 q 1244 540 1247 556 l 1222 438 q 1208 414 1219 424 q 1181 404 1196 404 l 803 404 l 754 179 l 1174 179 q 1197 169 1189 179 q 1201 144 1204 160 l 1178 35 q 1163 10 1175 19 q 1136 0 1151 0 l 428 0 m 451 179 l 542 179 l 672 793 l 582 793 q 464 772 514 793 q 383 707 414 751 q 333 590 351 663 q 316 519 324 550 q 302 456 308 488 q 289 383 296 424 q 308 229 269 279 q 451 179 347 179 z "},"P":{"ha":928,"x_min":19,"x_max":956,"o":"m 50 0 q 28 10 36 0 q 22 35 19 19 l 214 938 q 229 963 217 953 q 256 972 242 972 l 618 972 q 768 953 701 972 q 878 894 835 933 q 939 795 922 854 q 939 658 956 736 q 801 424 906 500 q 522 349 696 349 l 317 349 l 250 35 q 235 10 247 19 q 208 0 224 0 l 50 0 m 350 521 l 529 521 q 647 556 596 521 q 713 660 697 590 q 716 733 721 701 q 683 781 711 764 q 596 799 656 799 l 410 799 l 350 521 z "},"Þ":{"ha":929,"x_min":19,"x_max":921,"o":"m 50 0 q 28 10 36 0 q 22 35 19 19 l 215 938 q 230 963 218 953 q 256 972 242 972 l 415 972 q 438 963 429 972 q 443 938 446 953 l 414 806 l 583 806 q 732 786 665 806 q 843 726 799 767 q 904 628 888 686 q 904 490 921 569 q 766 258 871 333 q 486 182 661 182 l 282 182 l 250 35 q 235 10 247 19 q 208 0 224 0 l 50 0 m 315 354 l 493 354 q 610 389 560 354 q 676 492 661 424 q 681 565 686 533 q 647 614 675 596 q 561 632 619 632 l 374 632 l 315 354 z "},"Q":{"ha":976,"x_min":58,"x_max":988,"o":"m 638 -90 q 608 -78 617 -90 q 593 -58 599 -67 l 557 8 q 417 -14 493 -14 q 208 28 290 -14 q 92 153 125 69 q 81 365 58 238 q 105 484 92 425 q 132 604 118 543 q 233 815 163 729 q 406 943 304 900 q 629 986 507 986 q 835 943 751 986 q 953 815 918 900 q 964 604 988 729 q 942 484 954 543 q 914 365 929 425 q 756 94 868 188 l 825 -47 q 826 -61 828 -54 q 815 -81 825 -72 q 792 -90 804 -90 l 638 -90 m 456 165 q 600 215 538 165 q 688 372 663 264 q 714 487 703 433 q 735 600 725 540 q 734 718 749 672 q 683 785 719 764 q 592 807 646 807 q 448 758 511 807 q 358 600 385 708 q 333 487 344 540 q 311 372 322 433 q 312 254 297 300 q 364 187 326 208 q 456 165 401 165 z "},"R":{"ha":947,"x_min":40,"x_max":983,"o":"m 69 0 q 47 10 54 0 q 43 35 40 19 l 233 938 q 249 963 236 953 q 276 972 261 972 l 644 972 q 901 892 818 972 q 951 663 983 813 q 867 493 931 561 q 715 392 804 425 l 838 44 q 840 38 839 40 q 839 29 840 35 q 826 9 836 18 q 803 0 815 0 l 649 0 q 615 13 624 0 q 601 38 606 26 l 500 356 l 332 356 l 263 35 q 248 10 260 19 q 221 0 236 0 l 69 0 m 368 532 l 547 532 q 667 567 622 532 q 725 664 711 601 q 709 763 738 726 q 604 799 681 799 l 425 799 l 368 532 z "},"Ŕ":{"ha":947,"x_min":40,"x_max":983,"o":"m 69 0 q 47 10 54 0 q 43 35 40 19 l 233 938 q 249 963 236 953 q 276 972 261 972 l 644 972 q 901 892 818 972 q 951 663 983 813 q 867 493 931 561 q 715 392 804 425 l 838 44 q 840 38 839 40 q 839 29 840 35 q 826 9 836 18 q 803 0 815 0 l 649 0 q 615 13 624 0 q 601 38 606 26 l 500 356 l 332 356 l 263 35 q 248 10 260 19 q 221 0 236 0 l 69 0 m 368 532 l 547 532 q 667 567 622 532 q 725 664 711 601 q 709 763 738 726 q 604 799 681 799 l 425 799 l 368 532 m 493 1042 q 474 1061 471 1042 q 485 1081 475 1072 l 635 1225 q 663 1247 651 1242 q 692 1251 674 1251 l 861 1251 q 879 1244 874 1251 q 883 1226 885 1236 q 871 1207 882 1214 l 663 1061 q 637 1047 649 1051 q 607 1042 625 1042 l 493 1042 z "},"Ř":{"ha":947,"x_min":40,"x_max":983,"o":"m 69 0 q 47 10 54 0 q 43 35 40 19 l 233 938 q 249 963 236 953 q 276 972 261 972 l 644 972 q 901 892 818 972 q 951 663 983 813 q 867 493 931 561 q 715 392 804 425 l 838 44 q 840 38 839 40 q 839 29 840 35 q 826 9 836 18 q 803 0 815 0 l 649 0 q 615 13 624 0 q 601 38 606 26 l 500 356 l 332 356 l 263 35 q 248 10 260 19 q 221 0 236 0 l 69 0 m 368 532 l 547 532 q 667 567 622 532 q 725 664 711 601 q 709 763 738 726 q 604 799 681 799 l 425 799 l 368 532 m 518 1042 q 496 1047 506 1042 q 475 1065 486 1051 l 364 1213 q 360 1232 357 1221 q 383 1251 364 1251 l 442 1251 q 463 1249 453 1251 q 481 1242 472 1247 l 585 1171 l 718 1242 q 739 1249 729 1247 q 760 1251 749 1251 l 839 1251 q 856 1232 858 1251 q 844 1213 854 1222 l 669 1065 q 642 1047 653 1051 q 617 1042 631 1042 l 518 1042 z "},"Ŗ":{"ha":947,"x_min":40,"x_max":983,"o":"m 69 0 q 47 10 54 0 q 43 35 40 19 l 233 938 q 249 963 236 953 q 276 972 261 972 l 644 972 q 901 892 818 972 q 951 663 983 813 q 867 493 931 561 q 715 392 804 425 l 838 44 q 840 38 839 40 q 839 29 840 35 q 826 9 836 18 q 803 0 815 0 l 649 0 q 615 13 624 0 q 601 38 606 26 l 500 356 l 332 356 l 263 35 q 248 10 260 19 q 221 0 236 0 l 69 0 m 368 532 l 547 532 q 667 567 622 532 q 725 664 711 601 q 709 763 738 726 q 604 799 681 799 l 425 799 l 368 532 m 219 -321 q 201 -311 207 -321 q 200 -289 194 -301 l 264 -115 q 285 -83 271 -97 q 321 -69 299 -69 l 460 -69 q 475 -77 469 -69 q 479 -93 481 -85 q 472 -112 478 -103 l 369 -283 q 348 -309 361 -297 q 314 -321 335 -321 l 219 -321 z "},"S":{"ha":904,"x_min":1,"x_max":899,"o":"m 379 -14 q 160 24 246 -14 q 38 126 75 63 q 13 260 1 189 q 23 280 14 271 q 44 289 32 289 l 196 289 q 222 281 214 289 q 238 263 231 274 q 259 217 242 239 q 310 180 276 194 q 394 165 343 165 q 539 194 486 165 q 603 274 592 224 q 592 332 611 310 q 523 372 572 354 q 393 411 474 390 q 229 473 293 433 q 141 572 165 513 q 135 715 117 632 q 268 913 161 840 q 546 986 375 986 q 702 961 635 986 q 815 896 769 936 q 879 810 860 856 q 892 721 899 764 q 881 701 890 710 q 860 692 872 692 l 701 692 q 678 697 688 692 q 663 717 668 703 q 627 780 663 753 q 532 807 592 807 q 417 782 464 807 q 357 706 369 757 q 366 649 350 672 q 426 609 382 626 q 546 571 469 592 q 731 507 663 546 q 823 410 799 468 q 829 268 847 351 q 685 58 800 129 q 379 -14 569 -14 z "},"Ś":{"ha":904,"x_min":1,"x_max":899,"o":"m 379 -14 q 160 24 246 -14 q 38 126 75 63 q 13 260 1 189 q 23 280 14 271 q 44 289 32 289 l 196 289 q 222 281 214 289 q 238 263 231 274 q 259 217 242 239 q 310 180 276 194 q 394 165 343 165 q 539 194 486 165 q 603 274 592 224 q 592 332 611 310 q 523 372 572 354 q 393 411 474 390 q 229 473 293 433 q 141 572 165 513 q 135 715 117 632 q 268 913 161 840 q 546 986 375 986 q 702 961 635 986 q 815 896 769 936 q 879 810 860 856 q 892 721 899 764 q 881 701 890 710 q 860 692 872 692 l 701 692 q 678 697 688 692 q 663 717 668 703 q 627 780 663 753 q 532 807 592 807 q 417 782 464 807 q 357 706 369 757 q 366 649 350 672 q 426 609 382 626 q 546 571 469 592 q 731 507 663 546 q 823 410 799 468 q 829 268 847 351 q 685 58 800 129 q 379 -14 569 -14 m 499 1042 q 479 1061 476 1042 q 490 1081 481 1072 l 640 1225 q 668 1247 657 1242 q 697 1251 679 1251 l 867 1251 q 885 1244 879 1251 q 889 1226 890 1236 q 876 1207 888 1214 l 668 1061 q 642 1047 654 1051 q 613 1042 631 1042 l 499 1042 z "},"Š":{"ha":904,"x_min":1,"x_max":899,"o":"m 379 -14 q 160 24 246 -14 q 38 126 75 63 q 13 260 1 189 q 23 280 14 271 q 44 289 32 289 l 196 289 q 222 281 214 289 q 238 263 231 274 q 259 217 242 239 q 310 180 276 194 q 394 165 343 165 q 539 194 486 165 q 603 274 592 224 q 592 332 611 310 q 523 372 572 354 q 393 411 474 390 q 229 473 293 433 q 141 572 165 513 q 135 715 117 632 q 268 913 161 840 q 546 986 375 986 q 702 961 635 986 q 815 896 769 936 q 879 810 860 856 q 892 721 899 764 q 881 701 890 710 q 860 692 872 692 l 701 692 q 678 697 688 692 q 663 717 668 703 q 627 780 663 753 q 532 807 592 807 q 417 782 464 807 q 357 706 369 757 q 366 649 350 672 q 426 609 382 626 q 546 571 469 592 q 731 507 663 546 q 823 410 799 468 q 829 268 847 351 q 685 58 800 129 q 379 -14 569 -14 m 524 1042 q 501 1047 511 1042 q 481 1065 492 1051 l 369 1213 q 365 1232 363 1221 q 389 1251 369 1251 l 447 1251 q 468 1249 458 1251 q 486 1242 478 1247 l 590 1171 l 724 1242 q 744 1249 735 1247 q 765 1251 754 1251 l 844 1251 q 861 1232 864 1251 q 850 1213 860 1222 l 675 1065 q 647 1047 658 1051 q 622 1042 636 1042 l 524 1042 z "},"Ş":{"ha":904,"x_min":0,"x_max":900,"o":"m 324 -306 q 258 -293 286 -306 q 222 -264 231 -281 q 228 -235 213 -247 l 257 -212 q 279 -206 271 -201 q 300 -219 288 -211 q 340 -228 313 -228 q 378 -215 361 -228 q 399 -183 394 -203 q 392 -153 403 -165 q 360 -140 382 -140 q 326 -145 342 -140 q 299 -151 311 -150 q 279 -143 288 -153 l 260 -117 q 256 -98 253 -108 q 269 -72 260 -87 l 310 -11 q 124 39 193 -1 q 27 137 54 79 q 13 260 0 194 q 26 280 15 271 q 49 289 36 289 l 197 289 q 224 281 215 289 q 238 263 232 274 q 259 217 242 239 q 311 180 276 194 q 400 165 346 165 q 542 194 492 165 q 604 274 593 224 q 592 332 611 310 q 524 372 572 354 q 393 411 475 390 q 230 469 294 433 q 140 560 165 504 q 132 700 114 617 q 209 848 150 783 q 360 949 268 913 q 567 986 451 986 q 726 961 660 986 q 831 896 792 936 q 885 810 869 856 q 893 721 900 764 q 881 701 892 710 q 857 692 871 692 l 701 692 q 679 697 689 692 q 664 717 669 703 q 628 780 664 753 q 528 807 593 807 q 415 782 460 807 q 358 706 369 757 q 367 649 351 672 q 427 609 383 626 q 547 571 471 592 q 732 511 663 546 q 826 422 801 476 q 832 283 850 367 q 751 130 813 194 q 597 28 689 65 q 393 -12 504 -8 l 351 -71 q 376 -65 361 -67 q 401 -62 392 -62 q 473 -96 450 -62 q 485 -182 496 -129 q 431 -270 474 -235 q 324 -306 388 -306 z "},"Ŝ":{"ha":904,"x_min":1,"x_max":899,"o":"m 379 -14 q 160 24 246 -14 q 38 126 75 63 q 13 260 1 189 q 23 280 14 271 q 44 289 32 289 l 196 289 q 222 281 214 289 q 238 263 231 274 q 259 217 242 239 q 310 180 276 194 q 394 165 343 165 q 539 194 486 165 q 603 274 592 224 q 592 332 611 310 q 523 372 572 354 q 393 411 474 390 q 229 473 293 433 q 141 572 165 513 q 135 715 117 632 q 268 913 161 840 q 546 986 375 986 q 702 961 635 986 q 815 896 769 936 q 879 810 860 856 q 892 721 899 764 q 881 701 890 710 q 860 692 872 692 l 701 692 q 678 697 688 692 q 663 717 668 703 q 627 780 663 753 q 532 807 592 807 q 417 782 464 807 q 357 706 369 757 q 366 649 350 672 q 426 609 382 626 q 546 571 469 592 q 731 507 663 546 q 823 410 799 468 q 829 268 847 351 q 685 58 800 129 q 379 -14 569 -14 m 336 1042 q 319 1060 317 1042 q 331 1079 321 1071 l 506 1228 q 534 1247 522 1243 q 558 1251 546 1251 l 657 1251 q 681 1247 671 1251 q 700 1228 690 1243 l 811 1081 q 815 1061 818 1072 q 792 1042 813 1042 l 733 1042 q 713 1044 722 1042 q 694 1051 703 1046 l 590 1122 l 457 1051 q 436 1044 446 1046 q 415 1042 426 1042 l 336 1042 z "},"Ș":{"ha":904,"x_min":1,"x_max":899,"o":"m 379 -14 q 160 24 246 -14 q 38 126 75 63 q 13 260 1 189 q 23 280 14 271 q 44 289 32 289 l 196 289 q 222 281 214 289 q 238 263 231 274 q 259 217 242 239 q 310 180 276 194 q 394 165 343 165 q 539 194 486 165 q 603 274 592 224 q 592 332 611 310 q 523 372 572 354 q 393 411 474 390 q 229 473 293 433 q 141 572 165 513 q 135 715 117 632 q 268 913 161 840 q 546 986 375 986 q 702 961 635 986 q 815 896 769 936 q 879 810 860 856 q 892 721 899 764 q 881 701 890 710 q 860 692 872 692 l 701 692 q 678 697 688 692 q 663 717 668 703 q 627 780 663 753 q 532 807 592 807 q 417 782 464 807 q 357 706 369 757 q 366 649 350 672 q 426 609 382 626 q 546 571 469 592 q 731 507 663 546 q 823 410 799 468 q 829 268 847 351 q 685 58 800 129 q 379 -14 569 -14 m 196 -321 q 177 -311 183 -321 q 176 -289 171 -301 l 240 -115 q 261 -83 247 -97 q 297 -69 275 -69 l 436 -69 q 451 -77 446 -69 q 456 -93 457 -85 q 449 -112 454 -103 l 346 -283 q 324 -309 338 -297 q 290 -321 311 -321 l 196 -321 z "},"ẞ":{"ha":949,"x_min":3,"x_max":938,"o":"m 33 0 q 10 10 18 0 q 6 35 3 21 l 132 633 q 290 897 169 808 q 599 986 410 986 q 772 958 696 986 q 893 885 849 929 q 938 792 938 840 q 919 731 938 756 q 875 683 901 707 l 590 436 l 626 526 q 815 476 749 526 q 882 333 882 426 q 827 164 882 239 q 678 44 772 89 q 467 0 583 0 l 315 0 q 290 9 300 0 q 283 35 281 18 l 306 132 q 322 157 310 147 q 353 167 335 167 l 451 167 q 599 206 546 167 q 651 314 651 246 q 615 386 651 361 q 503 411 579 411 l 444 411 q 419 421 426 411 q 415 446 411 431 l 433 525 q 444 549 438 540 q 467 575 450 558 l 647 729 q 665 747 657 738 q 672 765 672 756 q 638 802 672 786 q 553 818 604 818 q 424 776 474 818 q 351 636 374 735 l 224 35 q 208 10 221 21 q 182 0 196 0 l 33 0 z "},"T":{"ha":853,"x_min":110,"x_max":939,"o":"m 261 0 q 239 10 247 0 q 233 35 231 19 l 393 779 l 140 779 q 118 789 126 779 q 113 813 110 799 l 139 938 q 153 963 142 953 q 181 972 165 972 l 908 972 q 931 963 924 972 q 936 938 939 953 l 908 813 q 894 789 906 799 q 868 779 883 779 l 617 779 l 457 35 q 442 10 454 19 q 415 0 431 0 l 261 0 z "},"Ŧ":{"ha":865,"x_min":115,"x_max":944,"o":"m 268 0 q 245 10 253 0 q 240 35 238 19 l 322 421 l 178 421 q 156 431 164 421 q 151 454 149 440 l 164 515 q 179 540 167 531 q 206 550 192 550 l 350 550 l 399 779 l 147 779 q 124 789 132 779 q 118 813 115 799 l 146 938 q 160 963 149 953 q 186 972 172 972 l 914 972 q 937 963 929 972 q 942 938 944 953 l 915 813 q 901 789 913 799 q 874 779 889 779 l 622 779 l 574 550 l 717 550 q 740 540 732 550 q 744 515 747 531 l 731 454 q 716 431 728 440 q 689 421 704 421 l 546 421 l 463 35 q 449 10 460 19 q 422 0 438 0 l 268 0 z "},"Ť":{"ha":853,"x_min":110,"x_max":939,"o":"m 261 0 q 239 10 247 0 q 233 35 231 19 l 393 779 l 140 779 q 118 789 126 779 q 113 813 110 799 l 139 938 q 153 963 142 953 q 181 972 165 972 l 908 972 q 931 963 924 972 q 936 938 939 953 l 908 813 q 894 789 906 799 q 868 779 883 779 l 617 779 l 457 35 q 442 10 454 19 q 415 0 431 0 l 261 0 m 514 1042 q 492 1047 501 1042 q 471 1065 482 1051 l 360 1213 q 356 1232 353 1221 q 379 1251 360 1251 l 438 1251 q 458 1249 449 1251 q 476 1242 468 1247 l 581 1171 l 714 1242 q 735 1249 725 1247 q 756 1251 744 1251 l 835 1251 q 851 1232 854 1251 q 840 1213 850 1222 l 665 1065 q 638 1047 649 1051 q 613 1042 626 1042 l 514 1042 z "},"Ț":{"ha":853,"x_min":110,"x_max":939,"o":"m 261 0 q 239 10 247 0 q 233 35 231 19 l 393 779 l 140 779 q 118 789 126 779 q 113 813 110 799 l 139 938 q 153 963 142 953 q 181 972 165 972 l 908 972 q 931 963 924 972 q 936 938 939 953 l 908 813 q 894 789 906 799 q 868 779 883 779 l 617 779 l 457 35 q 442 10 454 19 q 415 0 431 0 l 261 0 m 163 -321 q 144 -311 150 -321 q 143 -289 138 -301 l 207 -115 q 228 -83 214 -97 q 264 -69 242 -69 l 403 -69 q 418 -77 413 -69 q 422 -93 424 -85 q 415 -112 421 -103 l 313 -283 q 291 -309 304 -297 q 257 -321 278 -321 l 163 -321 z "},"U":{"ha":999,"x_min":64,"x_max":1018,"o":"m 426 -14 q 265 9 338 -14 q 145 79 193 32 q 81 199 97 126 q 85 371 64 271 l 206 938 q 220 963 208 953 q 247 972 232 972 l 399 972 q 422 963 414 972 q 426 938 429 953 l 306 372 q 315 219 283 269 q 442 169 347 169 q 594 219 535 169 q 674 372 653 269 l 794 938 q 810 963 797 953 q 836 972 822 972 l 989 972 q 1010 963 1003 972 q 1015 938 1018 953 l 896 371 q 740 79 853 172 q 426 -14 626 -14 z "},"Ú":{"ha":999,"x_min":64,"x_max":1018,"o":"m 426 -14 q 265 9 338 -14 q 145 79 193 32 q 81 199 97 126 q 85 371 64 271 l 206 938 q 220 963 208 953 q 247 972 232 972 l 399 972 q 422 963 414 972 q 426 938 429 953 l 306 372 q 315 219 283 269 q 442 169 347 169 q 594 219 535 169 q 674 372 653 269 l 794 938 q 810 963 797 953 q 836 972 822 972 l 989 972 q 1010 963 1003 972 q 1015 938 1018 953 l 896 371 q 740 79 853 172 q 426 -14 626 -14 m 544 1042 q 525 1061 522 1042 q 536 1081 526 1072 l 686 1225 q 714 1247 703 1242 q 743 1251 725 1251 l 913 1251 q 931 1244 925 1251 q 935 1226 936 1236 q 922 1207 933 1214 l 714 1061 q 688 1047 700 1051 q 658 1042 676 1042 l 544 1042 z "},"Ŭ":{"ha":999,"x_min":64,"x_max":1018,"o":"m 426 -14 q 265 9 338 -14 q 145 79 193 32 q 81 199 97 126 q 85 371 64 271 l 206 938 q 220 963 208 953 q 247 972 232 972 l 399 972 q 422 963 414 972 q 426 938 429 953 l 306 372 q 315 219 283 269 q 442 169 347 169 q 594 219 535 169 q 674 372 653 269 l 794 938 q 810 963 797 953 q 836 972 822 972 l 989 972 q 1010 963 1003 972 q 1015 938 1018 953 l 896 371 q 740 79 853 172 q 426 -14 626 -14 m 626 1032 q 517 1058 560 1032 q 457 1126 474 1083 q 451 1221 440 1169 q 463 1240 454 1232 q 483 1247 471 1247 l 564 1247 q 582 1240 576 1247 q 585 1221 588 1232 q 588 1163 579 1189 q 636 1138 596 1138 q 697 1163 676 1138 q 726 1221 718 1189 q 738 1240 729 1232 q 758 1247 746 1247 l 839 1247 q 857 1240 851 1247 q 860 1221 863 1232 q 823 1126 849 1169 q 750 1058 797 1083 q 626 1032 703 1032 z "},"Û":{"ha":999,"x_min":64,"x_max":1018,"o":"m 426 -14 q 265 9 338 -14 q 145 79 193 32 q 81 199 97 126 q 85 371 64 271 l 206 938 q 220 963 208 953 q 247 972 232 972 l 399 972 q 422 963 414 972 q 426 938 429 953 l 306 372 q 315 219 283 269 q 442 169 347 169 q 594 219 535 169 q 674 372 653 269 l 794 938 q 810 963 797 953 q 836 972 822 972 l 989 972 q 1010 963 1003 972 q 1015 938 1018 953 l 896 371 q 740 79 853 172 q 426 -14 626 -14 m 382 1042 q 365 1060 363 1042 q 376 1079 367 1071 l 551 1228 q 580 1247 568 1243 q 604 1251 592 1251 l 703 1251 q 726 1247 717 1251 q 746 1228 736 1243 l 857 1081 q 861 1061 864 1072 q 838 1042 858 1042 l 779 1042 q 758 1044 768 1042 q 740 1051 749 1046 l 636 1122 l 503 1051 q 482 1044 492 1046 q 461 1042 472 1042 l 382 1042 z "},"Ü":{"ha":999,"x_min":64,"x_max":1018,"o":"m 426 -14 q 265 9 338 -14 q 145 79 193 32 q 81 199 97 126 q 85 371 64 271 l 206 938 q 220 963 208 953 q 247 972 232 972 l 399 972 q 422 963 414 972 q 426 938 429 953 l 306 372 q 315 219 283 269 q 442 169 347 169 q 594 219 535 169 q 674 372 653 269 l 794 938 q 810 963 797 953 q 836 972 822 972 l 989 972 q 1010 963 1003 972 q 1015 938 1018 953 l 896 371 q 740 79 853 172 q 426 -14 626 -14 m 721 1042 q 700 1050 707 1042 q 696 1074 693 1058 l 719 1188 q 733 1210 722 1201 q 758 1219 744 1219 l 872 1219 q 893 1210 886 1219 q 897 1188 900 1201 l 874 1074 q 860 1050 871 1058 q 835 1042 849 1042 l 721 1042 m 406 1042 q 385 1050 392 1042 q 381 1074 378 1058 l 404 1188 q 418 1210 407 1201 q 443 1219 429 1219 l 557 1219 q 578 1210 571 1219 q 582 1188 585 1201 l 558 1074 q 544 1050 556 1058 q 519 1042 533 1042 l 406 1042 z "},"Ù":{"ha":999,"x_min":64,"x_max":1018,"o":"m 426 -14 q 265 9 338 -14 q 145 79 193 32 q 81 199 97 126 q 85 371 64 271 l 206 938 q 220 963 208 953 q 247 972 232 972 l 399 972 q 422 963 414 972 q 426 938 429 953 l 306 372 q 315 219 283 269 q 442 169 347 169 q 594 219 535 169 q 674 372 653 269 l 794 938 q 810 963 797 953 q 836 972 822 972 l 989 972 q 1010 963 1003 972 q 1015 938 1018 953 l 896 371 q 740 79 853 172 q 426 -14 626 -14 m 578 1042 q 550 1047 560 1042 q 531 1061 540 1051 l 385 1206 q 381 1224 378 1213 q 413 1251 385 1251 l 576 1251 q 603 1247 594 1251 q 622 1225 611 1242 l 710 1082 q 713 1064 715 1074 q 686 1042 707 1042 l 578 1042 z "},"Ű":{"ha":999,"x_min":64,"x_max":1018,"o":"m 426 -14 q 265 9 338 -14 q 145 79 193 32 q 81 199 97 126 q 85 371 64 271 l 206 938 q 220 963 208 953 q 247 972 232 972 l 399 972 q 422 963 414 972 q 426 938 429 953 l 306 372 q 315 219 283 269 q 442 169 347 169 q 594 219 535 169 q 674 372 653 269 l 794 938 q 810 963 797 953 q 836 972 822 972 l 989 972 q 1010 963 1003 972 q 1015 938 1018 953 l 896 371 q 740 79 853 172 q 426 -14 626 -14 m 700 1042 q 681 1061 679 1042 q 685 1071 682 1065 q 690 1081 688 1076 l 786 1225 q 808 1245 796 1239 q 843 1251 821 1251 l 982 1251 q 1004 1228 1008 1251 q 993 1207 1003 1217 l 832 1061 q 783 1042 810 1042 l 700 1042 m 425 1042 q 407 1061 404 1042 q 410 1071 407 1065 q 417 1081 414 1076 l 511 1225 q 533 1245 521 1239 q 568 1251 546 1251 l 707 1251 q 729 1228 733 1251 q 718 1207 729 1217 l 557 1061 q 508 1042 535 1042 l 425 1042 z "},"Ū":{"ha":999,"x_min":64,"x_max":1018,"o":"m 426 -14 q 265 9 338 -14 q 145 79 193 32 q 81 199 97 126 q 85 371 64 271 l 206 938 q 220 963 208 953 q 247 972 232 972 l 399 972 q 422 963 414 972 q 426 938 429 953 l 306 372 q 315 219 283 269 q 442 169 347 169 q 594 219 535 169 q 674 372 653 269 l 794 938 q 810 963 797 953 q 836 972 822 972 l 989 972 q 1010 963 1003 972 q 1015 938 1018 953 l 896 371 q 740 79 853 172 q 426 -14 626 -14 m 417 1042 q 397 1051 403 1042 q 393 1074 390 1060 l 411 1163 q 425 1185 414 1176 q 450 1193 436 1193 l 853 1193 q 873 1185 867 1193 q 876 1163 879 1176 l 858 1074 q 846 1051 857 1060 q 821 1042 835 1042 l 417 1042 z "},"Ų":{"ha":999,"x_min":61,"x_max":1018,"o":"m 465 -306 q 353 -276 399 -306 q 290 -196 308 -246 q 283 -83 271 -146 q 295 -40 288 -60 q 313 -3 303 -19 q 165 60 225 14 q 83 183 106 106 q 85 371 61 261 l 206 938 q 220 963 208 953 q 247 972 232 972 l 399 972 q 422 963 414 972 q 426 938 429 953 l 306 372 q 316 219 285 269 q 442 169 347 169 q 594 219 535 169 q 674 372 653 269 l 794 938 q 810 963 797 953 q 836 972 822 972 l 989 972 q 1010 963 1003 972 q 1015 938 1018 953 l 896 371 q 819 165 872 246 q 688 42 765 83 q 508 -10 610 0 q 446 -34 471 -12 q 414 -90 421 -56 q 424 -154 406 -128 q 479 -181 442 -181 l 499 -181 q 521 -190 514 -181 q 525 -214 528 -200 l 511 -275 q 498 -297 508 -289 q 472 -306 488 -306 l 465 -306 z "},"Ů":{"ha":999,"x_min":64,"x_max":1018,"o":"m 426 -14 q 265 9 338 -14 q 145 79 193 32 q 81 199 97 126 q 85 371 64 271 l 206 938 q 220 963 208 953 q 247 972 232 972 l 399 972 q 422 963 414 972 q 426 938 429 953 l 306 372 q 315 219 283 269 q 442 169 347 169 q 594 219 535 169 q 674 372 653 269 l 794 938 q 810 963 797 953 q 836 972 822 972 l 989 972 q 1010 963 1003 972 q 1015 938 1018 953 l 896 371 q 740 79 853 172 q 426 -14 626 -14 m 618 1028 q 535 1062 567 1028 q 515 1146 504 1096 q 570 1231 528 1197 q 664 1265 613 1265 q 747 1231 715 1265 q 767 1146 778 1197 q 713 1061 756 1094 q 618 1028 669 1028 m 629 1104 q 663 1116 649 1104 q 682 1146 678 1128 q 678 1176 686 1164 q 651 1188 669 1188 q 617 1176 632 1188 q 599 1146 603 1164 q 603 1116 594 1128 q 629 1104 613 1104 z "},"Ũ":{"ha":999,"x_min":64,"x_max":1018,"o":"m 426 -14 q 265 9 338 -14 q 145 79 193 32 q 81 199 97 126 q 85 371 64 271 l 206 938 q 220 963 208 953 q 247 972 232 972 l 399 972 q 422 963 414 972 q 426 938 429 953 l 306 372 q 315 219 283 269 q 442 169 347 169 q 594 219 535 169 q 674 372 653 269 l 794 938 q 810 963 797 953 q 836 972 822 972 l 989 972 q 1010 963 1003 972 q 1015 938 1018 953 l 896 371 q 740 79 853 172 q 426 -14 626 -14 m 715 1035 q 656 1047 679 1035 q 613 1072 632 1060 q 569 1083 593 1083 q 536 1074 547 1083 q 517 1053 525 1064 q 493 1042 508 1042 l 419 1042 q 404 1049 410 1042 q 400 1065 399 1057 q 417 1115 404 1088 q 450 1169 429 1143 q 501 1213 471 1196 q 571 1231 532 1231 q 633 1218 608 1231 q 676 1193 657 1206 q 718 1181 694 1181 q 751 1192 740 1181 q 771 1213 763 1203 q 794 1224 779 1224 l 868 1224 q 884 1216 879 1224 q 888 1199 889 1208 q 871 1150 883 1178 q 837 1096 858 1122 q 785 1052 815 1069 q 715 1035 756 1035 z "},"V":{"ha":950,"x_min":144,"x_max":1031,"o":"m 294 0 q 261 12 272 0 q 249 40 250 24 l 146 935 q 154 963 144 953 q 179 972 164 972 l 321 972 q 351 961 342 972 q 361 939 360 950 l 433 260 l 793 939 q 810 961 797 950 q 844 972 824 972 l 1004 972 q 1026 959 1021 972 q 1022 931 1031 946 l 543 40 q 519 12 535 24 q 481 0 504 0 l 294 0 z "},"W":{"ha":1133,"x_min":129,"x_max":1203,"o":"m 172 0 q 140 13 150 0 q 131 43 129 25 l 154 940 q 164 963 154 953 q 188 972 174 972 l 329 972 q 357 964 349 972 q 364 939 365 956 l 346 364 l 533 721 q 553 744 540 732 q 586 757 565 757 l 674 757 q 703 744 696 757 q 711 721 710 732 l 750 357 l 978 943 q 1025 972 989 972 l 1176 972 q 1198 961 1193 972 q 1197 938 1203 950 l 858 43 q 835 13 851 25 q 797 0 819 0 l 682 0 q 649 12 658 0 q 638 36 640 24 l 571 465 l 344 36 q 324 12 338 24 q 288 0 310 0 l 172 0 z "},"Ẃ":{"ha":1133,"x_min":129,"x_max":1203,"o":"m 172 0 q 140 13 150 0 q 131 43 129 25 l 154 940 q 164 963 154 953 q 188 972 174 972 l 329 972 q 357 964 349 972 q 364 939 365 956 l 346 364 l 533 721 q 553 744 540 732 q 586 757 565 757 l 674 757 q 703 744 696 757 q 711 721 710 732 l 750 357 l 978 943 q 1025 972 989 972 l 1176 972 q 1198 961 1193 972 q 1197 938 1203 950 l 858 43 q 835 13 851 25 q 797 0 819 0 l 682 0 q 649 12 658 0 q 638 36 640 24 l 571 465 l 344 36 q 324 12 338 24 q 288 0 310 0 l 172 0 m 610 1042 q 590 1061 588 1042 q 601 1081 592 1072 l 751 1225 q 779 1247 768 1242 q 808 1251 790 1251 l 978 1251 q 996 1244 990 1251 q 1000 1226 1001 1236 q 988 1207 999 1214 l 779 1061 q 753 1047 765 1051 q 724 1042 742 1042 l 610 1042 z "},"Ŵ":{"ha":1133,"x_min":129,"x_max":1203,"o":"m 172 0 q 140 13 150 0 q 131 43 129 25 l 154 940 q 164 963 154 953 q 188 972 174 972 l 329 972 q 357 964 349 972 q 364 939 365 956 l 346 364 l 533 721 q 553 744 540 732 q 586 757 565 757 l 674 757 q 703 744 696 757 q 711 721 710 732 l 750 357 l 978 943 q 1025 972 989 972 l 1176 972 q 1198 961 1193 972 q 1197 938 1203 950 l 858 43 q 835 13 851 25 q 797 0 819 0 l 682 0 q 649 12 658 0 q 638 36 640 24 l 571 465 l 344 36 q 324 12 338 24 q 288 0 310 0 l 172 0 m 446 1042 q 429 1060 426 1042 q 440 1079 431 1071 l 615 1228 q 644 1247 632 1243 q 668 1251 656 1251 l 767 1251 q 790 1247 781 1251 q 810 1228 800 1243 l 921 1081 q 925 1061 928 1072 q 901 1042 922 1042 l 843 1042 q 822 1044 832 1042 q 804 1051 813 1046 l 700 1122 l 567 1051 q 546 1044 556 1046 q 525 1042 536 1042 l 446 1042 z "},"Ẅ":{"ha":1133,"x_min":129,"x_max":1203,"o":"m 172 0 q 140 13 150 0 q 131 43 129 25 l 154 940 q 164 963 154 953 q 188 972 174 972 l 329 972 q 357 964 349 972 q 364 939 365 956 l 346 364 l 533 721 q 553 744 540 732 q 586 757 565 757 l 674 757 q 703 744 696 757 q 711 721 710 732 l 750 357 l 978 943 q 1025 972 989 972 l 1176 972 q 1198 961 1193 972 q 1197 938 1203 950 l 858 43 q 835 13 851 25 q 797 0 819 0 l 682 0 q 649 12 658 0 q 638 36 640 24 l 571 465 l 344 36 q 324 12 338 24 q 288 0 310 0 l 172 0 m 785 1042 q 764 1050 771 1042 q 760 1074 757 1058 l 783 1188 q 797 1210 786 1201 q 822 1219 808 1219 l 936 1219 q 957 1210 950 1219 q 961 1188 964 1201 l 938 1074 q 924 1050 935 1058 q 899 1042 913 1042 l 785 1042 m 469 1042 q 449 1050 456 1042 q 444 1074 442 1058 l 468 1188 q 482 1210 471 1201 q 507 1219 493 1219 l 621 1219 q 642 1210 635 1219 q 646 1188 649 1201 l 622 1074 q 608 1050 619 1058 q 583 1042 597 1042 l 469 1042 z "},"Ẁ":{"ha":1133,"x_min":129,"x_max":1203,"o":"m 172 0 q 140 13 150 0 q 131 43 129 25 l 154 940 q 164 963 154 953 q 188 972 174 972 l 329 972 q 357 964 349 972 q 364 939 365 956 l 346 364 l 533 721 q 553 744 540 732 q 586 757 565 757 l 674 757 q 703 744 696 757 q 711 721 710 732 l 750 357 l 978 943 q 1025 972 989 972 l 1176 972 q 1198 961 1193 972 q 1197 938 1203 950 l 858 43 q 835 13 851 25 q 797 0 819 0 l 682 0 q 649 12 658 0 q 638 36 640 24 l 571 465 l 344 36 q 324 12 338 24 q 288 0 310 0 l 172 0 m 642 1042 q 614 1047 624 1042 q 594 1061 604 1051 l 449 1206 q 444 1224 442 1213 q 476 1251 449 1251 l 640 1251 q 667 1247 658 1251 q 686 1225 675 1242 l 774 1082 q 776 1064 779 1074 q 750 1042 771 1042 l 642 1042 z "},"X":{"ha":939,"x_min":-65,"x_max":1025,"o":"m -35 0 q -58 16 -51 0 q -53 46 -65 32 l 365 501 l 151 928 q 153 958 143 943 q 181 972 163 972 l 332 972 q 366 962 357 972 q 378 944 375 951 l 519 661 l 772 944 q 791 962 779 951 q 828 972 803 972 l 994 972 q 1019 956 1013 972 q 1013 926 1025 940 l 615 471 l 831 43 q 828 15 838 29 q 800 0 819 0 l 650 0 q 617 10 626 0 q 604 26 607 21 l 461 307 l 201 26 q 185 10 197 21 q 147 0 172 0 l -35 0 z "},"Y":{"ha":931,"x_min":133,"x_max":1021,"o":"m 301 0 q 279 10 288 0 q 274 35 271 19 l 339 340 l 139 928 q 144 958 133 944 q 172 972 154 972 l 311 972 q 338 963 329 972 q 350 944 347 953 l 485 564 l 782 944 q 801 963 788 953 q 832 972 814 972 l 994 972 q 1018 957 1015 972 q 1010 928 1021 942 l 560 340 l 494 35 q 480 10 492 19 q 453 0 468 0 l 301 0 z "},"Ý":{"ha":931,"x_min":133,"x_max":1021,"o":"m 301 0 q 279 10 288 0 q 274 35 271 19 l 339 340 l 139 928 q 144 958 133 944 q 172 972 154 972 l 311 972 q 338 963 329 972 q 350 944 347 953 l 485 564 l 782 944 q 801 963 788 953 q 832 972 814 972 l 994 972 q 1018 957 1015 972 q 1010 928 1021 942 l 560 340 l 494 35 q 480 10 492 19 q 453 0 468 0 l 301 0 m 494 1042 q 475 1061 472 1042 q 486 1081 476 1072 l 636 1225 q 664 1247 653 1242 q 693 1251 675 1251 l 863 1251 q 881 1244 875 1251 q 885 1226 886 1236 q 872 1207 883 1214 l 664 1061 q 638 1047 650 1051 q 608 1042 626 1042 l 494 1042 z "},"Ŷ":{"ha":931,"x_min":133,"x_max":1021,"o":"m 301 0 q 279 10 288 0 q 274 35 271 19 l 339 340 l 139 928 q 144 958 133 944 q 172 972 154 972 l 311 972 q 338 963 329 972 q 350 944 347 953 l 485 564 l 782 944 q 801 963 788 953 q 832 972 814 972 l 994 972 q 1018 957 1015 972 q 1010 928 1021 942 l 560 340 l 494 35 q 480 10 492 19 q 453 0 468 0 l 301 0 m 332 1042 q 315 1060 313 1042 q 326 1079 317 1071 l 501 1228 q 530 1247 518 1243 q 554 1251 542 1251 l 653 1251 q 676 1247 667 1251 q 696 1228 686 1243 l 807 1081 q 811 1061 814 1072 q 788 1042 808 1042 l 729 1042 q 708 1044 718 1042 q 690 1051 699 1046 l 586 1122 l 453 1051 q 432 1044 442 1046 q 411 1042 422 1042 l 332 1042 z "},"Ÿ":{"ha":931,"x_min":133,"x_max":1021,"o":"m 301 0 q 279 10 288 0 q 274 35 271 19 l 339 340 l 139 928 q 144 958 133 944 q 172 972 154 972 l 311 972 q 338 963 329 972 q 350 944 347 953 l 485 564 l 782 944 q 801 963 788 953 q 832 972 814 972 l 994 972 q 1018 957 1015 972 q 1010 928 1021 942 l 560 340 l 494 35 q 480 10 492 19 q 453 0 468 0 l 301 0 m 671 1042 q 650 1050 657 1042 q 646 1074 643 1058 l 669 1188 q 683 1210 672 1201 q 708 1219 694 1219 l 822 1219 q 843 1210 836 1219 q 847 1188 850 1201 l 824 1074 q 810 1050 821 1058 q 785 1042 799 1042 l 671 1042 m 356 1042 q 335 1050 342 1042 q 331 1074 328 1058 l 354 1188 q 368 1210 357 1201 q 393 1219 379 1219 l 507 1219 q 528 1210 521 1219 q 532 1188 535 1201 l 508 1074 q 494 1050 506 1058 q 469 1042 483 1042 l 356 1042 z "},"Ỳ":{"ha":931,"x_min":133,"x_max":1021,"o":"m 301 0 q 279 10 288 0 q 274 35 271 19 l 339 340 l 139 928 q 144 958 133 944 q 172 972 154 972 l 311 972 q 338 963 329 972 q 350 944 347 953 l 485 564 l 782 944 q 801 963 788 953 q 832 972 814 972 l 994 972 q 1018 957 1015 972 q 1010 928 1021 942 l 560 340 l 494 35 q 480 10 492 19 q 453 0 468 0 l 301 0 m 528 1042 q 500 1047 510 1042 q 481 1061 490 1051 l 335 1206 q 331 1224 328 1213 q 363 1251 335 1251 l 526 1251 q 553 1247 544 1251 q 572 1225 561 1242 l 660 1082 q 663 1064 665 1074 q 636 1042 657 1042 l 528 1042 z "},"Z":{"ha":881,"x_min":-32,"x_max":931,"o":"m -1 0 q -24 10 -15 0 q -29 35 -32 21 l -3 151 q 12 183 1 171 q 28 201 22 196 l 607 788 l 179 788 q 158 797 165 788 q 153 821 150 807 l 176 938 q 191 963 179 953 q 218 972 203 972 l 900 972 q 923 963 915 972 q 928 938 931 953 l 903 822 q 892 796 900 807 q 875 775 883 785 l 306 186 l 749 186 q 772 176 764 186 q 776 151 779 167 l 751 35 q 738 10 749 19 q 711 0 726 0 l -1 0 z "},"Ź":{"ha":881,"x_min":-32,"x_max":931,"o":"m -1 0 q -24 10 -15 0 q -29 35 -32 21 l -3 151 q 12 183 1 171 q 28 201 22 196 l 607 788 l 179 788 q 158 797 165 788 q 153 821 150 807 l 176 938 q 191 963 179 953 q 218 972 203 972 l 900 972 q 923 963 915 972 q 928 938 931 953 l 903 822 q 892 796 900 807 q 875 775 883 785 l 306 186 l 749 186 q 772 176 764 186 q 776 151 779 167 l 751 35 q 738 10 749 19 q 711 0 726 0 l -1 0 m 501 1042 q 482 1061 479 1042 q 493 1081 483 1072 l 643 1225 q 671 1247 660 1242 q 700 1251 682 1251 l 869 1251 q 888 1244 882 1251 q 892 1226 893 1236 q 879 1207 890 1214 l 671 1061 q 645 1047 657 1051 q 615 1042 633 1042 l 501 1042 z "},"Ž":{"ha":881,"x_min":-32,"x_max":931,"o":"m -1 0 q -24 10 -15 0 q -29 35 -32 21 l -3 151 q 12 183 1 171 q 28 201 22 196 l 607 788 l 179 788 q 158 797 165 788 q 153 821 150 807 l 176 938 q 191 963 179 953 q 218 972 203 972 l 900 972 q 923 963 915 972 q 928 938 931 953 l 903 822 q 892 796 900 807 q 875 775 883 785 l 306 186 l 749 186 q 772 176 764 186 q 776 151 779 167 l 751 35 q 738 10 749 19 q 711 0 726 0 l -1 0 m 526 1042 q 504 1047 514 1042 q 483 1065 494 1051 l 372 1213 q 368 1232 365 1221 q 392 1251 372 1251 l 450 1251 q 471 1249 461 1251 q 489 1242 481 1247 l 593 1171 l 726 1242 q 747 1249 738 1247 q 768 1251 757 1251 l 847 1251 q 864 1232 867 1251 q 853 1213 863 1222 l 678 1065 q 650 1047 661 1051 q 625 1042 639 1042 l 526 1042 z "},"Ż":{"ha":881,"x_min":-32,"x_max":931,"o":"m -1 0 q -24 10 -15 0 q -29 35 -32 21 l -3 151 q 12 183 1 171 q 28 201 22 196 l 607 788 l 179 788 q 158 797 165 788 q 153 821 150 807 l 176 938 q 191 963 179 953 q 218 972 203 972 l 900 972 q 923 963 915 972 q 928 938 931 953 l 903 822 q 892 796 900 807 q 875 775 883 785 l 306 186 l 749 186 q 772 176 764 186 q 776 151 779 167 l 751 35 q 738 10 749 19 q 711 0 726 0 l -1 0 m 511 1042 q 490 1050 497 1042 q 486 1074 483 1058 l 514 1203 q 527 1226 517 1217 q 551 1235 538 1235 l 681 1235 q 701 1226 694 1235 q 706 1203 708 1217 l 679 1074 q 665 1050 676 1058 q 640 1042 654 1042 l 511 1042 z "},"a":{"ha":856,"x_min":26,"x_max":829,"o":"m 274 -14 q 153 9 204 -14 q 74 76 103 32 q 35 180 44 119 q 39 314 26 240 q 48 362 43 340 q 58 408 53 383 q 107 540 76 481 q 182 644 138 600 q 285 712 226 688 q 418 736 344 736 q 549 710 504 736 q 618 647 593 685 l 626 688 q 641 713 629 703 q 667 722 653 722 l 799 722 q 822 713 814 722 q 826 688 829 703 l 688 35 q 674 10 685 19 q 647 0 663 0 l 515 0 q 492 10 500 0 q 488 35 485 19 l 497 82 q 406 13 456 40 q 274 -14 356 -14 m 353 153 q 442 176 406 153 q 502 236 479 200 q 536 314 525 272 q 549 367 543 340 q 558 418 554 393 q 558 491 565 457 q 526 547 551 525 q 450 569 500 569 q 367 547 401 569 q 310 486 332 524 q 275 404 288 449 q 264 361 269 383 q 256 318 258 339 q 253 236 250 274 q 281 176 257 199 q 353 153 304 153 z "},"á":{"ha":856,"x_min":26,"x_max":829,"o":"m 274 -14 q 153 9 204 -14 q 74 76 103 32 q 35 180 44 119 q 39 314 26 240 q 48 362 43 340 q 58 408 53 383 q 107 540 76 481 q 182 644 138 600 q 285 712 226 688 q 418 736 344 736 q 549 710 504 736 q 618 647 593 685 l 626 688 q 641 713 629 703 q 667 722 653 722 l 799 722 q 822 713 814 722 q 826 688 829 703 l 688 35 q 674 10 685 19 q 647 0 663 0 l 515 0 q 492 10 500 0 q 488 35 485 19 l 497 82 q 406 13 456 40 q 274 -14 356 -14 m 353 153 q 442 176 406 153 q 502 236 479 200 q 536 314 525 272 q 549 367 543 340 q 558 418 554 393 q 558 491 565 457 q 526 547 551 525 q 450 569 500 569 q 367 547 401 569 q 310 486 332 524 q 275 404 288 449 q 264 361 269 383 q 256 318 258 339 q 253 236 250 274 q 281 176 257 199 q 353 153 304 153 m 431 826 q 413 849 408 826 q 424 867 415 860 l 572 1010 q 601 1031 590 1026 q 629 1036 611 1036 l 789 1036 q 810 1011 813 1036 q 799 992 810 999 l 590 846 q 565 831 576 836 q 535 826 553 826 l 431 826 z "},"ă":{"ha":856,"x_min":26,"x_max":829,"o":"m 274 -14 q 153 9 204 -14 q 74 76 103 32 q 35 180 44 119 q 39 314 26 240 q 48 362 43 340 q 58 408 53 383 q 107 540 76 481 q 182 644 138 600 q 285 712 226 688 q 418 736 344 736 q 549 710 504 736 q 618 647 593 685 l 626 688 q 641 713 629 703 q 667 722 653 722 l 799 722 q 822 713 814 722 q 826 688 829 703 l 688 35 q 674 10 685 19 q 647 0 663 0 l 515 0 q 492 10 500 0 q 488 35 485 19 l 497 82 q 406 13 456 40 q 274 -14 356 -14 m 353 153 q 442 176 406 153 q 502 236 479 200 q 536 314 525 272 q 549 367 543 340 q 558 418 554 393 q 558 491 565 457 q 526 547 551 525 q 450 569 500 569 q 367 547 401 569 q 310 486 332 524 q 275 404 288 449 q 264 361 269 383 q 256 318 258 339 q 253 236 250 274 q 281 176 257 199 q 353 153 304 153 m 515 819 q 411 846 453 819 q 353 915 369 872 q 347 1010 336 958 q 358 1028 350 1021 q 379 1036 367 1036 l 456 1036 q 474 1028 468 1036 q 476 1010 479 1021 q 478 951 471 978 q 525 925 486 925 q 585 951 565 925 q 611 1010 604 978 q 622 1028 614 1021 q 643 1036 631 1036 l 721 1036 q 739 1028 733 1036 q 742 1010 744 1021 q 706 915 731 958 q 634 846 681 872 q 515 819 588 819 z "},"â":{"ha":856,"x_min":26,"x_max":829,"o":"m 274 -14 q 153 9 204 -14 q 74 76 103 32 q 35 180 44 119 q 39 314 26 240 q 48 362 43 340 q 58 408 53 383 q 107 540 76 481 q 182 644 138 600 q 285 712 226 688 q 418 736 344 736 q 549 710 504 736 q 618 647 593 685 l 626 688 q 641 713 629 703 q 667 722 653 722 l 799 722 q 822 713 814 722 q 826 688 829 703 l 688 35 q 674 10 685 19 q 647 0 663 0 l 515 0 q 492 10 500 0 q 488 35 485 19 l 497 82 q 406 13 456 40 q 274 -14 356 -14 m 353 153 q 442 176 406 153 q 502 236 479 200 q 536 314 525 272 q 549 367 543 340 q 558 418 554 393 q 558 491 565 457 q 526 547 551 525 q 450 569 500 569 q 367 547 401 569 q 310 486 332 524 q 275 404 288 449 q 264 361 269 383 q 256 318 258 339 q 253 236 250 274 q 281 176 257 199 q 353 153 304 153 m 275 826 q 258 844 256 826 q 269 864 260 856 l 444 1013 q 473 1032 461 1028 q 497 1036 485 1036 l 589 1036 q 613 1032 603 1036 q 632 1013 622 1028 l 743 865 q 747 846 750 857 q 724 826 743 826 l 668 826 q 648 828 657 826 q 629 836 639 831 l 526 907 l 393 836 q 372 828 382 831 q 351 826 363 826 l 275 826 z "},"ä":{"ha":856,"x_min":26,"x_max":829,"o":"m 274 -14 q 153 9 204 -14 q 74 76 103 32 q 35 180 44 119 q 39 314 26 240 q 48 362 43 340 q 58 408 53 383 q 107 540 76 481 q 182 644 138 600 q 285 712 226 688 q 418 736 344 736 q 549 710 504 736 q 618 647 593 685 l 626 688 q 641 713 629 703 q 667 722 653 722 l 799 722 q 822 713 814 722 q 826 688 829 703 l 688 35 q 674 10 685 19 q 647 0 663 0 l 515 0 q 492 10 500 0 q 488 35 485 19 l 497 82 q 406 13 456 40 q 274 -14 356 -14 m 353 153 q 442 176 406 153 q 502 236 479 200 q 536 314 525 272 q 549 367 543 340 q 558 418 554 393 q 558 491 565 457 q 526 547 551 525 q 450 569 500 569 q 367 547 401 569 q 310 486 332 524 q 275 404 288 449 q 264 361 269 383 q 256 318 258 339 q 253 236 250 274 q 281 176 257 199 q 353 153 304 153 m 589 849 q 569 857 575 849 q 564 879 563 865 l 589 993 q 602 1016 592 1007 q 626 1025 613 1025 l 740 1025 q 761 1016 754 1025 q 765 993 768 1007 l 742 879 q 728 857 739 865 q 703 849 717 849 l 589 849 m 315 849 q 294 857 301 849 q 290 879 288 865 l 315 993 q 328 1016 318 1007 q 353 1025 339 1025 l 467 1025 q 488 1016 481 1025 q 492 993 494 1007 l 468 879 q 454 857 465 865 q 429 849 443 849 l 315 849 z "},"à":{"ha":856,"x_min":26,"x_max":829,"o":"m 274 -14 q 153 9 204 -14 q 74 76 103 32 q 35 180 44 119 q 39 314 26 240 q 48 362 43 340 q 58 408 53 383 q 107 540 76 481 q 182 644 138 600 q 285 712 226 688 q 418 736 344 736 q 549 710 504 736 q 618 647 593 685 l 626 688 q 641 713 629 703 q 667 722 653 722 l 799 722 q 822 713 814 722 q 826 688 829 703 l 688 35 q 674 10 685 19 q 647 0 663 0 l 515 0 q 492 10 500 0 q 488 35 485 19 l 497 82 q 406 13 456 40 q 274 -14 356 -14 m 353 153 q 442 176 406 153 q 502 236 479 200 q 536 314 525 272 q 549 367 543 340 q 558 418 554 393 q 558 491 565 457 q 526 547 551 525 q 450 569 500 569 q 367 547 401 569 q 310 486 332 524 q 275 404 288 449 q 264 361 269 383 q 256 318 258 339 q 253 236 250 274 q 281 176 257 199 q 353 153 304 153 m 471 826 q 443 831 453 826 q 424 846 433 836 l 278 990 q 274 1008 272 999 q 304 1036 278 1036 l 472 1036 q 499 1031 490 1036 q 518 1010 508 1026 l 606 868 q 608 849 611 860 q 582 826 604 826 l 471 826 z "},"ā":{"ha":856,"x_min":26,"x_max":829,"o":"m 274 -14 q 153 9 204 -14 q 74 76 103 32 q 35 180 44 119 q 39 314 26 240 q 48 362 43 340 q 58 408 53 383 q 107 540 76 481 q 182 644 138 600 q 285 712 226 688 q 418 736 344 736 q 549 710 504 736 q 618 647 593 685 l 626 688 q 641 713 629 703 q 667 722 653 722 l 799 722 q 822 713 814 722 q 826 688 829 703 l 688 35 q 674 10 685 19 q 647 0 663 0 l 515 0 q 492 10 500 0 q 488 35 485 19 l 497 82 q 406 13 456 40 q 274 -14 356 -14 m 353 153 q 442 176 406 153 q 502 236 479 200 q 536 314 525 272 q 549 367 543 340 q 558 418 554 393 q 558 491 565 457 q 526 547 551 525 q 450 569 500 569 q 367 547 401 569 q 310 486 332 524 q 275 404 288 449 q 264 361 269 383 q 256 318 258 339 q 253 236 250 274 q 281 176 257 199 q 353 153 304 153 m 324 844 q 303 853 310 844 q 299 876 296 863 l 317 960 q 330 982 319 974 q 354 990 340 990 l 722 990 q 742 982 736 990 q 746 960 749 974 l 729 876 q 716 853 726 863 q 692 844 706 844 l 324 844 z "},"ą":{"ha":856,"x_min":28,"x_max":829,"o":"m 579 -306 q 460 -262 500 -306 q 419 -153 419 -219 q 433 -78 419 -117 q 475 -3 447 -39 q 544 57 503 33 l 543 0 l 517 0 q 492 8 501 0 q 488 36 483 17 l 497 82 q 406 13 456 40 q 274 -14 356 -14 q 152 10 203 -14 q 72 77 101 33 q 35 181 43 121 q 39 314 28 242 q 48 362 43 340 q 58 408 53 383 q 107 540 76 481 q 182 644 138 600 q 285 712 226 688 q 418 736 344 736 q 549 710 504 736 q 618 647 593 685 l 626 688 q 641 713 629 703 q 667 722 653 722 l 799 722 q 822 713 814 722 q 826 688 829 703 l 688 32 q 676 9 686 19 q 654 -4 667 -1 l 647 -6 q 581 -47 608 -14 q 553 -124 553 -79 q 567 -165 553 -149 q 611 -181 582 -181 l 622 -181 q 644 -190 636 -181 q 649 -214 651 -200 l 636 -271 q 622 -296 633 -286 q 594 -306 610 -306 l 579 -306 m 353 153 q 442 176 406 153 q 502 236 479 200 q 536 314 525 272 q 549 367 543 340 q 558 418 554 393 q 562 472 564 444 q 548 520 560 499 q 513 556 536 542 q 450 569 489 569 q 367 547 401 569 q 310 486 332 524 q 275 404 288 449 q 264 361 269 383 q 256 318 258 339 q 253 258 253 288 q 262 204 253 228 q 292 167 271 181 q 353 153 314 153 z "},"å":{"ha":856,"x_min":26,"x_max":829,"o":"m 274 -14 q 153 9 204 -14 q 74 76 103 32 q 35 180 44 119 q 39 314 26 240 q 48 362 43 340 q 58 408 53 383 q 107 540 76 481 q 182 644 138 600 q 285 712 226 688 q 418 736 344 736 q 549 710 504 736 q 618 647 593 685 l 626 688 q 641 713 629 703 q 667 722 653 722 l 799 722 q 822 713 814 722 q 826 688 829 703 l 688 35 q 674 10 685 19 q 647 0 663 0 l 515 0 q 492 10 500 0 q 488 35 485 19 l 497 82 q 406 13 456 40 q 274 -14 356 -14 m 353 153 q 442 176 406 153 q 502 236 479 200 q 536 314 525 272 q 549 367 543 340 q 558 418 554 393 q 558 491 565 457 q 526 547 551 525 q 450 569 500 569 q 367 547 401 569 q 310 486 332 524 q 275 404 288 449 q 264 361 269 383 q 256 318 258 339 q 253 236 250 274 q 281 176 257 199 q 353 153 304 153 m 501 819 q 419 853 450 819 q 399 938 388 888 q 453 1023 411 989 q 547 1057 496 1057 q 630 1023 599 1057 q 650 938 661 989 q 596 853 639 886 q 501 819 553 819 m 513 896 q 547 908 532 896 q 565 938 561 919 q 561 967 569 956 q 535 979 553 979 q 501 967 515 979 q 482 938 486 956 q 487 908 478 919 q 513 896 496 896 z "},"ã":{"ha":856,"x_min":26,"x_max":829,"o":"m 274 -14 q 153 9 204 -14 q 74 76 103 32 q 35 180 44 119 q 39 314 26 240 q 48 362 43 340 q 58 408 53 383 q 107 540 76 481 q 182 644 138 600 q 285 712 226 688 q 418 736 344 736 q 549 710 504 736 q 618 647 593 685 l 626 688 q 641 713 629 703 q 667 722 653 722 l 799 722 q 822 713 814 722 q 826 688 829 703 l 688 35 q 674 10 685 19 q 647 0 663 0 l 515 0 q 492 10 500 0 q 488 35 485 19 l 497 82 q 406 13 456 40 q 274 -14 356 -14 m 353 153 q 442 176 406 153 q 502 236 479 200 q 536 314 525 272 q 549 367 543 340 q 558 418 554 393 q 558 491 565 457 q 526 547 551 525 q 450 569 500 569 q 367 547 401 569 q 310 486 332 524 q 275 404 288 449 q 264 361 269 383 q 256 318 258 339 q 253 236 250 274 q 281 176 257 199 q 353 153 304 153 m 600 819 q 541 832 564 819 q 500 856 518 844 q 458 868 482 868 q 429 858 440 868 q 408 838 418 849 q 383 826 399 826 l 310 826 q 294 834 300 826 q 290 850 289 842 q 307 899 294 872 q 340 952 319 926 q 390 994 360 978 q 460 1011 421 1011 q 521 999 499 1011 q 562 975 543 988 q 603 963 581 963 q 633 974 622 963 q 652 995 643 985 q 676 1006 661 1006 l 750 1006 q 767 998 763 1006 q 769 981 772 990 q 753 931 765 958 q 721 878 742 904 q 670 836 700 853 q 600 819 640 819 z "},"æ":{"ha":1263,"x_min":4,"x_max":1231,"o":"m 244 -14 q 104 15 160 -14 q 26 92 49 43 q 17 200 4 140 q 128 357 36 299 q 356 435 221 415 l 544 463 l 549 486 q 541 569 560 540 q 460 597 522 597 q 395 585 422 597 q 348 556 368 572 q 310 528 328 540 q 301 517 306 521 q 289 514 296 514 l 161 514 q 141 523 147 514 q 136 544 135 532 q 166 600 142 568 q 235 663 190 632 q 343 715 279 694 q 490 736 407 736 q 632 712 582 736 q 704 650 682 688 q 814 713 753 689 q 950 736 875 736 q 1083 715 1029 736 q 1169 656 1138 693 q 1216 572 1201 619 q 1230 472 1231 525 q 1219 368 1229 419 l 1213 336 q 1197 313 1210 322 q 1171 303 1185 303 l 724 303 l 722 292 q 722 197 711 233 q 760 145 733 161 q 818 129 786 129 q 885 143 851 129 q 946 186 918 157 q 969 203 961 200 q 994 207 978 207 l 1138 207 q 1157 199 1150 207 q 1161 178 1164 192 q 1128 125 1156 157 q 1054 61 1101 93 q 940 8 1007 29 q 790 -14 874 -14 q 638 18 697 -14 q 547 104 579 50 q 403 13 482 39 q 244 -14 325 -14 m 317 131 q 402 150 363 131 q 472 210 442 169 q 514 311 501 250 l 519 335 l 385 314 q 268 276 308 301 q 221 215 228 251 q 227 169 215 189 q 263 140 239 150 q 317 131 288 131 m 751 429 l 1017 429 l 1018 435 q 1019 521 1025 485 q 989 577 1013 557 q 919 597 965 597 q 850 580 885 597 q 789 526 815 563 q 753 435 763 490 l 751 429 z "},"ǽ":{"ha":1263,"x_min":4,"x_max":1231,"o":"m 244 -14 q 104 15 160 -14 q 26 92 49 43 q 17 200 4 140 q 128 357 36 299 q 356 435 221 415 l 544 463 l 549 486 q 541 569 560 540 q 460 597 522 597 q 395 585 422 597 q 348 556 368 572 q 310 528 328 540 q 301 517 306 521 q 289 514 296 514 l 161 514 q 141 523 147 514 q 136 544 135 532 q 166 600 142 568 q 235 663 190 632 q 343 715 279 694 q 490 736 407 736 q 632 712 582 736 q 704 650 682 688 q 814 713 753 689 q 950 736 875 736 q 1083 715 1029 736 q 1169 656 1138 693 q 1216 572 1201 619 q 1230 472 1231 525 q 1219 368 1229 419 l 1213 336 q 1197 313 1210 322 q 1171 303 1185 303 l 724 303 l 722 292 q 722 197 711 233 q 760 145 733 161 q 818 129 786 129 q 885 143 851 129 q 946 186 918 157 q 969 203 961 200 q 994 207 978 207 l 1138 207 q 1157 199 1150 207 q 1161 178 1164 192 q 1128 125 1156 157 q 1054 61 1101 93 q 940 8 1007 29 q 790 -14 874 -14 q 638 18 697 -14 q 547 104 579 50 q 403 13 482 39 q 244 -14 325 -14 m 317 131 q 402 150 363 131 q 472 210 442 169 q 514 311 501 250 l 519 335 l 385 314 q 268 276 308 301 q 221 215 228 251 q 227 169 215 189 q 263 140 239 150 q 317 131 288 131 m 751 429 l 1017 429 l 1018 435 q 1019 521 1025 485 q 989 577 1013 557 q 919 597 965 597 q 850 580 885 597 q 789 526 815 563 q 753 435 763 490 l 751 429 m 664 826 q 646 849 642 826 q 657 867 649 860 l 806 1010 q 834 1031 824 1026 q 863 1036 844 1036 l 1022 1036 q 1043 1011 1046 1036 q 1032 992 1043 999 l 824 846 q 798 831 810 836 q 768 826 786 826 l 664 826 z "},"b":{"ha":863,"x_min":6,"x_max":815,"o":"m 426 -14 q 295 13 347 -14 q 219 82 243 40 l 208 35 q 194 10 206 19 q 168 0 182 0 l 35 0 q 13 10 21 0 q 8 35 6 19 l 203 951 q 217 976 206 967 q 244 986 229 986 l 388 986 q 409 976 401 986 q 414 951 417 967 l 350 649 q 442 712 392 688 q 563 736 492 736 q 685 713 635 736 q 766 646 736 689 q 806 543 796 603 q 803 413 815 483 q 794 362 799 386 q 782 311 789 338 q 709 140 757 213 q 591 26 661 67 q 426 -14 521 -14 m 388 153 q 474 176 439 153 q 532 236 510 199 q 568 318 554 274 q 580 361 575 339 q 586 404 585 383 q 589 486 593 449 q 561 547 585 524 q 483 569 538 569 q 397 547 435 569 q 335 491 358 525 q 300 418 311 457 q 288 367 293 393 q 279 314 282 340 q 278 236 272 272 q 310 176 285 200 q 388 153 336 153 z "},"c":{"ha":804,"x_min":19,"x_max":776,"o":"m 328 -14 q 160 24 233 -14 q 53 133 88 61 q 36 304 19 204 q 47 360 40 326 q 60 417 54 394 q 202 652 97 568 q 465 736 307 736 q 617 710 556 736 q 714 644 678 683 q 763 562 750 604 q 772 488 776 519 q 760 463 771 472 q 735 453 749 453 l 583 453 q 562 460 569 453 q 551 482 554 467 q 524 553 550 531 q 450 575 499 575 q 341 535 388 575 q 274 410 294 494 q 261 358 267 383 q 253 311 256 332 q 263 186 239 225 q 350 147 288 147 q 436 168 399 147 q 500 238 474 189 q 517 260 508 253 q 542 267 526 267 l 692 267 q 715 256 707 267 q 718 232 722 246 q 684 161 710 203 q 612 79 658 119 q 495 13 565 39 q 328 -14 425 -14 z "},"ć":{"ha":804,"x_min":19,"x_max":797,"o":"m 328 -14 q 160 24 233 -14 q 53 133 88 61 q 36 304 19 204 q 47 360 40 326 q 60 417 54 394 q 202 652 97 568 q 465 736 307 736 q 617 710 556 736 q 714 644 678 683 q 763 562 750 604 q 772 488 776 519 q 760 463 771 472 q 735 453 749 453 l 583 453 q 562 460 569 453 q 551 482 554 467 q 524 553 550 531 q 450 575 499 575 q 341 535 388 575 q 274 410 294 494 q 261 358 267 383 q 253 311 256 332 q 263 186 239 225 q 350 147 288 147 q 436 168 399 147 q 500 238 474 189 q 517 260 508 253 q 542 267 526 267 l 692 267 q 715 256 707 267 q 718 232 722 246 q 684 161 710 203 q 612 79 658 119 q 495 13 565 39 q 328 -14 425 -14 m 415 826 q 397 849 393 826 q 408 867 400 860 l 557 1010 q 585 1031 575 1026 q 614 1036 596 1036 l 774 1036 q 794 1011 797 1036 q 783 992 794 999 l 575 846 q 549 831 561 836 q 519 826 538 826 l 415 826 z "},"č":{"ha":804,"x_min":19,"x_max":778,"o":"m 328 -14 q 160 24 233 -14 q 53 133 88 61 q 36 304 19 204 q 47 360 40 326 q 60 417 54 394 q 202 652 97 568 q 465 736 307 736 q 617 710 556 736 q 714 644 678 683 q 763 562 750 604 q 772 488 776 519 q 760 463 771 472 q 735 453 749 453 l 583 453 q 562 460 569 453 q 551 482 554 467 q 524 553 550 531 q 450 575 499 575 q 341 535 388 575 q 274 410 294 494 q 261 358 267 383 q 253 311 256 332 q 263 186 239 225 q 350 147 288 147 q 436 168 399 147 q 500 238 474 189 q 517 260 508 253 q 542 267 526 267 l 692 267 q 715 256 707 267 q 718 232 722 246 q 684 161 710 203 q 612 79 658 119 q 495 13 565 39 q 328 -14 425 -14 m 444 826 q 422 831 432 826 q 401 850 413 836 l 290 997 q 286 1014 283 1006 q 294 1031 288 1025 q 310 1036 301 1036 l 365 1036 q 385 1034 376 1036 q 404 1026 394 1032 l 507 956 l 640 1026 q 661 1034 651 1032 q 682 1036 671 1036 l 758 1036 q 775 1017 776 1036 q 763 997 774 1007 l 589 850 q 561 831 572 836 q 536 826 550 826 l 444 826 z "},"ç":{"ha":804,"x_min":21,"x_max":776,"o":"m 276 -306 q 207 -293 239 -306 q 163 -264 175 -281 q 168 -235 150 -247 l 196 -212 q 217 -207 210 -203 q 238 -219 225 -211 q 279 -228 251 -228 q 317 -215 300 -228 q 338 -183 333 -203 q 331 -153 342 -165 q 297 -140 319 -140 q 265 -145 281 -140 q 238 -151 250 -150 q 218 -143 225 -153 l 194 -111 q 192 -92 188 -103 q 206 -65 196 -81 l 244 -6 q 119 50 172 10 q 44 155 67 90 q 36 304 21 219 q 47 360 40 326 q 60 417 54 394 q 202 652 97 568 q 465 736 307 736 q 617 710 556 736 q 714 644 678 683 q 763 562 750 604 q 772 488 776 519 q 760 463 771 472 q 735 453 749 453 l 583 453 q 562 460 569 453 q 551 482 554 467 q 524 553 550 531 q 450 575 499 575 q 341 535 388 575 q 274 410 294 494 q 261 358 267 383 q 253 311 256 332 q 263 186 239 225 q 350 147 288 147 q 436 168 399 147 q 500 238 474 189 q 517 260 508 253 q 542 267 526 267 l 692 267 q 715 256 707 267 q 718 232 722 246 q 684 161 710 203 q 613 80 658 119 q 497 14 567 40 q 331 -14 428 -12 l 290 -71 q 315 -65 300 -67 q 339 -62 329 -62 q 409 -99 386 -62 q 421 -187 432 -135 q 374 -273 411 -240 q 276 -306 338 -306 z "},"ĉ":{"ha":804,"x_min":19,"x_max":776,"o":"m 328 -14 q 160 24 233 -14 q 53 133 88 61 q 36 304 19 204 q 47 360 40 326 q 60 417 54 394 q 202 652 97 568 q 465 736 307 736 q 617 710 556 736 q 714 644 678 683 q 763 562 750 604 q 772 488 776 519 q 760 463 771 472 q 735 453 749 453 l 583 453 q 562 460 569 453 q 551 482 554 467 q 524 553 550 531 q 450 575 499 575 q 341 535 388 575 q 274 410 294 494 q 261 358 267 383 q 253 311 256 332 q 263 186 239 225 q 350 147 288 147 q 436 168 399 147 q 500 238 474 189 q 517 260 508 253 q 542 267 526 267 l 692 267 q 715 256 707 267 q 718 232 722 246 q 684 161 710 203 q 612 79 658 119 q 495 13 565 39 q 328 -14 425 -14 m 260 826 q 243 844 240 826 q 254 864 244 856 l 429 1013 q 458 1032 446 1028 q 482 1036 469 1036 l 574 1036 q 597 1032 588 1036 q 617 1013 607 1028 l 728 865 q 732 846 735 857 q 708 826 728 826 l 653 826 q 633 828 642 826 q 614 836 624 831 l 511 907 l 378 836 q 357 828 367 831 q 336 826 347 826 l 260 826 z "},"ċ":{"ha":804,"x_min":19,"x_max":776,"o":"m 328 -14 q 160 24 233 -14 q 53 133 88 61 q 36 304 19 204 q 47 360 40 326 q 60 417 54 394 q 202 652 97 568 q 465 736 307 736 q 617 710 556 736 q 714 644 678 683 q 763 562 750 604 q 772 488 776 519 q 760 463 771 472 q 735 453 749 453 l 583 453 q 562 460 569 453 q 551 482 554 467 q 524 553 550 531 q 450 575 499 575 q 341 535 388 575 q 274 410 294 494 q 261 358 267 383 q 253 311 256 332 q 263 186 239 225 q 350 147 288 147 q 436 168 399 147 q 500 238 474 189 q 517 260 508 253 q 542 267 526 267 l 692 267 q 715 256 707 267 q 718 232 722 246 q 684 161 710 203 q 612 79 658 119 q 495 13 565 39 q 328 -14 425 -14 m 426 842 q 406 850 413 842 q 401 872 399 858 l 429 999 q 442 1022 432 1013 q 467 1031 453 1031 l 592 1031 q 613 1022 606 1031 q 618 999 621 1013 l 590 872 q 577 850 588 858 q 553 842 567 842 l 426 842 z "},"d":{"ha":863,"x_min":26,"x_max":892,"o":"m 276 -14 q 156 9 207 -14 q 74 76 104 32 q 35 180 44 119 q 38 314 26 240 q 47 362 43 340 q 58 408 51 383 q 107 540 76 481 q 182 644 138 600 q 285 712 226 688 q 414 736 343 736 q 539 712 489 736 q 614 649 589 688 l 678 951 q 692 976 681 967 q 718 986 704 986 l 861 986 q 884 976 876 986 q 889 951 892 967 l 694 35 q 680 10 692 19 q 653 0 668 0 l 521 0 q 498 10 506 0 q 493 35 490 19 l 503 82 q 410 13 461 40 q 276 -14 358 -14 m 356 153 q 446 176 408 153 q 508 236 483 200 q 542 314 532 272 q 554 367 549 340 q 564 418 560 393 q 564 491 572 457 q 529 547 556 525 q 453 569 503 569 q 368 547 404 569 q 310 486 332 524 q 274 404 288 449 q 263 361 268 383 q 256 318 258 339 q 254 236 250 274 q 283 176 258 199 q 356 153 307 153 z "},"ð":{"ha":826,"x_min":33,"x_max":856,"o":"m 339 -14 q 157 26 228 -14 q 60 141 86 65 q 56 319 33 217 q 138 499 78 425 q 285 613 197 574 q 481 653 374 653 q 534 646 511 653 q 575 626 557 639 q 560 691 569 661 q 535 747 550 721 l 374 690 q 356 686 361 686 q 338 693 344 686 q 335 713 332 700 l 342 746 q 353 772 344 763 q 381 786 363 781 l 483 822 q 441 869 464 846 q 393 915 418 893 q 380 931 383 924 q 378 943 376 938 q 391 964 381 956 q 414 972 401 972 l 561 972 q 597 967 583 972 q 618 954 610 961 q 649 924 635 939 q 676 892 664 908 l 814 940 q 832 944 825 944 q 849 938 843 944 q 853 918 856 931 l 846 885 q 835 860 843 868 q 807 844 826 851 l 729 817 q 790 630 776 739 q 774 363 803 521 q 769 339 772 351 q 764 315 767 326 q 681 140 739 214 q 537 26 624 65 q 339 -14 450 -14 m 371 139 q 453 160 418 139 q 512 217 489 181 q 544 299 535 254 q 550 319 549 310 q 554 339 551 328 q 556 421 563 385 q 523 478 549 457 q 449 500 497 500 q 365 478 400 500 q 308 421 329 457 q 276 339 286 385 q 270 319 272 328 q 267 299 268 310 q 265 217 258 254 q 298 160 272 181 q 371 139 324 139 z "},"ď":{"ha":983,"x_min":26,"x_max":1193,"o":"m 276 -14 q 156 9 207 -14 q 74 76 104 32 q 35 180 44 119 q 38 314 26 240 q 47 362 43 340 q 58 408 51 383 q 107 540 76 481 q 182 644 138 600 q 285 712 226 688 q 414 736 343 736 q 539 712 489 736 q 614 649 589 688 l 678 951 q 692 976 681 967 q 718 986 704 986 l 861 986 q 884 976 876 986 q 889 951 892 967 l 694 35 q 680 10 692 19 q 653 0 668 0 l 521 0 q 498 10 506 0 q 493 35 490 19 l 503 82 q 410 13 461 40 q 276 -14 358 -14 m 356 153 q 446 176 408 153 q 508 236 483 200 q 542 314 532 272 q 554 367 549 340 q 564 418 560 393 q 564 491 572 457 q 529 547 556 525 q 453 569 503 569 q 368 547 404 569 q 310 486 332 524 q 274 404 288 449 q 263 361 268 383 q 256 318 258 339 q 254 236 250 274 q 283 176 258 199 q 356 153 307 153 m 938 735 q 920 744 925 735 q 918 765 915 753 l 982 940 q 1003 972 989 958 q 1040 986 1018 986 l 1169 986 q 1187 978 1181 986 q 1190 960 1193 969 q 1188 951 1189 956 q 1182 943 1186 947 l 1081 772 q 1058 747 1071 758 q 1025 735 1046 735 l 938 735 z "},"đ":{"ha":864,"x_min":26,"x_max":968,"o":"m 264 -14 q 139 11 189 -14 q 63 81 89 36 q 32 185 38 125 q 39 314 26 246 q 48 362 43 340 q 58 408 53 383 q 106 534 75 475 q 182 639 136 593 q 288 710 228 685 q 424 736 349 736 q 542 712 496 736 q 614 649 589 688 l 642 776 l 581 776 q 558 786 565 776 q 554 811 551 796 l 564 857 q 578 881 567 871 q 604 890 590 890 l 665 890 l 679 951 q 693 976 682 967 q 719 986 704 986 l 863 986 q 885 976 876 986 q 890 951 893 967 l 876 890 l 938 890 q 960 881 951 890 q 965 857 968 871 l 956 811 q 940 786 953 796 q 914 776 928 776 l 853 776 l 694 35 q 680 10 692 19 q 654 0 668 0 l 521 0 q 499 10 507 0 q 493 35 490 19 l 506 88 q 403 15 464 43 q 264 -14 343 -14 m 363 153 q 451 176 415 153 q 510 236 488 200 q 543 314 532 272 q 556 367 550 340 q 565 418 561 393 q 564 491 572 457 q 528 547 556 525 q 451 569 501 569 q 365 547 400 569 q 308 486 329 524 q 274 404 286 449 q 263 361 268 383 q 256 318 258 339 q 253 236 249 274 q 285 176 258 199 q 363 153 311 153 z "},"e":{"ha":810,"x_min":40,"x_max":793,"o":"m 339 -14 q 163 26 233 -14 q 67 143 93 65 q 60 333 40 221 q 66 363 63 344 q 74 393 69 382 q 160 577 101 500 q 306 695 219 654 q 497 736 393 736 q 681 688 614 736 q 771 558 749 640 q 771 368 793 475 l 765 336 q 750 313 763 322 q 722 303 738 303 l 269 303 q 269 298 269 301 q 267 292 268 294 q 267 210 260 247 q 299 151 274 174 q 367 129 325 129 q 425 139 400 129 q 467 163 450 149 q 494 186 485 176 q 518 203 510 200 q 543 207 526 207 l 688 207 q 708 199 701 207 q 711 178 715 192 q 677 123 706 156 q 600 59 649 90 q 485 7 551 28 q 339 -14 419 -14 m 297 429 l 569 429 l 569 432 q 573 519 582 482 q 538 576 564 556 q 468 597 511 597 q 390 576 425 597 q 333 519 356 556 q 297 432 310 482 l 297 429 z "},"é":{"ha":810,"x_min":40,"x_max":818,"o":"m 339 -14 q 163 26 233 -14 q 67 143 93 65 q 60 333 40 221 q 66 363 63 344 q 74 393 69 382 q 160 577 101 500 q 306 695 219 654 q 497 736 393 736 q 681 688 614 736 q 771 558 749 640 q 771 368 793 475 l 765 336 q 750 313 763 322 q 722 303 738 303 l 269 303 q 269 298 269 301 q 267 292 268 294 q 267 210 260 247 q 299 151 274 174 q 367 129 325 129 q 425 139 400 129 q 467 163 450 149 q 494 186 485 176 q 518 203 510 200 q 543 207 526 207 l 688 207 q 708 199 701 207 q 711 178 715 192 q 677 123 706 156 q 600 59 649 90 q 485 7 551 28 q 339 -14 419 -14 m 297 429 l 569 429 l 569 432 q 573 519 582 482 q 538 576 564 556 q 468 597 511 597 q 390 576 425 597 q 333 519 356 556 q 297 432 310 482 l 297 429 m 436 826 q 418 849 414 826 q 429 867 421 860 l 578 1010 q 606 1031 596 1026 q 635 1036 617 1036 l 794 1036 q 815 1011 818 1036 q 804 992 815 999 l 596 846 q 570 831 582 836 q 540 826 558 826 l 436 826 z "},"ĕ":{"ha":810,"x_min":40,"x_max":793,"o":"m 339 -14 q 163 26 233 -14 q 67 143 93 65 q 60 333 40 221 q 66 363 63 344 q 74 393 69 382 q 160 577 101 500 q 306 695 219 654 q 497 736 393 736 q 681 688 614 736 q 771 558 749 640 q 771 368 793 475 l 765 336 q 750 313 763 322 q 722 303 738 303 l 269 303 q 269 298 269 301 q 267 292 268 294 q 267 210 260 247 q 299 151 274 174 q 367 129 325 129 q 425 139 400 129 q 467 163 450 149 q 494 186 485 176 q 518 203 510 200 q 543 207 526 207 l 688 207 q 708 199 701 207 q 711 178 715 192 q 677 123 706 156 q 600 59 649 90 q 485 7 551 28 q 339 -14 419 -14 m 297 429 l 569 429 l 569 432 q 573 519 582 482 q 538 576 564 556 q 468 597 511 597 q 390 576 425 597 q 333 519 356 556 q 297 432 310 482 l 297 429 m 521 819 q 417 846 458 819 q 358 915 375 872 q 353 1010 342 958 q 364 1028 356 1021 q 385 1036 372 1036 l 461 1036 q 479 1028 474 1036 q 482 1010 485 1021 q 484 951 476 978 q 531 925 492 925 q 590 951 571 925 q 617 1010 610 978 q 628 1028 619 1021 q 649 1036 636 1036 l 726 1036 q 744 1028 739 1036 q 747 1010 750 1021 q 711 915 736 958 q 640 846 686 872 q 521 819 593 819 z "},"ě":{"ha":810,"x_min":40,"x_max":797,"o":"m 339 -14 q 163 26 233 -14 q 67 143 93 65 q 60 333 40 221 q 66 363 63 344 q 74 393 69 382 q 160 577 101 500 q 306 695 219 654 q 497 736 393 736 q 681 688 614 736 q 771 558 749 640 q 771 368 793 475 l 765 336 q 750 313 763 322 q 722 303 738 303 l 269 303 q 269 298 269 301 q 267 292 268 294 q 267 210 260 247 q 299 151 274 174 q 367 129 325 129 q 425 139 400 129 q 467 163 450 149 q 494 186 485 176 q 518 203 510 200 q 543 207 526 207 l 688 207 q 708 199 701 207 q 711 178 715 192 q 677 123 706 156 q 600 59 649 90 q 485 7 551 28 q 339 -14 419 -14 m 297 429 l 569 429 l 569 432 q 573 519 582 482 q 538 576 564 556 q 468 597 511 597 q 390 576 425 597 q 333 519 356 556 q 297 432 310 482 l 297 429 m 465 826 q 443 831 453 826 q 422 850 433 836 l 311 997 q 307 1014 304 1006 q 315 1031 308 1025 q 331 1036 322 1036 l 386 1036 q 406 1034 397 1036 q 425 1026 415 1032 l 528 956 l 661 1026 q 682 1034 672 1032 q 703 1036 692 1036 l 779 1036 q 796 1017 797 1036 q 783 997 794 1007 l 610 850 q 582 831 593 836 q 557 826 571 826 l 465 826 z "},"ê":{"ha":810,"x_min":40,"x_max":793,"o":"m 339 -14 q 163 26 233 -14 q 67 143 93 65 q 60 333 40 221 q 66 363 63 344 q 74 393 69 382 q 160 577 101 500 q 306 695 219 654 q 497 736 393 736 q 681 688 614 736 q 771 558 749 640 q 771 368 793 475 l 765 336 q 750 313 763 322 q 722 303 738 303 l 269 303 q 269 298 269 301 q 267 292 268 294 q 267 210 260 247 q 299 151 274 174 q 367 129 325 129 q 425 139 400 129 q 467 163 450 149 q 494 186 485 176 q 518 203 510 200 q 543 207 526 207 l 688 207 q 708 199 701 207 q 711 178 715 192 q 677 123 706 156 q 600 59 649 90 q 485 7 551 28 q 339 -14 419 -14 m 297 429 l 569 429 l 569 432 q 573 519 582 482 q 538 576 564 556 q 468 597 511 597 q 390 576 425 597 q 333 519 356 556 q 297 432 310 482 l 297 429 m 281 826 q 264 844 261 826 q 275 864 265 856 l 450 1013 q 478 1032 467 1028 q 503 1036 490 1036 l 594 1036 q 618 1032 608 1036 q 638 1013 628 1028 l 749 865 q 753 846 756 857 q 729 826 749 826 l 674 826 q 653 828 663 826 q 635 836 644 831 l 532 907 l 399 836 q 378 828 388 831 q 357 826 368 826 l 281 826 z "},"ë":{"ha":810,"x_min":40,"x_max":793,"o":"m 339 -14 q 163 26 233 -14 q 67 143 93 65 q 60 333 40 221 q 66 363 63 344 q 74 393 69 382 q 160 577 101 500 q 306 695 219 654 q 497 736 393 736 q 681 688 614 736 q 771 558 749 640 q 771 368 793 475 l 765 336 q 750 313 763 322 q 722 303 738 303 l 269 303 q 269 298 269 301 q 267 292 268 294 q 267 210 260 247 q 299 151 274 174 q 367 129 325 129 q 425 139 400 129 q 467 163 450 149 q 494 186 485 176 q 518 203 510 200 q 543 207 526 207 l 688 207 q 708 199 701 207 q 711 178 715 192 q 677 123 706 156 q 600 59 649 90 q 485 7 551 28 q 339 -14 419 -14 m 297 429 l 569 429 l 569 432 q 573 519 582 482 q 538 576 564 556 q 468 597 511 597 q 390 576 425 597 q 333 519 356 556 q 297 432 310 482 l 297 429 m 594 849 q 574 857 581 849 q 569 879 568 865 l 594 993 q 608 1016 597 1007 q 632 1025 618 1025 l 746 1025 q 767 1016 760 1025 q 771 993 774 1007 l 747 879 q 733 857 744 865 q 708 849 722 849 l 594 849 m 321 849 q 300 857 307 849 q 296 879 293 865 l 321 993 q 334 1016 324 1007 q 358 1025 344 1025 l 472 1025 q 493 1016 486 1025 q 497 993 500 1007 l 474 879 q 460 857 471 865 q 435 849 449 849 l 321 849 z "},"ė":{"ha":810,"x_min":40,"x_max":793,"o":"m 339 -14 q 163 26 233 -14 q 67 143 93 65 q 60 333 40 221 q 66 363 63 344 q 74 393 69 382 q 160 577 101 500 q 306 695 219 654 q 497 736 393 736 q 681 688 614 736 q 771 558 749 640 q 771 368 793 475 l 765 336 q 750 313 763 322 q 722 303 738 303 l 269 303 q 269 298 269 301 q 267 292 268 294 q 267 210 260 247 q 299 151 274 174 q 367 129 325 129 q 425 139 400 129 q 467 163 450 149 q 494 186 485 176 q 518 203 510 200 q 543 207 526 207 l 688 207 q 708 199 701 207 q 711 178 715 192 q 677 123 706 156 q 600 59 649 90 q 485 7 551 28 q 339 -14 419 -14 m 297 429 l 569 429 l 569 432 q 573 519 582 482 q 538 576 564 556 q 468 597 511 597 q 390 576 425 597 q 333 519 356 556 q 297 432 310 482 l 297 429 m 447 842 q 426 850 433 842 q 422 872 419 858 l 450 999 q 463 1022 453 1013 q 488 1031 474 1031 l 613 1031 q 634 1022 626 1031 q 639 999 642 1013 l 611 872 q 598 850 608 858 q 574 842 588 842 l 447 842 z "},"è":{"ha":810,"x_min":40,"x_max":793,"o":"m 339 -14 q 163 26 233 -14 q 67 143 93 65 q 60 333 40 221 q 66 363 63 344 q 74 393 69 382 q 160 577 101 500 q 306 695 219 654 q 497 736 393 736 q 681 688 614 736 q 771 558 749 640 q 771 368 793 475 l 765 336 q 750 313 763 322 q 722 303 738 303 l 269 303 q 269 298 269 301 q 267 292 268 294 q 267 210 260 247 q 299 151 274 174 q 367 129 325 129 q 425 139 400 129 q 467 163 450 149 q 494 186 485 176 q 518 203 510 200 q 543 207 526 207 l 688 207 q 708 199 701 207 q 711 178 715 192 q 677 123 706 156 q 600 59 649 90 q 485 7 551 28 q 339 -14 419 -14 m 297 429 l 569 429 l 569 432 q 573 519 582 482 q 538 576 564 556 q 468 597 511 597 q 390 576 425 597 q 333 519 356 556 q 297 432 310 482 l 297 429 m 476 826 q 449 831 458 826 q 429 846 439 836 l 283 990 q 279 1008 278 999 q 310 1036 283 1036 l 478 1036 q 505 1031 496 1036 q 524 1010 514 1026 l 611 868 q 614 849 617 860 q 588 826 610 826 l 476 826 z "},"ē":{"ha":810,"x_min":40,"x_max":793,"o":"m 339 -14 q 163 26 233 -14 q 67 143 93 65 q 60 333 40 221 q 66 363 63 344 q 74 393 69 382 q 160 577 101 500 q 306 695 219 654 q 497 736 393 736 q 681 688 614 736 q 771 558 749 640 q 771 368 793 475 l 765 336 q 750 313 763 322 q 722 303 738 303 l 269 303 q 269 298 269 301 q 267 292 268 294 q 267 210 260 247 q 299 151 274 174 q 367 129 325 129 q 425 139 400 129 q 467 163 450 149 q 494 186 485 176 q 518 203 510 200 q 543 207 526 207 l 688 207 q 708 199 701 207 q 711 178 715 192 q 677 123 706 156 q 600 59 649 90 q 485 7 551 28 q 339 -14 419 -14 m 297 429 l 569 429 l 569 432 q 573 519 582 482 q 538 576 564 556 q 468 597 511 597 q 390 576 425 597 q 333 519 356 556 q 297 432 310 482 l 297 429 m 328 844 q 307 853 314 844 q 303 876 300 863 l 321 960 q 334 982 324 974 q 358 990 344 990 l 726 990 q 747 982 740 990 q 750 960 753 974 l 733 876 q 720 853 731 863 q 696 844 710 844 l 328 844 z "},"ę":{"ha":814,"x_min":38,"x_max":794,"o":"m 350 -306 q 238 -278 279 -306 q 184 -201 197 -250 q 185 -90 171 -153 q 199 -42 190 -65 q 221 1 207 -18 q 79 115 121 31 q 61 333 38 200 q 67 363 63 344 q 74 392 71 381 q 161 576 101 499 q 307 694 221 653 q 497 736 393 736 q 683 688 615 736 q 773 558 751 640 q 772 368 794 475 l 765 336 q 750 313 763 322 q 724 303 738 303 l 269 303 l 268 292 q 267 210 260 247 q 300 151 275 174 q 368 129 325 129 q 426 139 401 129 q 468 163 451 149 q 494 186 485 176 q 519 203 511 200 q 543 207 528 207 l 689 207 q 708 199 701 207 q 713 178 715 192 q 668 113 706 151 q 567 41 631 75 q 418 -7 504 7 q 348 -35 374 -15 q 314 -90 322 -56 q 322 -154 306 -128 q 382 -181 339 -181 l 400 -181 q 422 -190 414 -181 q 426 -214 429 -200 l 414 -271 q 399 -296 411 -286 q 372 -306 386 -306 l 350 -306 m 297 429 l 569 429 l 569 432 q 572 519 581 482 q 537 576 563 556 q 468 597 511 597 q 390 576 425 597 q 331 519 354 556 q 297 432 308 482 l 297 429 z "},"f":{"ha":590,"x_min":58,"x_max":715,"o":"m 113 0 q 90 10 99 0 q 85 35 82 19 l 197 558 l 88 558 q 66 568 74 558 q 61 593 58 578 l 81 688 q 96 713 83 703 q 122 722 108 722 l 232 722 l 243 772 q 306 918 263 861 q 414 1001 349 975 q 565 1028 479 1028 l 686 1028 q 708 1018 700 1028 q 713 993 715 1008 l 692 899 q 677 874 689 883 q 650 864 665 864 l 563 864 q 483 839 511 864 q 446 765 456 814 l 436 722 l 607 722 q 628 713 621 722 q 633 688 636 703 l 613 593 q 598 568 610 578 q 572 558 586 558 l 401 558 l 289 35 q 275 10 286 19 q 249 0 264 0 l 113 0 z "},"g":{"ha":865,"x_min":-36,"x_max":839,"o":"m 282 -306 q 119 -278 182 -306 q 22 -213 57 -251 q -24 -137 -12 -175 q -32 -79 -36 -100 q -19 -54 -29 -64 q 6 -44 -8 -44 l 158 -44 q 178 -51 171 -44 q 188 -72 185 -57 q 199 -108 190 -89 q 229 -139 207 -126 q 296 -151 251 -151 q 374 -137 338 -151 q 437 -90 410 -124 q 475 0 464 -57 l 494 93 q 405 33 454 57 q 282 10 356 10 q 156 33 207 10 q 75 98 104 56 q 38 200 46 140 q 42 335 29 260 q 48 372 44 356 q 57 408 51 388 q 107 540 76 481 q 181 644 138 600 q 281 712 224 688 q 414 736 339 736 q 542 707 490 736 q 619 635 594 678 l 631 688 q 646 712 633 701 q 672 722 658 722 l 808 722 q 831 712 824 722 q 836 688 839 701 l 694 19 q 647 -119 679 -58 q 565 -221 615 -179 q 445 -284 515 -262 q 282 -306 375 -306 m 360 172 q 447 195 410 172 q 509 253 485 218 q 544 328 533 289 q 554 372 549 343 q 563 415 560 400 q 561 490 568 454 q 528 547 554 525 q 453 569 503 569 q 367 547 403 569 q 308 486 331 524 q 272 404 285 449 q 265 372 268 389 q 258 339 261 354 q 256 256 251 293 q 284 195 260 218 q 360 172 308 172 z "},"ğ":{"ha":865,"x_min":-36,"x_max":839,"o":"m 282 -306 q 119 -278 182 -306 q 22 -213 57 -251 q -24 -137 -12 -175 q -32 -79 -36 -100 q -19 -54 -29 -64 q 6 -44 -8 -44 l 158 -44 q 178 -51 171 -44 q 188 -72 185 -57 q 199 -108 190 -89 q 229 -139 207 -126 q 296 -151 251 -151 q 374 -137 338 -151 q 437 -90 410 -124 q 475 0 464 -57 l 494 93 q 405 33 454 57 q 282 10 356 10 q 156 33 207 10 q 75 98 104 56 q 38 200 46 140 q 42 335 29 260 q 48 372 44 356 q 57 408 51 388 q 107 540 76 481 q 181 644 138 600 q 281 712 224 688 q 414 736 339 736 q 542 707 490 736 q 619 635 594 678 l 631 688 q 646 712 633 701 q 672 722 658 722 l 808 722 q 831 712 824 722 q 836 688 839 701 l 694 19 q 647 -119 679 -58 q 565 -221 615 -179 q 445 -284 515 -262 q 282 -306 375 -306 m 360 172 q 447 195 410 172 q 509 253 485 218 q 544 328 533 289 q 554 372 549 343 q 563 415 560 400 q 561 490 568 454 q 528 547 554 525 q 453 569 503 569 q 367 547 403 569 q 308 486 331 524 q 272 404 285 449 q 265 372 268 389 q 258 339 261 354 q 256 256 251 293 q 284 195 260 218 q 360 172 308 172 m 514 819 q 410 846 451 819 q 351 915 368 872 q 346 1010 335 958 q 357 1028 349 1021 q 378 1036 365 1036 l 454 1036 q 472 1028 467 1036 q 475 1010 478 1021 q 477 951 469 978 q 524 925 485 925 q 583 951 564 925 q 610 1010 603 978 q 621 1028 613 1021 q 642 1036 629 1036 l 719 1036 q 738 1028 732 1036 q 740 1010 743 1021 q 704 915 729 958 q 633 846 679 872 q 514 819 586 819 z "},"ĝ":{"ha":865,"x_min":-36,"x_max":839,"o":"m 282 -306 q 119 -278 182 -306 q 22 -213 57 -251 q -24 -137 -12 -175 q -32 -79 -36 -100 q -19 -54 -29 -64 q 6 -44 -8 -44 l 158 -44 q 178 -51 171 -44 q 188 -72 185 -57 q 199 -108 190 -89 q 229 -139 207 -126 q 296 -151 251 -151 q 374 -137 338 -151 q 437 -90 410 -124 q 475 0 464 -57 l 494 93 q 405 33 454 57 q 282 10 356 10 q 156 33 207 10 q 75 98 104 56 q 38 200 46 140 q 42 335 29 260 q 48 372 44 356 q 57 408 51 388 q 107 540 76 481 q 181 644 138 600 q 281 712 224 688 q 414 736 339 736 q 542 707 490 736 q 619 635 594 678 l 631 688 q 646 712 633 701 q 672 722 658 722 l 808 722 q 831 712 824 722 q 836 688 839 701 l 694 19 q 647 -119 679 -58 q 565 -221 615 -179 q 445 -284 515 -262 q 282 -306 375 -306 m 360 172 q 447 195 410 172 q 509 253 485 218 q 544 328 533 289 q 554 372 549 343 q 563 415 560 400 q 561 490 568 454 q 528 547 554 525 q 453 569 503 569 q 367 547 403 569 q 308 486 331 524 q 272 404 285 449 q 265 372 268 389 q 258 339 261 354 q 256 256 251 293 q 284 195 260 218 q 360 172 308 172 m 274 826 q 257 844 254 826 q 268 864 258 856 l 443 1013 q 472 1032 460 1028 q 496 1036 483 1036 l 588 1036 q 611 1032 601 1036 q 631 1013 621 1028 l 742 865 q 746 846 749 857 q 722 826 742 826 l 667 826 q 647 828 656 826 q 628 836 638 831 l 525 907 l 392 836 q 371 828 381 831 q 350 826 361 826 l 274 826 z "},"ģ":{"ha":865,"x_min":-36,"x_max":839,"o":"m 282 -306 q 119 -278 182 -306 q 22 -213 57 -251 q -24 -137 -12 -175 q -32 -79 -36 -100 q -19 -54 -29 -64 q 6 -44 -8 -44 l 158 -44 q 178 -51 171 -44 q 188 -72 185 -57 q 199 -108 190 -89 q 229 -139 207 -126 q 296 -151 251 -151 q 374 -137 338 -151 q 437 -90 410 -124 q 475 0 464 -57 l 494 93 q 405 33 454 57 q 282 10 356 10 q 156 33 207 10 q 75 98 104 56 q 38 200 46 140 q 42 335 29 260 q 48 372 44 356 q 57 408 51 388 q 107 540 76 481 q 181 644 138 600 q 281 712 224 688 q 414 736 339 736 q 542 707 490 736 q 619 635 594 678 l 631 688 q 646 712 633 701 q 672 722 658 722 l 808 722 q 831 712 824 722 q 836 688 839 701 l 694 19 q 647 -119 679 -58 q 565 -221 615 -179 q 445 -284 515 -262 q 282 -306 375 -306 m 360 172 q 447 195 410 172 q 509 253 485 218 q 544 328 533 289 q 554 372 549 343 q 563 415 560 400 q 561 490 568 454 q 528 547 554 525 q 453 569 503 569 q 367 547 403 569 q 308 486 331 524 q 272 404 285 449 q 265 372 268 389 q 258 339 261 354 q 256 256 251 293 q 284 195 260 218 q 360 172 308 172 m 424 826 q 408 835 413 826 q 404 853 403 843 q 407 861 406 857 q 411 869 408 865 l 513 1040 q 535 1066 522 1054 q 569 1078 547 1078 l 656 1078 q 673 1069 668 1078 q 675 1047 678 1060 l 611 872 q 590 841 606 856 q 553 826 575 826 l 424 826 z "},"ġ":{"ha":865,"x_min":-36,"x_max":839,"o":"m 282 -306 q 119 -278 182 -306 q 22 -213 57 -251 q -24 -137 -12 -175 q -32 -79 -36 -100 q -19 -54 -29 -64 q 6 -44 -8 -44 l 158 -44 q 178 -51 171 -44 q 188 -72 185 -57 q 199 -108 190 -89 q 229 -139 207 -126 q 296 -151 251 -151 q 374 -137 338 -151 q 437 -90 410 -124 q 475 0 464 -57 l 494 93 q 405 33 454 57 q 282 10 356 10 q 156 33 207 10 q 75 98 104 56 q 38 200 46 140 q 42 335 29 260 q 48 372 44 356 q 57 408 51 388 q 107 540 76 481 q 181 644 138 600 q 281 712 224 688 q 414 736 339 736 q 542 707 490 736 q 619 635 594 678 l 631 688 q 646 712 633 701 q 672 722 658 722 l 808 722 q 831 712 824 722 q 836 688 839 701 l 694 19 q 647 -119 679 -58 q 565 -221 615 -179 q 445 -284 515 -262 q 282 -306 375 -306 m 360 172 q 447 195 410 172 q 509 253 485 218 q 544 328 533 289 q 554 372 549 343 q 563 415 560 400 q 561 490 568 454 q 528 547 554 525 q 453 569 503 569 q 367 547 403 569 q 308 486 331 524 q 272 404 285 449 q 265 372 268 389 q 258 339 261 354 q 256 256 251 293 q 284 195 260 218 q 360 172 308 172 m 440 842 q 419 850 426 842 q 415 872 413 858 l 443 999 q 456 1022 446 1013 q 481 1031 467 1031 l 606 1031 q 627 1022 619 1031 q 632 999 635 1013 l 604 872 q 591 850 601 858 q 567 842 581 842 l 440 842 z "},"h":{"ha":888,"x_min":4,"x_max":832,"o":"m 35 0 q 13 10 21 0 q 7 35 4 19 l 203 951 q 217 976 206 967 q 243 986 229 986 l 393 986 q 416 976 408 986 q 421 951 424 967 l 354 639 q 452 710 397 683 q 582 736 507 736 q 729 699 671 736 q 810 592 788 663 q 811 422 832 522 l 728 35 q 713 10 725 19 q 688 0 701 0 l 536 0 q 513 10 521 0 q 508 35 506 19 l 589 414 q 581 528 604 488 q 490 569 558 569 q 409 551 447 569 q 344 499 371 533 q 306 414 317 464 l 225 35 q 211 10 222 19 q 185 0 200 0 l 35 0 z "},"ħ":{"ha":888,"x_min":4,"x_max":832,"o":"m 106 769 q 84 779 92 769 q 79 804 76 789 l 89 850 q 103 874 92 864 q 129 883 115 883 l 463 883 q 485 874 478 883 q 490 850 493 864 l 481 804 q 465 779 476 789 q 439 769 453 769 l 106 769 m 35 0 q 13 10 21 0 q 7 35 4 19 l 203 951 q 217 976 206 967 q 243 986 229 986 l 393 986 q 416 976 408 986 q 421 951 424 967 l 354 639 q 452 710 397 683 q 582 736 507 736 q 729 699 671 736 q 810 592 788 663 q 811 422 832 522 l 728 35 q 713 10 725 19 q 688 0 701 0 l 536 0 q 513 10 521 0 q 508 35 506 19 l 589 414 q 581 528 604 488 q 490 569 558 569 q 409 551 447 569 q 344 499 371 533 q 306 414 317 464 l 225 35 q 211 10 222 19 q 185 0 200 0 l 35 0 z "},"ĥ":{"ha":888,"x_min":4,"x_max":832,"o":"m 35 0 q 13 10 21 0 q 7 35 4 19 l 203 951 q 217 976 206 967 q 243 986 229 986 l 393 986 q 416 976 408 986 q 421 951 424 967 l 354 639 q 452 710 397 683 q 582 736 507 736 q 729 699 671 736 q 810 592 788 663 q 811 422 832 522 l 728 35 q 713 10 725 19 q 688 0 701 0 l 536 0 q 513 10 521 0 q 508 35 506 19 l 589 414 q 581 528 604 488 q 490 569 558 569 q 409 551 447 569 q 344 499 371 533 q 306 414 317 464 l 225 35 q 211 10 222 19 q 185 0 200 0 l 35 0 m 310 1043 q 293 1061 290 1043 q 304 1081 294 1072 l 479 1229 q 508 1249 496 1244 q 532 1253 519 1253 l 624 1253 q 647 1249 638 1253 q 667 1229 657 1244 l 778 1082 q 782 1063 785 1074 q 758 1043 778 1043 l 703 1043 q 683 1045 692 1043 q 664 1053 674 1047 l 561 1124 l 428 1053 q 407 1045 417 1047 q 386 1043 397 1043 l 310 1043 z "},"i":{"ha":382,"x_min":4,"x_max":422,"o":"m 35 0 q 13 10 21 0 q 7 35 4 19 l 146 688 q 161 713 149 703 q 188 722 174 722 l 326 722 q 349 713 342 722 q 353 688 356 703 l 214 35 q 200 10 211 19 q 174 0 189 0 l 35 0 m 208 833 q 185 843 193 833 q 181 868 178 853 l 204 979 q 219 1005 207 994 q 246 1015 231 1015 l 392 1015 q 415 1005 407 1015 q 419 979 422 994 l 394 868 q 381 843 393 853 q 354 833 368 833 l 208 833 z "},"ı":{"ha":382,"x_min":4,"x_max":356,"o":"m 35 0 q 13 10 21 0 q 7 35 4 19 l 146 688 q 161 713 149 703 q 188 722 174 722 l 326 722 q 349 713 342 722 q 353 688 356 703 l 214 35 q 200 10 211 19 q 174 0 189 0 l 35 0 z "},"í":{"ha":382,"x_min":4,"x_max":588,"o":"m 35 0 q 13 10 21 0 q 7 35 4 19 l 146 688 q 161 713 149 703 q 188 722 174 722 l 326 722 q 349 713 342 722 q 353 688 356 703 l 214 35 q 200 10 211 19 q 174 0 189 0 l 35 0 m 206 826 q 188 849 183 826 q 199 867 190 860 l 347 1010 q 376 1031 365 1026 q 404 1036 386 1036 l 564 1036 q 585 1011 588 1036 q 574 992 585 999 l 365 846 q 340 831 351 836 q 310 826 328 826 l 206 826 z "},"ĭ":{"ha":382,"x_min":4,"x_max":519,"o":"m 35 0 q 13 10 21 0 q 7 35 4 19 l 146 688 q 161 713 149 703 q 188 722 174 722 l 326 722 q 349 713 342 722 q 353 688 356 703 l 214 35 q 200 10 211 19 q 174 0 189 0 l 35 0 m 290 819 q 186 846 228 819 q 128 915 144 872 q 122 1010 111 958 q 133 1028 125 1021 q 154 1036 142 1036 l 231 1036 q 249 1028 243 1036 q 251 1010 254 1021 q 253 951 246 978 q 300 925 261 925 q 360 951 340 925 q 386 1010 379 978 q 397 1028 389 1021 q 418 1036 406 1036 l 496 1036 q 514 1028 508 1036 q 517 1010 519 1021 q 481 915 506 958 q 409 846 456 872 q 290 819 363 819 z "},"î":{"ha":382,"x_min":4,"x_max":525,"o":"m 35 0 q 13 10 21 0 q 7 35 4 19 l 146 688 q 161 713 149 703 q 188 722 174 722 l 326 722 q 349 713 342 722 q 353 688 356 703 l 214 35 q 200 10 211 19 q 174 0 189 0 l 35 0 m 50 826 q 33 844 31 826 q 44 864 35 856 l 219 1013 q 248 1032 236 1028 q 272 1036 260 1036 l 364 1036 q 388 1032 378 1036 q 407 1013 397 1028 l 518 865 q 522 846 525 857 q 499 826 518 826 l 443 826 q 423 828 432 826 q 404 836 414 831 l 301 907 l 168 836 q 147 828 157 831 q 126 826 138 826 l 50 826 z "},"ï":{"ha":382,"x_min":4,"x_max":543,"o":"m 35 0 q 13 10 21 0 q 7 35 4 19 l 146 688 q 161 713 149 703 q 188 722 174 722 l 326 722 q 349 713 342 722 q 353 688 356 703 l 214 35 q 200 10 211 19 q 174 0 189 0 l 35 0 m 364 849 q 344 857 350 849 q 339 879 338 865 l 364 993 q 377 1016 367 1007 q 401 1025 388 1025 l 515 1025 q 536 1016 529 1025 q 540 993 543 1007 l 517 879 q 503 857 514 865 q 478 849 492 849 l 364 849 m 90 849 q 69 857 76 849 q 65 879 63 865 l 90 993 q 103 1016 93 1007 q 128 1025 114 1025 l 242 1025 q 263 1016 256 1025 q 267 993 269 1007 l 243 879 q 229 857 240 865 q 204 849 218 849 l 90 849 z "},"ì":{"ha":382,"x_min":4,"x_max":386,"o":"m 35 0 q 13 10 21 0 q 7 35 4 19 l 146 688 q 161 713 149 703 q 188 722 174 722 l 326 722 q 349 713 342 722 q 353 688 356 703 l 214 35 q 200 10 211 19 q 174 0 189 0 l 35 0 m 246 826 q 218 831 228 826 q 199 846 208 836 l 53 990 q 49 1008 47 999 q 79 1036 53 1036 l 247 1036 q 274 1031 265 1036 q 293 1010 283 1026 l 381 868 q 383 849 386 860 q 357 826 379 826 l 246 826 z "},"ĳ":{"ha":786,"x_min":4,"x_max":825,"o":"m 35 0 q 13 10 21 0 q 7 35 4 19 l 146 688 q 161 713 149 703 q 188 722 174 722 l 326 722 q 349 713 342 722 q 353 688 356 703 l 214 35 q 200 10 211 19 q 174 0 189 0 l 35 0 m 208 833 q 185 843 193 833 q 181 868 178 853 l 204 979 q 219 1005 207 994 q 246 1015 231 1015 l 392 1015 q 415 1005 407 1015 q 419 979 422 994 l 394 868 q 381 843 393 853 q 354 833 368 833 l 208 833 m 206 -264 q 184 -254 192 -264 q 179 -229 176 -244 l 200 -135 q 215 -110 203 -119 q 240 -100 226 -100 l 288 -100 q 363 -69 338 -100 q 399 10 389 -37 l 543 688 q 558 713 546 703 q 585 722 569 722 l 729 722 q 751 713 744 722 q 756 688 758 703 l 611 6 q 552 -140 593 -79 q 444 -232 511 -200 q 282 -264 378 -264 l 206 -264 m 604 833 q 583 843 590 833 q 576 868 575 853 l 601 979 q 616 1005 604 994 q 642 1015 628 1015 l 794 1015 q 817 1005 810 1015 q 822 979 825 994 l 799 868 q 783 843 796 853 q 757 833 771 833 l 604 833 z "},"ī":{"ha":382,"x_min":4,"x_max":524,"o":"m 35 0 q 13 10 21 0 q 7 35 4 19 l 146 688 q 161 713 149 703 q 188 722 174 722 l 326 722 q 349 713 342 722 q 353 688 356 703 l 214 35 q 200 10 211 19 q 174 0 189 0 l 35 0 m 99 844 q 78 853 85 844 q 74 876 71 863 l 92 960 q 105 982 94 974 q 129 990 115 990 l 497 990 q 517 982 511 990 q 521 960 524 974 l 504 876 q 491 853 501 863 q 467 844 481 844 l 99 844 z "},"į":{"ha":394,"x_min":-50,"x_max":456,"o":"m 129 -286 q -10 -229 29 -286 q -32 -83 -50 -172 q 3 -8 -22 -39 q 65 36 29 24 l 61 39 q 49 47 53 40 q 47 63 44 54 l 179 688 q 194 713 182 703 q 221 722 207 722 l 360 722 q 382 713 375 722 q 386 688 389 703 l 247 35 q 233 10 244 19 q 206 0 221 0 l 196 0 q 126 -24 153 0 q 92 -83 99 -47 q 101 -144 83 -121 q 161 -167 118 -167 l 178 -167 q 200 -177 192 -167 q 204 -201 208 -187 l 193 -251 q 178 -276 190 -267 q 151 -286 167 -286 l 129 -286 m 240 833 q 218 843 225 833 q 214 868 211 853 l 238 979 q 253 1005 240 994 q 279 1015 265 1015 l 425 1015 q 448 1005 440 1015 q 453 979 456 994 l 429 868 q 414 843 426 853 q 386 833 401 833 l 240 833 z "},"ĩ":{"ha":382,"x_min":4,"x_max":547,"o":"m 35 0 q 13 10 21 0 q 7 35 4 19 l 146 688 q 161 713 149 703 q 188 722 174 722 l 326 722 q 349 713 342 722 q 353 688 356 703 l 214 35 q 200 10 211 19 q 174 0 189 0 l 35 0 m 375 819 q 316 832 339 819 q 275 856 293 844 q 233 868 257 868 q 204 858 215 868 q 183 838 193 849 q 158 826 174 826 l 85 826 q 69 834 75 826 q 65 850 64 842 q 82 899 69 872 q 115 952 94 926 q 165 994 135 978 q 235 1011 196 1011 q 296 999 274 1011 q 337 975 318 988 q 378 963 356 963 q 408 974 397 963 q 427 995 418 985 q 451 1006 436 1006 l 525 1006 q 542 998 538 1006 q 544 981 547 990 q 528 931 540 958 q 496 878 517 904 q 445 836 475 853 q 375 819 415 819 z "},"j":{"ha":404,"x_min":-206,"x_max":443,"o":"m -176 -264 q -198 -254 -190 -264 q -203 -229 -206 -244 l -182 -135 q -167 -110 -179 -119 q -142 -100 -156 -100 l -94 -100 q -19 -69 -44 -100 q 17 10 7 -37 l 161 688 q 176 713 164 703 q 203 722 188 722 l 347 722 q 369 713 363 722 q 374 688 376 703 l 229 6 q 170 -140 211 -79 q 63 -232 129 -200 q -100 -264 -4 -264 l -176 -264 m 222 833 q 201 843 208 833 q 194 868 193 853 l 219 979 q 234 1005 222 994 q 260 1015 246 1015 l 413 1015 q 435 1005 428 1015 q 440 979 443 994 l 417 868 q 401 843 414 853 q 375 833 389 833 l 222 833 z "},"ȷ":{"ha":522,"x_min":-118,"x_max":496,"o":"m -90 -264 q -111 -254 -104 -264 q -115 -229 -118 -244 l -90 -110 q -76 -85 -87 -94 q -50 -75 -65 -75 l 24 -75 q 85 -60 63 -75 q 120 -21 107 -46 q 139 35 133 4 l 250 553 l 92 553 q 70 563 78 553 q 65 586 63 572 l 86 688 q 101 713 89 703 q 128 722 114 722 l 467 722 q 488 713 481 722 q 493 688 496 703 l 354 35 q 288 -122 335 -56 q 171 -226 242 -189 q 7 -264 100 -264 l -90 -264 z "},"ĵ":{"ha":522,"x_min":-118,"x_max":565,"o":"m -90 -264 q -111 -254 -104 -264 q -115 -229 -118 -244 l -90 -110 q -76 -85 -87 -94 q -50 -75 -65 -75 l 24 -75 q 85 -60 63 -75 q 120 -21 107 -46 q 139 35 133 4 l 250 553 l 92 553 q 70 563 78 553 q 65 586 63 572 l 86 688 q 101 713 89 703 q 128 722 114 722 l 467 722 q 488 713 481 722 q 493 688 496 703 l 354 35 q 288 -122 335 -56 q 171 -226 242 -189 q 7 -264 100 -264 l -90 -264 m 90 826 q 74 844 71 826 q 85 864 75 856 l 260 1013 q 288 1032 276 1028 q 313 1036 300 1036 l 404 1036 q 428 1032 418 1036 q 447 1013 438 1028 l 558 865 q 563 846 565 857 q 539 826 558 826 l 483 826 q 463 828 472 826 q 444 836 454 831 l 342 907 l 208 836 q 188 828 197 831 q 167 826 178 826 l 90 826 z "},"k":{"ha":792,"x_min":4,"x_max":813,"o":"m 35 0 q 13 10 21 0 q 7 35 4 19 l 203 951 q 217 976 206 967 q 243 986 229 986 l 379 986 q 402 976 394 986 q 407 951 410 967 l 308 486 l 561 699 q 585 715 574 708 q 615 722 596 722 l 785 722 q 810 703 807 722 q 792 668 813 685 l 465 386 l 692 50 q 694 17 703 33 q 663 0 685 0 l 510 0 q 481 7 490 0 q 467 22 472 14 l 271 313 l 211 35 q 197 10 208 19 q 171 0 186 0 l 35 0 z "},"ķ":{"ha":792,"x_min":4,"x_max":813,"o":"m 35 0 q 13 10 21 0 q 7 35 4 19 l 203 951 q 217 976 206 967 q 243 986 229 986 l 379 986 q 402 976 394 986 q 407 951 410 967 l 308 486 l 561 699 q 585 715 574 708 q 615 722 596 722 l 785 722 q 810 703 807 722 q 792 668 813 685 l 465 386 l 692 50 q 694 17 703 33 q 663 0 685 0 l 510 0 q 481 7 490 0 q 467 22 472 14 l 271 313 l 211 35 q 197 10 208 19 q 171 0 186 0 l 35 0 m 140 -321 q 124 -312 129 -321 q 122 -290 118 -303 l 185 -115 q 206 -83 192 -97 q 243 -69 221 -69 l 374 -69 q 390 -78 385 -69 q 393 -96 396 -86 q 390 -104 392 -100 q 385 -112 389 -108 l 283 -283 q 262 -309 275 -297 q 228 -321 249 -321 l 140 -321 z "},"ĸ":{"ha":788,"x_min":24,"x_max":826,"o":"m 53 0 q 31 10 39 0 q 26 35 24 19 l 165 688 q 181 713 168 703 q 207 722 193 722 l 343 722 q 365 713 358 722 q 369 688 372 703 l 318 443 l 597 699 q 622 715 611 708 q 653 722 633 722 l 800 722 q 820 713 814 722 q 824 692 826 704 q 818 679 822 686 q 806 668 814 672 l 475 365 l 707 53 q 714 43 711 49 q 714 31 717 38 q 701 9 713 18 q 676 0 690 0 l 515 0 q 486 8 494 0 q 469 24 478 15 l 282 276 l 231 35 q 216 10 228 19 q 189 0 204 0 l 53 0 z "},"l":{"ha":383,"x_min":4,"x_max":413,"o":"m 35 0 q 13 10 21 0 q 7 35 4 19 l 203 951 q 217 976 206 967 q 243 986 229 986 l 382 986 q 405 976 397 986 q 410 951 413 967 l 214 35 q 200 10 211 19 q 174 0 189 0 l 35 0 z "},"ĺ":{"ha":383,"x_min":4,"x_max":647,"o":"m 35 0 q 13 10 21 0 q 7 35 4 19 l 203 951 q 217 976 206 967 q 243 986 229 986 l 382 986 q 405 976 397 986 q 410 951 413 967 l 214 35 q 200 10 211 19 q 174 0 189 0 l 35 0 m 265 1042 q 247 1064 243 1042 q 258 1082 250 1075 l 407 1225 q 435 1247 425 1242 q 464 1251 446 1251 l 624 1251 q 644 1226 647 1251 q 633 1207 644 1214 l 425 1061 q 399 1047 411 1051 q 369 1042 388 1042 l 265 1042 z "},"ľ":{"ha":511,"x_min":4,"x_max":714,"o":"m 35 0 q 13 10 21 0 q 7 35 4 19 l 203 951 q 217 976 206 967 q 243 986 229 986 l 382 986 q 405 976 397 986 q 410 951 413 967 l 214 35 q 200 10 211 19 q 174 0 189 0 l 35 0 m 460 735 q 442 744 447 735 q 440 765 438 753 l 504 940 q 526 972 511 958 q 563 986 540 986 l 692 986 q 709 978 703 986 q 713 960 715 969 q 710 951 711 956 q 704 943 708 947 l 603 772 q 581 747 593 758 q 547 735 568 735 l 460 735 z "},"ļ":{"ha":383,"x_min":-93,"x_max":413,"o":"m 35 0 q 13 10 21 0 q 7 35 4 19 l 203 951 q 217 976 206 967 q 243 986 229 986 l 382 986 q 405 976 397 986 q 410 951 413 967 l 214 35 q 200 10 211 19 q 174 0 189 0 l 35 0 m -71 -321 q -87 -312 -82 -321 q -89 -290 -93 -303 l -26 -115 q -5 -83 -19 -97 q 32 -69 10 -69 l 163 -69 q 179 -78 174 -69 q 182 -96 185 -86 q 179 -104 181 -100 q 174 -112 178 -108 l 72 -283 q 51 -309 64 -297 q 17 -321 38 -321 l -71 -321 z "},"ŀ":{"ha":574,"x_min":4,"x_max":608,"o":"m 35 0 q 13 10 21 0 q 7 35 4 19 l 203 951 q 217 976 206 967 q 243 986 229 986 l 382 986 q 405 976 397 986 q 410 951 413 967 l 214 35 q 200 10 211 19 q 174 0 189 0 l 35 0 m 414 406 q 393 414 400 406 q 389 436 386 422 l 417 563 q 430 585 419 576 q 454 594 440 594 l 579 594 q 601 585 593 594 q 606 563 608 576 l 578 436 q 565 414 575 422 q 540 406 554 406 l 414 406 z "},"ł":{"ha":451,"x_min":44,"x_max":486,"o":"m 89 0 q 67 10 75 0 q 63 35 60 19 l 136 378 l 88 361 q 69 357 75 357 q 51 364 57 357 q 47 383 44 371 l 67 474 q 78 500 69 492 q 106 514 88 508 l 169 536 l 257 951 q 273 976 261 967 q 299 986 285 986 l 438 986 q 460 976 453 986 q 465 951 468 967 l 394 617 l 443 635 q 461 639 456 639 q 480 631 474 639 q 483 611 486 624 l 464 522 q 451 497 460 506 q 425 482 443 489 l 360 458 l 271 35 q 256 10 268 19 q 228 0 243 0 l 89 0 z "},"m":{"ha":1263,"x_min":4,"x_max":1210,"o":"m 35 0 q 13 10 21 0 q 7 35 4 19 l 146 688 q 161 713 149 703 q 188 722 174 722 l 317 722 q 338 713 331 722 q 343 688 346 703 l 333 640 q 387 688 358 667 q 453 723 415 710 q 543 736 492 736 q 674 704 624 736 q 744 614 725 672 q 845 702 788 668 q 981 736 903 736 q 1110 703 1056 736 q 1187 603 1164 671 q 1188 431 1210 536 l 1103 35 q 1088 10 1100 19 q 1063 0 1076 0 l 925 0 q 903 10 911 0 q 897 35 894 19 l 981 419 q 984 509 992 476 q 954 556 976 542 q 897 569 932 569 q 838 556 869 569 q 779 509 806 542 q 742 419 753 476 l 658 35 q 644 10 656 19 q 618 0 633 0 l 482 0 q 459 10 467 0 q 454 35 451 19 l 536 419 q 540 509 549 476 q 509 556 532 542 q 454 569 486 569 q 393 555 425 569 q 335 508 361 540 q 297 421 310 476 l 215 35 q 201 10 213 19 q 175 0 189 0 l 35 0 z "},"n":{"ha":879,"x_min":4,"x_max":824,"o":"m 35 0 q 13 10 21 0 q 7 35 4 19 l 146 688 q 161 713 149 703 q 188 722 174 722 l 324 722 q 346 713 339 722 q 350 688 353 703 l 339 633 q 442 707 382 678 q 579 736 503 736 q 727 699 671 736 q 803 592 783 663 q 803 422 824 522 l 719 35 q 705 10 717 19 q 678 0 693 0 l 531 0 q 508 10 517 0 q 503 35 500 19 l 583 414 q 580 531 600 492 q 488 569 560 569 q 367 528 417 569 q 303 414 318 488 l 222 35 q 208 10 219 19 q 182 0 196 0 l 35 0 z "},"ń":{"ha":879,"x_min":4,"x_max":832,"o":"m 35 0 q 13 10 21 0 q 7 35 4 19 l 146 688 q 161 713 149 703 q 188 722 174 722 l 324 722 q 346 713 339 722 q 350 688 353 703 l 339 633 q 442 707 382 678 q 579 736 503 736 q 727 699 671 736 q 803 592 783 663 q 803 422 824 522 l 719 35 q 705 10 717 19 q 678 0 693 0 l 531 0 q 508 10 517 0 q 503 35 500 19 l 583 414 q 580 531 600 492 q 488 569 560 569 q 367 528 417 569 q 303 414 318 488 l 222 35 q 208 10 219 19 q 182 0 196 0 l 35 0 m 450 826 q 432 849 428 826 q 443 867 435 860 l 592 1010 q 620 1031 610 1026 q 649 1036 631 1036 l 808 1036 q 829 1011 832 1036 q 818 992 829 999 l 610 846 q 584 831 596 836 q 554 826 572 826 l 450 826 z "},"ŉ":{"ha":879,"x_min":-21,"x_max":824,"o":"m 1 778 q -16 786 -11 778 q -18 807 -21 794 l 46 982 q 67 1014 53 1000 q 104 1028 82 1028 l 233 1028 q 250 1020 244 1028 q 253 1001 256 1013 q 250 994 251 999 q 246 985 249 989 l 144 814 q 122 789 135 800 q 88 778 110 778 l 1 778 m 35 0 q 13 10 21 0 q 7 35 4 19 l 146 688 q 161 713 149 703 q 188 722 174 722 l 324 722 q 346 713 339 722 q 350 688 353 703 l 339 633 q 442 707 382 678 q 579 736 503 736 q 727 699 671 736 q 803 592 783 663 q 803 422 824 522 l 719 35 q 705 10 717 19 q 678 0 693 0 l 531 0 q 508 10 517 0 q 503 35 500 19 l 583 414 q 580 531 600 492 q 488 569 560 569 q 367 528 417 569 q 303 414 318 488 l 222 35 q 208 10 219 19 q 182 0 196 0 l 35 0 z "},"ň":{"ha":879,"x_min":4,"x_max":824,"o":"m 35 0 q 13 10 21 0 q 7 35 4 19 l 146 688 q 161 713 149 703 q 188 722 174 722 l 324 722 q 346 713 339 722 q 350 688 353 703 l 339 633 q 442 707 382 678 q 579 736 503 736 q 727 699 671 736 q 803 592 783 663 q 803 422 824 522 l 719 35 q 705 10 717 19 q 678 0 693 0 l 531 0 q 508 10 517 0 q 503 35 500 19 l 583 414 q 580 531 600 492 q 488 569 560 569 q 367 528 417 569 q 303 414 318 488 l 222 35 q 208 10 219 19 q 182 0 196 0 l 35 0 m 481 826 q 458 831 468 826 q 438 850 449 836 l 326 997 q 322 1014 319 1006 q 331 1031 324 1025 q 346 1036 338 1036 l 401 1036 q 422 1034 413 1036 q 440 1026 431 1032 l 543 956 l 676 1026 q 697 1034 688 1032 q 718 1036 707 1036 l 794 1036 q 811 1017 813 1036 q 799 997 810 1007 l 625 850 q 597 831 608 836 q 572 826 586 826 l 481 826 z "},"ņ":{"ha":879,"x_min":4,"x_max":824,"o":"m 35 0 q 13 10 21 0 q 7 35 4 19 l 146 688 q 161 713 149 703 q 188 722 174 722 l 324 722 q 346 713 339 722 q 350 688 353 703 l 339 633 q 442 707 382 678 q 579 736 503 736 q 727 699 671 736 q 803 592 783 663 q 803 422 824 522 l 719 35 q 705 10 717 19 q 678 0 693 0 l 531 0 q 508 10 517 0 q 503 35 500 19 l 583 414 q 580 531 600 492 q 488 569 560 569 q 367 528 417 569 q 303 414 318 488 l 222 35 q 208 10 219 19 q 182 0 196 0 l 35 0 m 182 -321 q 165 -312 171 -321 q 164 -290 160 -303 l 226 -115 q 248 -83 233 -97 q 285 -69 263 -69 l 415 -69 q 432 -78 426 -69 q 435 -96 438 -86 q 432 -104 433 -100 q 426 -112 431 -108 l 325 -283 q 303 -309 317 -297 q 269 -321 290 -321 l 182 -321 z "},"ñ":{"ha":879,"x_min":4,"x_max":824,"o":"m 35 0 q 13 10 21 0 q 7 35 4 19 l 146 688 q 161 713 149 703 q 188 722 174 722 l 324 722 q 346 713 339 722 q 350 688 353 703 l 339 633 q 442 707 382 678 q 579 736 503 736 q 727 699 671 736 q 803 592 783 663 q 803 422 824 522 l 719 35 q 705 10 717 19 q 678 0 693 0 l 531 0 q 508 10 517 0 q 503 35 500 19 l 583 414 q 580 531 600 492 q 488 569 560 569 q 367 528 417 569 q 303 414 318 488 l 222 35 q 208 10 219 19 q 182 0 196 0 l 35 0 m 619 819 q 560 832 583 819 q 519 856 538 844 q 478 868 501 868 q 449 858 460 868 q 428 838 438 849 q 403 826 418 826 l 329 826 q 314 834 319 826 q 310 850 308 842 q 326 899 314 872 q 359 952 339 926 q 410 994 379 978 q 479 1011 440 1011 q 540 999 518 1011 q 581 975 563 988 q 622 963 600 963 q 652 974 642 963 q 672 995 663 985 q 696 1006 681 1006 l 769 1006 q 787 998 782 1006 q 789 981 792 990 q 773 931 785 958 q 740 878 761 904 q 690 836 719 853 q 619 819 660 819 z "},"ŋ":{"ha":879,"x_min":4,"x_max":824,"o":"m 292 -312 q 269 -303 276 -312 q 264 -278 261 -293 l 288 -162 q 303 -139 290 -149 q 329 -129 315 -129 l 360 -129 q 430 -113 403 -129 q 473 -68 457 -97 q 497 3 489 -39 l 583 414 q 580 531 600 492 q 488 569 560 569 q 367 528 417 569 q 303 414 318 488 l 222 35 q 208 10 219 19 q 182 0 196 0 l 35 0 q 13 10 21 0 q 7 35 4 19 l 146 688 q 161 713 149 703 q 188 722 174 722 l 324 722 q 346 713 339 722 q 350 688 353 703 l 339 633 q 442 707 382 678 q 579 736 503 736 q 727 699 671 736 q 803 592 783 663 q 803 422 824 522 l 711 -4 q 642 -173 690 -104 q 515 -277 594 -242 q 321 -312 436 -312 l 292 -312 z "},"o":{"ha":833,"x_min":21,"x_max":792,"o":"m 336 -14 q 155 24 228 -14 q 51 133 82 63 q 36 299 21 204 q 47 362 39 326 q 63 424 54 397 q 140 590 88 519 q 276 698 193 660 q 474 736 360 736 q 653 698 581 736 q 759 590 726 660 q 775 424 792 519 q 763 362 771 397 q 749 299 756 326 q 672 133 724 204 q 538 24 621 63 q 336 -14 454 -14 m 353 139 q 468 181 422 139 q 535 306 514 224 q 548 361 540 326 q 558 417 556 396 q 549 540 572 497 q 457 583 525 583 q 343 540 389 583 q 276 417 297 497 q 263 361 271 396 q 253 306 256 326 q 262 181 239 224 q 353 139 285 139 z "},"ó":{"ha":833,"x_min":21,"x_max":808,"o":"m 336 -14 q 155 24 228 -14 q 51 133 82 63 q 36 299 21 204 q 47 362 39 326 q 63 424 54 397 q 140 590 88 519 q 276 698 193 660 q 474 736 360 736 q 653 698 581 736 q 759 590 726 660 q 775 424 792 519 q 763 362 771 397 q 749 299 756 326 q 672 133 724 204 q 538 24 621 63 q 336 -14 454 -14 m 353 139 q 468 181 422 139 q 535 306 514 224 q 548 361 540 326 q 558 417 556 396 q 549 540 572 497 q 457 583 525 583 q 343 540 389 583 q 276 417 297 497 q 263 361 271 396 q 253 306 256 326 q 262 181 239 224 q 353 139 285 139 m 426 826 q 408 849 404 826 q 419 867 411 860 l 568 1010 q 597 1031 586 1026 q 625 1036 607 1036 l 785 1036 q 806 1011 808 1036 q 794 992 806 999 l 586 846 q 560 831 572 836 q 531 826 549 826 l 426 826 z "},"ŏ":{"ha":833,"x_min":21,"x_max":792,"o":"m 336 -14 q 155 24 228 -14 q 51 133 82 63 q 36 299 21 204 q 47 362 39 326 q 63 424 54 397 q 140 590 88 519 q 276 698 193 660 q 474 736 360 736 q 653 698 581 736 q 759 590 726 660 q 775 424 792 519 q 763 362 771 397 q 749 299 756 326 q 672 133 724 204 q 538 24 621 63 q 336 -14 454 -14 m 353 139 q 468 181 422 139 q 535 306 514 224 q 548 361 540 326 q 558 417 556 396 q 549 540 572 497 q 457 583 525 583 q 343 540 389 583 q 276 417 297 497 q 263 361 271 396 q 253 306 256 326 q 262 181 239 224 q 353 139 285 139 m 511 819 q 407 846 449 819 q 349 915 365 872 q 343 1010 332 958 q 354 1028 346 1021 q 375 1036 363 1036 l 451 1036 q 469 1028 464 1036 q 472 1010 475 1021 q 474 951 467 978 q 521 925 482 925 q 581 951 561 925 q 607 1010 600 978 q 618 1028 610 1021 q 639 1036 626 1036 l 717 1036 q 735 1028 729 1036 q 738 1010 740 1021 q 701 915 726 958 q 630 846 676 872 q 511 819 583 819 z "},"ô":{"ha":833,"x_min":21,"x_max":792,"o":"m 336 -14 q 155 24 228 -14 q 51 133 82 63 q 36 299 21 204 q 47 362 39 326 q 63 424 54 397 q 140 590 88 519 q 276 698 193 660 q 474 736 360 736 q 653 698 581 736 q 759 590 726 660 q 775 424 792 519 q 763 362 771 397 q 749 299 756 326 q 672 133 724 204 q 538 24 621 63 q 336 -14 454 -14 m 353 139 q 468 181 422 139 q 535 306 514 224 q 548 361 540 326 q 558 417 556 396 q 549 540 572 497 q 457 583 525 583 q 343 540 389 583 q 276 417 297 497 q 263 361 271 396 q 253 306 256 326 q 262 181 239 224 q 353 139 285 139 m 272 826 q 256 844 253 826 q 267 864 257 856 l 442 1013 q 470 1032 458 1028 q 494 1036 482 1036 l 586 1036 q 610 1032 600 1036 q 629 1013 619 1028 l 740 865 q 744 846 747 857 q 721 826 740 826 l 665 826 q 645 828 654 826 q 626 836 636 831 l 524 907 l 390 836 q 369 828 379 831 q 349 826 360 826 l 272 826 z "},"ö":{"ha":833,"x_min":21,"x_max":792,"o":"m 336 -14 q 155 24 228 -14 q 51 133 82 63 q 36 299 21 204 q 47 362 39 326 q 63 424 54 397 q 140 590 88 519 q 276 698 193 660 q 474 736 360 736 q 653 698 581 736 q 759 590 726 660 q 775 424 792 519 q 763 362 771 397 q 749 299 756 326 q 672 133 724 204 q 538 24 621 63 q 336 -14 454 -14 m 353 139 q 468 181 422 139 q 535 306 514 224 q 548 361 540 326 q 558 417 556 396 q 549 540 572 497 q 457 583 525 583 q 343 540 389 583 q 276 417 297 497 q 263 361 271 396 q 253 306 256 326 q 262 181 239 224 q 353 139 285 139 m 585 849 q 565 857 571 849 q 560 879 558 865 l 585 993 q 598 1016 588 1007 q 622 1025 608 1025 l 736 1025 q 757 1016 750 1025 q 761 993 764 1007 l 738 879 q 724 857 735 865 q 699 849 713 849 l 585 849 m 311 849 q 290 857 297 849 q 286 879 283 865 l 311 993 q 324 1016 314 1007 q 349 1025 335 1025 l 463 1025 q 483 1016 476 1025 q 488 993 490 1007 l 464 879 q 450 857 461 865 q 425 849 439 849 l 311 849 z "},"ò":{"ha":833,"x_min":21,"x_max":792,"o":"m 336 -14 q 155 24 228 -14 q 51 133 82 63 q 36 299 21 204 q 47 362 39 326 q 63 424 54 397 q 140 590 88 519 q 276 698 193 660 q 474 736 360 736 q 653 698 581 736 q 759 590 726 660 q 775 424 792 519 q 763 362 771 397 q 749 299 756 326 q 672 133 724 204 q 538 24 621 63 q 336 -14 454 -14 m 353 139 q 468 181 422 139 q 535 306 514 224 q 548 361 540 326 q 558 417 556 396 q 549 540 572 497 q 457 583 525 583 q 343 540 389 583 q 276 417 297 497 q 263 361 271 396 q 253 306 256 326 q 262 181 239 224 q 353 139 285 139 m 467 826 q 439 831 449 826 q 419 846 429 836 l 274 990 q 269 1008 268 999 q 300 1036 274 1036 l 468 1036 q 495 1031 486 1036 q 514 1010 504 1026 l 601 868 q 604 849 607 860 q 578 826 600 826 l 467 826 z "},"ő":{"ha":833,"x_min":21,"x_max":883,"o":"m 336 -14 q 155 24 228 -14 q 51 133 82 63 q 36 299 21 204 q 47 362 39 326 q 63 424 54 397 q 140 590 88 519 q 276 698 193 660 q 474 736 360 736 q 653 698 581 736 q 759 590 726 660 q 775 424 792 519 q 763 362 771 397 q 749 299 756 326 q 672 133 724 204 q 538 24 621 63 q 336 -14 454 -14 m 353 139 q 468 181 422 139 q 535 306 514 224 q 548 361 540 326 q 558 417 556 396 q 549 540 572 497 q 457 583 525 583 q 343 540 389 583 q 276 417 297 497 q 263 361 271 396 q 253 306 256 326 q 262 181 239 224 q 353 139 285 139 m 586 826 q 567 846 565 826 q 571 856 568 850 q 576 865 574 861 l 672 1010 q 694 1030 682 1024 q 729 1036 707 1036 l 858 1036 q 881 1013 883 1036 q 869 992 879 1001 l 708 846 q 658 826 686 826 l 586 826 m 307 826 q 289 846 286 826 q 292 856 289 850 q 299 865 296 861 l 393 1010 q 415 1030 403 1024 q 450 1036 428 1036 l 579 1036 q 601 1013 604 1036 q 590 992 600 1001 l 429 846 q 381 826 407 826 l 307 826 z "},"ō":{"ha":833,"x_min":21,"x_max":792,"o":"m 336 -14 q 155 24 228 -14 q 51 133 82 63 q 36 299 21 204 q 47 362 39 326 q 63 424 54 397 q 140 590 88 519 q 276 698 193 660 q 474 736 360 736 q 653 698 581 736 q 759 590 726 660 q 775 424 792 519 q 763 362 771 397 q 749 299 756 326 q 672 133 724 204 q 538 24 621 63 q 336 -14 454 -14 m 353 139 q 468 181 422 139 q 535 306 514 224 q 548 361 540 326 q 558 417 556 396 q 549 540 572 497 q 457 583 525 583 q 343 540 389 583 q 276 417 297 497 q 263 361 271 396 q 253 306 256 326 q 262 181 239 224 q 353 139 285 139 m 319 844 q 299 853 306 844 q 294 876 292 863 l 313 960 q 326 982 315 974 q 350 990 336 990 l 718 990 q 738 982 732 990 q 742 960 744 974 l 725 876 q 712 853 722 863 q 688 844 701 844 l 319 844 z "},"ø":{"ha":833,"x_min":-15,"x_max":842,"o":"m 336 -14 q 155 24 228 -14 q 51 133 82 63 q 36 299 21 204 q 47 362 39 326 q 63 424 54 397 q 140 590 88 519 q 276 698 193 660 q 474 736 360 736 q 653 698 581 736 q 759 590 726 660 q 775 424 792 519 q 763 362 771 397 q 749 299 756 326 q 672 133 724 204 q 538 24 621 63 q 336 -14 454 -14 m 353 139 q 468 181 422 139 q 535 306 514 224 q 548 361 540 326 q 558 417 556 396 q 549 540 572 497 q 457 583 525 583 q 343 540 389 583 q 276 417 297 497 q 263 361 271 396 q 253 306 256 326 q 262 181 239 224 q 353 139 285 139 m 10 -39 q -7 -32 1 -39 q -15 -15 -15 -25 q -3 8 -15 -4 l 736 739 q 755 753 746 747 q 779 760 764 760 l 818 760 q 834 753 826 760 q 842 736 842 746 q 832 713 842 724 l 92 -18 q 74 -33 83 -26 q 49 -39 64 -39 l 10 -39 z "},"ǿ":{"ha":833,"x_min":-15,"x_max":842,"o":"m 336 -14 q 155 24 228 -14 q 51 133 82 63 q 36 299 21 204 q 47 362 39 326 q 63 424 54 397 q 140 590 88 519 q 276 698 193 660 q 474 736 360 736 q 653 698 581 736 q 759 590 726 660 q 775 424 792 519 q 763 362 771 397 q 749 299 756 326 q 672 133 724 204 q 538 24 621 63 q 336 -14 454 -14 m 353 139 q 468 181 422 139 q 535 306 514 224 q 548 361 540 326 q 558 417 556 396 q 549 540 572 497 q 457 583 525 583 q 343 540 389 583 q 276 417 297 497 q 263 361 271 396 q 253 306 256 326 q 262 181 239 224 q 353 139 285 139 m 10 -39 q -7 -32 1 -39 q -15 -15 -15 -25 q -3 8 -15 -4 l 736 739 q 755 753 746 747 q 779 760 764 760 l 818 760 q 834 753 826 760 q 842 736 842 746 q 832 713 842 724 l 92 -18 q 74 -33 83 -26 q 49 -39 64 -39 l 10 -39 m 440 826 q 422 849 418 826 q 433 867 425 860 l 582 1010 q 610 1031 600 1026 q 639 1036 621 1036 l 799 1036 q 819 1011 822 1036 q 808 992 819 999 l 600 846 q 574 831 586 836 q 544 826 563 826 l 440 826 z "},"õ":{"ha":833,"x_min":21,"x_max":792,"o":"m 336 -14 q 155 24 228 -14 q 51 133 82 63 q 36 299 21 204 q 47 362 39 326 q 63 424 54 397 q 140 590 88 519 q 276 698 193 660 q 474 736 360 736 q 653 698 581 736 q 759 590 726 660 q 775 424 792 519 q 763 362 771 397 q 749 299 756 326 q 672 133 724 204 q 538 24 621 63 q 336 -14 454 -14 m 353 139 q 468 181 422 139 q 535 306 514 224 q 548 361 540 326 q 558 417 556 396 q 549 540 572 497 q 457 583 525 583 q 343 540 389 583 q 276 417 297 497 q 263 361 271 396 q 253 306 256 326 q 262 181 239 224 q 353 139 285 139 m 596 819 q 537 832 560 819 q 496 856 514 844 q 454 868 478 868 q 425 858 436 868 q 404 838 414 849 q 379 826 394 826 l 306 826 q 290 834 296 826 q 286 850 285 842 q 303 899 290 872 q 335 952 315 926 q 386 994 356 978 q 456 1011 417 1011 q 517 999 494 1011 q 558 975 539 988 q 599 963 576 963 q 628 974 618 963 q 648 995 639 985 q 672 1006 657 1006 l 746 1006 q 763 998 758 1006 q 765 981 768 990 q 749 931 761 958 q 717 878 738 904 q 666 836 696 853 q 596 819 636 819 z "},"œ":{"ha":1315,"x_min":42,"x_max":1299,"o":"m 347 -14 q 164 24 233 -14 q 68 133 94 63 q 57 299 42 204 q 69 362 61 326 q 83 424 76 397 q 166 590 108 519 q 310 698 224 660 q 507 736 397 736 q 650 709 592 736 q 739 635 708 682 q 858 710 792 683 q 1001 736 925 736 q 1188 688 1119 736 q 1277 558 1256 640 q 1276 368 1299 475 l 1269 336 q 1254 313 1267 322 q 1228 303 1242 303 l 774 303 l 772 292 q 772 210 764 247 q 804 151 779 174 q 872 129 829 129 q 927 139 903 129 q 969 163 951 149 q 996 186 986 176 q 1019 203 1011 200 q 1044 207 1028 207 l 1189 207 q 1210 199 1203 207 q 1213 178 1217 192 q 1178 123 1207 156 q 1102 59 1150 90 q 988 7 1054 28 q 843 -14 922 -14 q 709 12 765 -14 q 622 85 653 38 q 502 12 571 38 q 347 -14 433 -14 m 379 139 q 491 181 447 139 q 557 306 535 224 q 569 361 563 326 q 579 417 576 396 q 568 540 593 497 q 475 583 543 583 q 363 540 407 583 q 297 417 319 497 q 285 361 292 396 q 275 306 278 326 q 287 181 261 224 q 379 139 313 139 m 801 429 l 1074 429 l 1074 432 q 1076 519 1085 482 q 1042 576 1068 556 q 972 597 1015 597 q 894 576 929 597 q 836 519 860 556 q 801 432 813 482 l 801 429 z "},"p":{"ha":863,"x_min":-51,"x_max":815,"o":"m -21 -264 q -44 -254 -36 -264 q -49 -229 -51 -244 l 147 688 q 162 713 150 703 q 188 722 174 722 l 321 722 q 342 713 335 722 q 347 688 350 703 l 336 635 q 431 708 379 679 q 564 736 482 736 q 685 713 635 736 q 766 647 736 690 q 806 542 796 603 q 803 408 815 482 q 794 361 799 382 q 782 314 789 340 q 733 183 764 243 q 658 78 703 122 q 556 10 614 35 q 426 -14 499 -14 q 302 12 351 -14 q 229 82 253 38 l 163 -229 q 148 -254 160 -244 q 122 -264 136 -264 l -21 -264 m 388 153 q 473 176 438 153 q 531 236 508 199 q 568 318 554 274 q 579 361 575 339 q 586 404 583 383 q 587 486 592 449 q 558 547 582 524 q 485 569 535 569 q 395 546 433 569 q 333 486 357 522 q 299 408 310 450 q 286 357 292 383 q 276 304 281 331 q 277 231 269 265 q 311 175 285 197 q 388 153 338 153 z "},"þ":{"ha":863,"x_min":-51,"x_max":815,"o":"m -21 -264 q -44 -254 -36 -264 q -49 -229 -51 -244 l 204 951 q 218 976 207 967 q 244 986 229 986 l 388 986 q 410 976 401 986 q 415 951 418 967 l 349 642 q 433 708 383 681 q 564 736 482 736 q 685 713 635 736 q 766 647 736 690 q 806 542 796 603 q 803 408 815 482 q 794 361 799 382 q 782 314 789 340 q 733 183 764 243 q 658 78 703 122 q 556 10 614 35 q 426 -14 499 -14 q 302 13 351 -14 q 229 82 253 39 l 163 -229 q 148 -254 160 -244 q 122 -264 136 -264 l -21 -264 m 388 153 q 473 176 438 153 q 531 236 508 199 q 568 318 554 274 q 579 361 575 339 q 586 404 583 383 q 587 486 592 449 q 558 547 582 524 q 485 569 535 569 q 395 546 433 569 q 333 486 357 522 q 299 408 310 450 q 286 357 292 383 q 276 304 281 331 q 277 231 269 265 q 311 175 285 197 q 388 153 338 153 z "},"q":{"ha":864,"x_min":26,"x_max":836,"o":"m 454 -264 q 433 -254 440 -264 q 428 -229 425 -244 l 494 82 q 401 12 453 38 q 279 -14 350 -14 q 157 10 208 -14 q 76 76 106 33 q 36 179 46 119 q 39 310 26 239 q 49 361 43 338 q 60 411 54 385 q 133 583 86 511 q 251 696 181 656 q 415 736 321 736 q 547 708 494 736 q 622 635 599 679 l 633 688 q 648 713 636 703 q 675 722 660 722 l 807 722 q 829 713 822 722 q 833 688 836 703 l 640 -229 q 625 -254 638 -244 q 597 -264 613 -264 l 454 -264 m 358 153 q 446 175 408 153 q 508 231 483 197 q 542 304 532 265 q 554 357 549 331 q 564 408 560 383 q 564 486 571 450 q 532 546 557 522 q 454 569 507 569 q 369 547 404 569 q 310 486 333 524 q 275 404 288 449 q 265 361 269 383 q 257 318 260 339 q 254 236 250 274 q 282 176 258 199 q 358 153 306 153 z "},"r":{"ha":607,"x_min":4,"x_max":650,"o":"m 35 0 q 13 10 21 0 q 7 35 4 19 l 146 688 q 161 712 149 701 q 188 722 174 722 l 324 722 q 345 712 338 722 q 350 688 353 701 l 339 632 q 423 698 372 674 q 547 722 474 722 l 621 722 q 642 713 635 722 q 647 688 650 703 l 621 568 q 606 543 618 553 q 581 533 594 533 l 460 533 q 356 499 397 533 q 301 403 315 465 l 222 35 q 208 10 219 19 q 181 0 196 0 l 35 0 z "},"ŕ":{"ha":607,"x_min":4,"x_max":721,"o":"m 35 0 q 13 10 21 0 q 7 35 4 19 l 146 688 q 161 712 149 701 q 188 722 174 722 l 324 722 q 345 712 338 722 q 350 688 353 701 l 339 632 q 423 698 372 674 q 547 722 474 722 l 621 722 q 642 713 635 722 q 647 688 650 703 l 621 568 q 606 543 618 553 q 581 533 594 533 l 460 533 q 356 499 397 533 q 301 403 315 465 l 222 35 q 208 10 219 19 q 181 0 196 0 l 35 0 m 339 826 q 321 849 317 826 q 332 867 324 860 l 481 1010 q 509 1031 499 1026 q 538 1036 519 1036 l 697 1036 q 718 1011 721 1036 q 707 992 718 999 l 499 846 q 473 831 485 836 q 443 826 461 826 l 339 826 z "},"ř":{"ha":607,"x_min":4,"x_max":701,"o":"m 35 0 q 13 10 21 0 q 7 35 4 19 l 146 688 q 161 712 149 701 q 188 722 174 722 l 324 722 q 345 712 338 722 q 350 688 353 701 l 339 632 q 423 698 372 674 q 547 722 474 722 l 621 722 q 642 713 635 722 q 647 688 650 703 l 621 568 q 606 543 618 553 q 581 533 594 533 l 460 533 q 356 499 397 533 q 301 403 315 465 l 222 35 q 208 10 219 19 q 181 0 196 0 l 35 0 m 369 826 q 347 831 357 826 q 326 850 338 836 l 215 997 q 211 1014 208 1006 q 219 1031 213 1025 q 235 1036 226 1036 l 290 1036 q 310 1034 301 1036 q 329 1026 319 1032 l 432 956 l 565 1026 q 586 1034 576 1032 q 607 1036 596 1036 l 683 1036 q 700 1017 701 1036 q 688 997 699 1007 l 514 850 q 486 831 497 836 q 461 826 475 826 l 369 826 z "},"ŗ":{"ha":607,"x_min":-87,"x_max":650,"o":"m 35 0 q 13 10 21 0 q 7 35 4 19 l 146 688 q 161 712 149 701 q 188 722 174 722 l 324 722 q 345 712 338 722 q 350 688 353 701 l 339 632 q 423 698 372 674 q 547 722 474 722 l 621 722 q 642 713 635 722 q 647 688 650 703 l 621 568 q 606 543 618 553 q 581 533 594 533 l 460 533 q 356 499 397 533 q 301 403 315 465 l 222 35 q 208 10 219 19 q 181 0 196 0 l 35 0 m -65 -321 q -82 -312 -76 -321 q -83 -290 -87 -303 l -21 -115 q 1 -83 -14 -97 q 38 -69 15 -69 l 168 -69 q 185 -78 179 -69 q 188 -96 190 -86 q 185 -104 186 -100 q 179 -112 183 -108 l 78 -283 q 56 -309 69 -297 q 22 -321 43 -321 l -65 -321 z "},"s":{"ha":753,"x_min":13,"x_max":732,"o":"m 301 -14 q 158 6 215 -14 q 68 56 100 26 q 24 115 36 85 q 15 165 13 144 q 30 190 18 181 q 54 200 42 200 l 188 200 q 197 199 193 200 q 204 192 200 197 q 235 163 219 179 q 275 136 251 147 q 336 125 299 125 q 418 144 382 125 q 461 197 454 163 q 456 239 467 222 q 407 269 444 256 q 294 300 369 283 q 177 344 224 317 q 113 415 131 372 q 107 517 94 457 q 163 621 119 571 q 281 703 207 671 q 456 736 356 736 q 586 717 532 736 q 673 670 640 699 q 719 612 706 642 q 728 560 732 582 q 715 536 726 546 q 690 526 703 526 l 568 526 q 556 528 561 526 q 549 535 551 531 q 519 560 533 546 q 484 586 506 575 q 425 597 463 597 q 351 577 379 597 q 315 526 322 557 q 320 490 311 507 q 365 460 329 474 q 476 431 400 446 q 616 381 567 414 q 680 303 665 347 q 683 210 694 260 q 621 94 671 144 q 490 15 571 43 q 301 -14 410 -14 z "},"ś":{"ha":753,"x_min":13,"x_max":761,"o":"m 301 -14 q 158 6 215 -14 q 68 56 100 26 q 24 115 36 85 q 15 165 13 144 q 30 190 18 181 q 54 200 42 200 l 188 200 q 197 199 193 200 q 204 192 200 197 q 235 163 219 179 q 275 136 251 147 q 336 125 299 125 q 418 144 382 125 q 461 197 454 163 q 456 239 467 222 q 407 269 444 256 q 294 300 369 283 q 177 344 224 317 q 113 415 131 372 q 107 517 94 457 q 163 621 119 571 q 281 703 207 671 q 456 736 356 736 q 586 717 532 736 q 673 670 640 699 q 719 612 706 642 q 728 560 732 582 q 715 536 726 546 q 690 526 703 526 l 568 526 q 556 528 561 526 q 549 535 551 531 q 519 560 533 546 q 484 586 506 575 q 425 597 463 597 q 351 577 379 597 q 315 526 322 557 q 320 490 311 507 q 365 460 329 474 q 476 431 400 446 q 616 381 567 414 q 680 303 665 347 q 683 210 694 260 q 621 94 671 144 q 490 15 571 43 q 301 -14 410 -14 m 379 826 q 361 849 357 826 q 372 867 364 860 l 521 1010 q 549 1031 539 1026 q 578 1036 560 1036 l 738 1036 q 758 1011 761 1036 q 747 992 758 999 l 539 846 q 513 831 525 836 q 483 826 501 826 l 379 826 z "},"š":{"ha":753,"x_min":13,"x_max":742,"o":"m 301 -14 q 158 6 215 -14 q 68 56 100 26 q 24 115 36 85 q 15 165 13 144 q 30 190 18 181 q 54 200 42 200 l 188 200 q 197 199 193 200 q 204 192 200 197 q 235 163 219 179 q 275 136 251 147 q 336 125 299 125 q 418 144 382 125 q 461 197 454 163 q 456 239 467 222 q 407 269 444 256 q 294 300 369 283 q 177 344 224 317 q 113 415 131 372 q 107 517 94 457 q 163 621 119 571 q 281 703 207 671 q 456 736 356 736 q 586 717 532 736 q 673 670 640 699 q 719 612 706 642 q 728 560 732 582 q 715 536 726 546 q 690 526 703 526 l 568 526 q 556 528 561 526 q 549 535 551 531 q 519 560 533 546 q 484 586 506 575 q 425 597 463 597 q 351 577 379 597 q 315 526 322 557 q 320 490 311 507 q 365 460 329 474 q 476 431 400 446 q 616 381 567 414 q 680 303 665 347 q 683 210 694 260 q 621 94 671 144 q 490 15 571 43 q 301 -14 410 -14 m 408 826 q 386 831 396 826 q 365 850 376 836 l 254 997 q 250 1014 247 1006 q 258 1031 251 1025 q 274 1036 265 1036 l 329 1036 q 349 1034 340 1036 q 368 1026 358 1032 l 471 956 l 604 1026 q 625 1034 615 1032 q 646 1036 635 1036 l 722 1036 q 739 1017 740 1036 q 726 997 738 1007 l 553 850 q 525 831 536 836 q 500 826 514 826 l 408 826 z "},"ş":{"ha":753,"x_min":11,"x_max":732,"o":"m 274 -306 q 209 -293 236 -306 q 173 -264 182 -281 q 179 -235 164 -247 l 208 -212 q 231 -206 222 -201 q 251 -219 239 -211 q 290 -228 264 -228 q 329 -215 313 -228 q 350 -183 346 -203 q 343 -153 354 -165 q 310 -140 332 -140 q 284 -145 297 -140 q 259 -151 271 -150 q 239 -143 247 -153 l 219 -117 q 215 -98 213 -108 q 226 -72 217 -87 l 264 -12 q 108 30 164 -3 q 31 101 51 63 q 15 165 11 139 q 30 190 18 181 q 54 200 42 200 l 182 200 q 192 199 188 200 q 201 192 197 197 q 234 163 218 179 q 274 136 250 147 q 336 125 297 125 q 418 144 382 125 q 461 197 454 163 q 456 239 467 222 q 407 269 444 256 q 294 300 369 283 q 177 344 224 317 q 113 415 131 372 q 107 517 94 457 q 163 621 119 571 q 281 703 207 671 q 456 736 356 736 q 586 717 532 736 q 673 670 640 699 q 719 612 706 642 q 728 560 732 582 q 715 536 726 546 q 690 526 703 526 l 567 526 q 556 528 560 526 q 549 535 551 531 q 519 560 533 546 q 484 586 506 575 q 425 597 463 597 q 351 577 379 597 q 315 526 322 557 q 320 490 311 507 q 365 460 329 474 q 476 431 400 446 q 616 381 567 414 q 680 303 665 347 q 683 210 694 260 q 576 57 664 118 q 343 -12 488 -4 l 310 -68 q 332 -64 319 -65 q 351 -62 344 -62 q 424 -96 401 -62 q 435 -182 446 -129 q 381 -270 424 -235 q 274 -306 338 -306 z "},"ŝ":{"ha":753,"x_min":13,"x_max":732,"o":"m 301 -14 q 158 6 215 -14 q 68 56 100 26 q 24 115 36 85 q 15 165 13 144 q 30 190 18 181 q 54 200 42 200 l 188 200 q 197 199 193 200 q 204 192 200 197 q 235 163 219 179 q 275 136 251 147 q 336 125 299 125 q 418 144 382 125 q 461 197 454 163 q 456 239 467 222 q 407 269 444 256 q 294 300 369 283 q 177 344 224 317 q 113 415 131 372 q 107 517 94 457 q 163 621 119 571 q 281 703 207 671 q 456 736 356 736 q 586 717 532 736 q 673 670 640 699 q 719 612 706 642 q 728 560 732 582 q 715 536 726 546 q 690 526 703 526 l 568 526 q 556 528 561 526 q 549 535 551 531 q 519 560 533 546 q 484 586 506 575 q 425 597 463 597 q 351 577 379 597 q 315 526 322 557 q 320 490 311 507 q 365 460 329 474 q 476 431 400 446 q 616 381 567 414 q 680 303 665 347 q 683 210 694 260 q 621 94 671 144 q 490 15 571 43 q 301 -14 410 -14 m 224 826 q 207 844 204 826 q 218 864 208 856 l 393 1013 q 422 1032 410 1028 q 446 1036 433 1036 l 538 1036 q 561 1032 551 1036 q 581 1013 571 1028 l 692 865 q 696 846 699 857 q 672 826 692 826 l 617 826 q 597 828 606 826 q 578 836 588 831 l 475 907 l 342 836 q 321 828 331 831 q 300 826 311 826 l 224 826 z "},"ș":{"ha":753,"x_min":13,"x_max":732,"o":"m 301 -14 q 158 6 215 -14 q 68 56 100 26 q 24 115 36 85 q 15 165 13 144 q 30 190 18 181 q 54 200 42 200 l 188 200 q 197 199 193 200 q 204 192 200 197 q 235 163 219 179 q 275 136 251 147 q 336 125 299 125 q 418 144 382 125 q 461 197 454 163 q 456 239 467 222 q 407 269 444 256 q 294 300 369 283 q 177 344 224 317 q 113 415 131 372 q 107 517 94 457 q 163 621 119 571 q 281 703 207 671 q 456 736 356 736 q 586 717 532 736 q 673 670 640 699 q 719 612 706 642 q 728 560 732 582 q 715 536 726 546 q 690 526 703 526 l 568 526 q 556 528 561 526 q 549 535 551 531 q 519 560 533 546 q 484 586 506 575 q 425 597 463 597 q 351 577 379 597 q 315 526 322 557 q 320 490 311 507 q 365 460 329 474 q 476 431 400 446 q 616 381 567 414 q 680 303 665 347 q 683 210 694 260 q 621 94 671 144 q 490 15 571 43 q 301 -14 410 -14 m 135 -321 q 118 -312 124 -321 q 117 -290 113 -303 l 179 -115 q 201 -83 186 -97 q 238 -69 215 -69 l 368 -69 q 385 -78 379 -69 q 388 -96 390 -86 q 385 -104 386 -100 q 379 -112 383 -108 l 278 -283 q 256 -309 269 -297 q 222 -321 243 -321 l 135 -321 z "},"ß":{"ha":869,"x_min":25,"x_max":874,"o":"m 54 0 q 32 10 39 0 q 28 35 25 19 l 160 661 q 231 824 179 751 q 368 942 282 897 q 576 986 454 986 q 765 946 699 986 q 853 844 832 906 q 858 715 874 782 q 826 630 849 667 q 776 567 804 593 q 715 522 747 540 q 787 469 763 503 q 817 390 811 435 q 810 290 822 346 q 768 190 799 240 q 687 96 738 139 q 565 26 636 53 q 401 0 494 0 l 326 0 q 301 10 308 0 q 296 35 293 19 l 315 125 q 331 149 318 139 q 361 158 343 160 l 406 158 q 532 199 482 158 q 594 299 582 239 q 575 399 607 358 q 463 439 543 439 l 417 439 q 392 449 399 439 q 389 472 386 458 l 406 551 q 418 576 408 567 q 447 586 428 586 l 488 586 q 602 619 558 588 q 657 706 646 650 q 638 792 669 758 q 542 826 606 826 q 431 787 478 826 q 368 664 385 747 l 233 35 q 219 10 231 19 q 192 0 207 0 l 54 0 z "},"ſ":{"ha":457,"x_min":56,"x_max":714,"o":"m 111 0 q 89 10 97 0 q 83 35 81 19 l 196 558 l 86 558 q 64 568 72 558 q 60 593 56 578 l 79 688 q 94 713 82 703 q 121 722 107 722 l 231 722 l 242 772 q 304 918 261 861 q 413 1001 347 975 q 565 1028 478 1028 l 685 1028 q 706 1018 699 1028 q 711 993 714 1008 l 690 899 q 676 874 688 883 q 649 864 664 864 l 561 864 q 482 839 510 864 q 444 765 454 814 l 288 35 q 274 10 285 19 q 247 0 263 0 l 111 0 z "},"t":{"ha":614,"x_min":51,"x_max":632,"o":"m 356 0 q 204 28 261 0 q 128 117 147 57 q 128 267 110 176 l 190 558 l 82 558 q 59 568 67 558 q 54 593 51 578 l 74 688 q 89 713 76 703 q 115 722 101 722 l 225 722 l 274 951 q 288 976 276 967 q 315 986 300 986 l 451 986 q 474 976 465 986 q 479 951 482 967 l 429 722 l 603 722 q 625 713 618 722 q 629 688 632 703 l 610 593 q 595 568 607 578 q 568 558 583 558 l 394 558 l 336 283 q 328 223 329 249 q 342 184 328 197 q 393 171 357 171 l 499 171 q 520 161 513 171 q 525 138 528 151 l 503 35 q 489 10 500 19 q 463 0 478 0 l 356 0 z "},"ŧ":{"ha":621,"x_min":22,"x_max":638,"o":"m 354 0 q 204 28 260 0 q 131 117 149 57 q 133 267 114 176 l 161 394 l 51 394 q 30 404 38 394 q 25 429 22 414 l 35 475 q 49 499 38 489 q 75 508 61 508 l 185 508 l 207 608 l 97 608 q 76 618 83 608 q 69 642 68 628 l 79 688 q 94 713 82 703 q 121 722 107 722 l 231 722 l 279 951 q 294 976 282 967 q 321 986 306 986 l 456 986 q 479 976 471 986 q 485 951 488 967 l 435 722 l 608 722 q 631 713 624 722 q 635 688 638 703 l 625 642 q 611 618 624 628 q 585 608 599 608 l 411 608 l 389 508 l 563 508 q 585 499 578 508 q 590 475 593 489 l 581 429 q 565 404 578 414 q 539 394 553 394 l 365 394 l 342 283 q 335 223 335 249 q 349 184 335 197 q 399 171 363 171 l 504 171 q 526 161 518 171 q 531 138 533 151 l 508 35 q 494 10 506 19 q 468 0 483 0 l 354 0 z "},"ť":{"ha":614,"x_min":51,"x_max":843,"o":"m 356 0 q 204 28 261 0 q 128 117 147 57 q 128 267 110 176 l 190 558 l 82 558 q 59 568 67 558 q 54 593 51 578 l 74 688 q 89 713 76 703 q 115 722 101 722 l 225 722 l 274 951 q 288 976 276 967 q 315 986 300 986 l 451 986 q 474 976 465 986 q 479 951 482 967 l 429 722 l 603 722 q 625 713 618 722 q 629 688 632 703 l 610 593 q 595 568 607 578 q 568 558 583 558 l 394 558 l 336 283 q 328 223 329 249 q 342 184 328 197 q 393 171 357 171 l 499 171 q 520 161 513 171 q 525 138 528 151 l 503 35 q 489 10 500 19 q 463 0 478 0 l 356 0 m 588 847 q 570 856 575 847 q 568 878 565 865 l 632 1053 q 653 1085 639 1071 q 690 1099 668 1099 l 819 1099 q 837 1090 831 1099 q 840 1072 843 1082 q 838 1064 839 1068 q 832 1056 836 1060 l 731 885 q 708 859 721 871 q 675 847 696 847 l 588 847 z "},"ț":{"ha":614,"x_min":51,"x_max":632,"o":"m 356 0 q 204 28 261 0 q 128 117 147 57 q 128 267 110 176 l 190 558 l 82 558 q 59 568 67 558 q 54 593 51 578 l 74 688 q 89 713 76 703 q 115 722 101 722 l 225 722 l 274 951 q 288 976 276 967 q 315 986 300 986 l 451 986 q 474 976 465 986 q 479 951 482 967 l 429 722 l 603 722 q 625 713 618 722 q 629 688 632 703 l 610 593 q 595 568 607 578 q 568 558 583 558 l 394 558 l 336 283 q 328 223 329 249 q 342 184 328 197 q 393 171 357 171 l 499 171 q 520 161 513 171 q 525 138 528 151 l 503 35 q 489 10 500 19 q 463 0 478 0 l 356 0 m 115 -321 q 99 -312 104 -321 q 97 -290 93 -303 l 160 -115 q 181 -83 167 -97 q 218 -69 196 -69 l 349 -69 q 365 -78 360 -69 q 368 -96 371 -86 q 365 -104 367 -100 q 360 -112 364 -108 l 258 -283 q 237 -309 250 -297 q 203 -321 224 -321 l 115 -321 z "},"u":{"ha":876,"x_min":35,"x_max":850,"o":"m 276 -14 q 133 23 190 -14 q 56 130 76 60 q 57 300 35 200 l 139 688 q 153 713 142 703 q 181 722 165 722 l 328 722 q 349 713 342 722 q 354 688 357 703 l 274 308 q 267 222 263 257 q 296 170 271 188 q 369 153 321 153 q 486 194 436 153 q 551 308 536 235 l 632 688 q 647 713 635 703 q 674 722 660 722 l 821 722 q 843 713 836 722 q 847 688 850 703 l 708 35 q 694 10 706 19 q 668 0 683 0 l 532 0 q 509 10 517 0 q 504 35 501 19 l 515 89 q 452 33 485 57 q 378 -2 419 10 q 276 -14 338 -14 z "},"ú":{"ha":876,"x_min":35,"x_max":850,"o":"m 276 -14 q 133 23 190 -14 q 56 130 76 60 q 57 300 35 200 l 139 688 q 153 713 142 703 q 181 722 165 722 l 328 722 q 349 713 342 722 q 354 688 357 703 l 274 308 q 267 222 263 257 q 296 170 271 188 q 369 153 321 153 q 486 194 436 153 q 551 308 536 235 l 632 688 q 647 713 635 703 q 674 722 660 722 l 821 722 q 843 713 836 722 q 847 688 850 703 l 708 35 q 694 10 706 19 q 668 0 683 0 l 532 0 q 509 10 517 0 q 504 35 501 19 l 515 89 q 452 33 485 57 q 378 -2 419 10 q 276 -14 338 -14 m 436 826 q 418 849 414 826 q 429 867 421 860 l 578 1010 q 606 1031 596 1026 q 635 1036 617 1036 l 794 1036 q 815 1011 818 1036 q 804 992 815 999 l 596 846 q 570 831 582 836 q 540 826 558 826 l 436 826 z "},"ŭ":{"ha":876,"x_min":35,"x_max":850,"o":"m 276 -14 q 133 23 190 -14 q 56 130 76 60 q 57 300 35 200 l 139 688 q 153 713 142 703 q 181 722 165 722 l 328 722 q 349 713 342 722 q 354 688 357 703 l 274 308 q 267 222 263 257 q 296 170 271 188 q 369 153 321 153 q 486 194 436 153 q 551 308 536 235 l 632 688 q 647 713 635 703 q 674 722 660 722 l 821 722 q 843 713 836 722 q 847 688 850 703 l 708 35 q 694 10 706 19 q 668 0 683 0 l 532 0 q 509 10 517 0 q 504 35 501 19 l 515 89 q 452 33 485 57 q 378 -2 419 10 q 276 -14 338 -14 m 521 819 q 417 846 458 819 q 358 915 375 872 q 353 1010 342 958 q 364 1028 356 1021 q 385 1036 372 1036 l 461 1036 q 479 1028 474 1036 q 482 1010 485 1021 q 484 951 476 978 q 531 925 492 925 q 590 951 571 925 q 617 1010 610 978 q 628 1028 619 1021 q 649 1036 636 1036 l 726 1036 q 744 1028 739 1036 q 747 1010 750 1021 q 711 915 736 958 q 640 846 686 872 q 521 819 593 819 z "},"û":{"ha":876,"x_min":35,"x_max":850,"o":"m 276 -14 q 133 23 190 -14 q 56 130 76 60 q 57 300 35 200 l 139 688 q 153 713 142 703 q 181 722 165 722 l 328 722 q 349 713 342 722 q 354 688 357 703 l 274 308 q 267 222 263 257 q 296 170 271 188 q 369 153 321 153 q 486 194 436 153 q 551 308 536 235 l 632 688 q 647 713 635 703 q 674 722 660 722 l 821 722 q 843 713 836 722 q 847 688 850 703 l 708 35 q 694 10 706 19 q 668 0 683 0 l 532 0 q 509 10 517 0 q 504 35 501 19 l 515 89 q 452 33 485 57 q 378 -2 419 10 q 276 -14 338 -14 m 282 826 q 265 844 263 826 q 276 864 267 856 l 451 1013 q 480 1032 468 1028 q 504 1036 492 1036 l 596 1036 q 619 1032 610 1036 q 639 1013 629 1028 l 750 865 q 754 846 757 857 q 731 826 750 826 l 675 826 q 655 828 664 826 q 636 836 646 831 l 533 907 l 400 836 q 379 828 389 831 q 358 826 369 826 l 282 826 z "},"ü":{"ha":876,"x_min":35,"x_max":850,"o":"m 276 -14 q 133 23 190 -14 q 56 130 76 60 q 57 300 35 200 l 139 688 q 153 713 142 703 q 181 722 165 722 l 328 722 q 349 713 342 722 q 354 688 357 703 l 274 308 q 267 222 263 257 q 296 170 271 188 q 369 153 321 153 q 486 194 436 153 q 551 308 536 235 l 632 688 q 647 713 635 703 q 674 722 660 722 l 821 722 q 843 713 836 722 q 847 688 850 703 l 708 35 q 694 10 706 19 q 668 0 683 0 l 532 0 q 509 10 517 0 q 504 35 501 19 l 515 89 q 452 33 485 57 q 378 -2 419 10 q 276 -14 338 -14 m 594 849 q 574 857 581 849 q 569 879 568 865 l 594 993 q 608 1016 597 1007 q 632 1025 618 1025 l 746 1025 q 767 1016 760 1025 q 771 993 774 1007 l 747 879 q 733 857 744 865 q 708 849 722 849 l 594 849 m 321 849 q 300 857 307 849 q 296 879 293 865 l 321 993 q 334 1016 324 1007 q 358 1025 344 1025 l 472 1025 q 493 1016 486 1025 q 497 993 500 1007 l 474 879 q 460 857 471 865 q 435 849 449 849 l 321 849 z "},"ù":{"ha":876,"x_min":35,"x_max":850,"o":"m 276 -14 q 133 23 190 -14 q 56 130 76 60 q 57 300 35 200 l 139 688 q 153 713 142 703 q 181 722 165 722 l 328 722 q 349 713 342 722 q 354 688 357 703 l 274 308 q 267 222 263 257 q 296 170 271 188 q 369 153 321 153 q 486 194 436 153 q 551 308 536 235 l 632 688 q 647 713 635 703 q 674 722 660 722 l 821 722 q 843 713 836 722 q 847 688 850 703 l 708 35 q 694 10 706 19 q 668 0 683 0 l 532 0 q 509 10 517 0 q 504 35 501 19 l 515 89 q 452 33 485 57 q 378 -2 419 10 q 276 -14 338 -14 m 476 826 q 449 831 458 826 q 429 846 439 836 l 283 990 q 279 1008 278 999 q 310 1036 283 1036 l 478 1036 q 505 1031 496 1036 q 524 1010 514 1026 l 611 868 q 614 849 617 860 q 588 826 610 826 l 476 826 z "},"ű":{"ha":876,"x_min":35,"x_max":894,"o":"m 276 -14 q 133 23 190 -14 q 56 130 76 60 q 57 300 35 200 l 139 688 q 153 713 142 703 q 181 722 165 722 l 328 722 q 349 713 342 722 q 354 688 357 703 l 274 308 q 267 222 263 257 q 296 170 271 188 q 369 153 321 153 q 486 194 436 153 q 551 308 536 235 l 632 688 q 647 713 635 703 q 674 722 660 722 l 821 722 q 843 713 836 722 q 847 688 850 703 l 708 35 q 694 10 706 19 q 668 0 683 0 l 532 0 q 509 10 517 0 q 504 35 501 19 l 515 89 q 452 33 485 57 q 378 -2 419 10 q 276 -14 338 -14 m 596 826 q 576 846 575 826 q 581 856 578 850 q 586 865 583 861 l 682 1010 q 704 1030 692 1024 q 739 1036 717 1036 l 868 1036 q 890 1013 893 1036 q 879 992 889 1001 l 718 846 q 668 826 696 826 l 596 826 m 317 826 q 299 846 296 826 q 302 856 299 850 q 308 865 306 861 l 403 1010 q 425 1030 413 1024 q 460 1036 438 1036 l 589 1036 q 611 1013 614 1036 q 600 992 610 1001 l 439 846 q 390 826 417 826 l 317 826 z "},"ū":{"ha":876,"x_min":35,"x_max":850,"o":"m 276 -14 q 133 23 190 -14 q 56 130 76 60 q 57 300 35 200 l 139 688 q 153 713 142 703 q 181 722 165 722 l 328 722 q 349 713 342 722 q 354 688 357 703 l 274 308 q 267 222 263 257 q 296 170 271 188 q 369 153 321 153 q 486 194 436 153 q 551 308 536 235 l 632 688 q 647 713 635 703 q 674 722 660 722 l 821 722 q 843 713 836 722 q 847 688 850 703 l 708 35 q 694 10 706 19 q 668 0 683 0 l 532 0 q 509 10 517 0 q 504 35 501 19 l 515 89 q 452 33 485 57 q 378 -2 419 10 q 276 -14 338 -14 m 329 844 q 308 853 315 844 q 304 876 301 863 l 322 960 q 335 982 325 974 q 360 990 346 990 l 728 990 q 748 982 742 990 q 751 960 754 974 l 735 876 q 722 853 732 863 q 697 844 711 844 l 329 844 z "},"ų":{"ha":876,"x_min":56,"x_max":871,"o":"m 606 -306 q 504 -279 543 -306 q 452 -206 465 -253 q 453 -96 439 -158 q 472 -45 458 -68 q 503 -4 486 -22 q 538 24 521 14 q 528 33 532 26 q 526 49 525 40 l 536 89 q 427 13 490 39 q 282 -14 364 -14 q 147 23 201 -14 q 74 130 93 60 q 76 300 56 200 l 158 688 q 174 713 161 703 q 200 722 186 722 l 347 722 q 369 713 363 722 q 374 688 376 703 l 293 308 q 396 153 261 153 q 508 194 461 153 q 572 308 556 235 l 653 688 q 667 713 656 703 q 694 722 679 722 l 842 722 q 863 713 856 722 q 868 688 871 703 l 729 35 q 716 13 726 22 q 690 0 706 3 l 678 -1 q 613 -37 636 -11 q 583 -96 590 -62 q 588 -157 575 -133 q 639 -181 601 -181 l 649 -181 q 672 -190 664 -181 q 676 -214 679 -200 l 664 -271 q 649 -296 661 -286 q 622 -306 636 -306 l 606 -306 z "},"ů":{"ha":876,"x_min":35,"x_max":850,"o":"m 276 -14 q 133 23 190 -14 q 56 130 76 60 q 57 300 35 200 l 139 688 q 153 713 142 703 q 181 722 165 722 l 328 722 q 349 713 342 722 q 354 688 357 703 l 274 308 q 267 222 263 257 q 296 170 271 188 q 369 153 321 153 q 486 194 436 153 q 551 308 536 235 l 632 688 q 647 713 635 703 q 674 722 660 722 l 821 722 q 843 713 836 722 q 847 688 850 703 l 708 35 q 694 10 706 19 q 668 0 683 0 l 532 0 q 509 10 517 0 q 504 35 501 19 l 515 89 q 452 33 485 57 q 378 -2 419 10 q 276 -14 338 -14 m 508 819 q 426 853 457 819 q 406 938 394 888 q 460 1023 418 989 q 554 1057 503 1057 q 637 1023 606 1057 q 657 938 668 989 q 603 853 646 886 q 508 819 560 819 m 519 896 q 553 908 539 896 q 572 938 568 919 q 568 967 576 956 q 542 979 560 979 q 508 967 522 979 q 489 938 493 956 q 494 908 485 919 q 519 896 503 896 z "},"ũ":{"ha":876,"x_min":35,"x_max":850,"o":"m 276 -14 q 133 23 190 -14 q 56 130 76 60 q 57 300 35 200 l 139 688 q 153 713 142 703 q 181 722 165 722 l 328 722 q 349 713 342 722 q 354 688 357 703 l 274 308 q 267 222 263 257 q 296 170 271 188 q 369 153 321 153 q 486 194 436 153 q 551 308 536 235 l 632 688 q 647 713 635 703 q 674 722 660 722 l 821 722 q 843 713 836 722 q 847 688 850 703 l 708 35 q 694 10 706 19 q 668 0 683 0 l 532 0 q 509 10 517 0 q 504 35 501 19 l 515 89 q 452 33 485 57 q 378 -2 419 10 q 276 -14 338 -14 m 606 819 q 547 832 569 819 q 506 856 524 844 q 464 868 488 868 q 435 858 446 868 q 414 838 424 849 q 389 826 404 826 l 315 826 q 300 834 306 826 q 296 850 294 842 q 313 899 300 872 q 345 952 325 926 q 396 994 365 978 q 465 1011 426 1011 q 526 999 504 1011 q 567 975 549 988 q 608 963 586 963 q 638 974 628 963 q 658 995 649 985 q 682 1006 667 1006 l 756 1006 q 773 998 768 1006 q 775 981 778 990 q 759 931 771 958 q 726 878 747 904 q 676 836 706 853 q 606 819 646 819 z "},"v":{"ha":811,"x_min":88,"x_max":846,"o":"m 254 0 q 225 10 233 0 q 214 35 217 21 l 90 683 q 97 712 88 701 q 124 722 106 722 l 250 722 q 275 713 267 722 q 286 690 283 704 l 358 236 l 628 694 q 643 713 632 703 q 672 722 654 722 l 815 722 q 839 709 832 722 q 835 679 846 696 l 436 35 q 415 10 426 21 q 383 0 404 0 l 254 0 z "},"w":{"ha":1153,"x_min":93,"x_max":1176,"o":"m 196 0 q 168 10 176 0 q 158 35 160 19 l 94 683 q 103 710 93 699 q 132 722 114 722 l 249 722 q 274 714 267 722 q 283 694 282 706 l 321 265 l 544 692 q 561 712 550 701 q 592 722 572 722 l 674 722 q 701 712 693 722 q 710 692 708 701 l 756 265 l 974 694 q 988 713 978 703 q 1017 722 999 722 l 1149 722 q 1172 709 1168 722 q 1169 681 1176 696 l 833 35 q 814 10 826 19 q 782 0 801 0 l 674 0 q 645 10 654 0 q 633 35 636 19 l 576 446 l 356 35 q 335 10 347 19 q 301 0 322 0 l 196 0 z "},"ẃ":{"ha":1153,"x_min":93,"x_max":1176,"o":"m 196 0 q 168 10 176 0 q 158 35 160 19 l 94 683 q 103 710 93 699 q 132 722 114 722 l 249 722 q 274 714 267 722 q 283 694 282 706 l 321 265 l 544 692 q 561 712 550 701 q 592 722 572 722 l 674 722 q 701 712 693 722 q 710 692 708 701 l 756 265 l 974 694 q 988 713 978 703 q 1017 722 999 722 l 1149 722 q 1172 709 1168 722 q 1169 681 1176 696 l 833 35 q 814 10 826 19 q 782 0 801 0 l 674 0 q 645 10 654 0 q 633 35 636 19 l 576 446 l 356 35 q 335 10 347 19 q 301 0 322 0 l 196 0 m 574 826 q 556 849 551 826 q 567 867 558 860 l 715 1010 q 744 1031 733 1026 q 772 1036 754 1036 l 932 1036 q 953 1011 956 1036 q 942 992 953 999 l 733 846 q 708 831 719 836 q 678 826 696 826 l 574 826 z "},"ŵ":{"ha":1153,"x_min":93,"x_max":1176,"o":"m 196 0 q 168 10 176 0 q 158 35 160 19 l 94 683 q 103 710 93 699 q 132 722 114 722 l 249 722 q 274 714 267 722 q 283 694 282 706 l 321 265 l 544 692 q 561 712 550 701 q 592 722 572 722 l 674 722 q 701 712 693 722 q 710 692 708 701 l 756 265 l 974 694 q 988 713 978 703 q 1017 722 999 722 l 1149 722 q 1172 709 1168 722 q 1169 681 1176 696 l 833 35 q 814 10 826 19 q 782 0 801 0 l 674 0 q 645 10 654 0 q 633 35 636 19 l 576 446 l 356 35 q 335 10 347 19 q 301 0 322 0 l 196 0 m 419 826 q 403 844 400 826 q 414 864 404 856 l 589 1013 q 617 1032 606 1028 q 642 1036 629 1036 l 733 1036 q 757 1032 747 1036 q 776 1013 767 1028 l 888 865 q 892 846 894 857 q 868 826 888 826 l 813 826 q 792 828 801 826 q 774 836 783 831 l 671 907 l 538 836 q 517 828 526 831 q 496 826 507 826 l 419 826 z "},"ẅ":{"ha":1153,"x_min":93,"x_max":1176,"o":"m 196 0 q 168 10 176 0 q 158 35 160 19 l 94 683 q 103 710 93 699 q 132 722 114 722 l 249 722 q 274 714 267 722 q 283 694 282 706 l 321 265 l 544 692 q 561 712 550 701 q 592 722 572 722 l 674 722 q 701 712 693 722 q 710 692 708 701 l 756 265 l 974 694 q 988 713 978 703 q 1017 722 999 722 l 1149 722 q 1172 709 1168 722 q 1169 681 1176 696 l 833 35 q 814 10 826 19 q 782 0 801 0 l 674 0 q 645 10 654 0 q 633 35 636 19 l 576 446 l 356 35 q 335 10 347 19 q 301 0 322 0 l 196 0 m 732 849 q 712 857 718 849 q 707 879 706 865 l 732 993 q 745 1016 735 1007 q 769 1025 756 1025 l 883 1025 q 904 1016 897 1025 q 908 993 911 1007 l 885 879 q 871 857 882 865 q 846 849 860 849 l 732 849 m 458 849 q 438 857 444 849 q 433 879 431 865 l 458 993 q 472 1016 461 1007 q 496 1025 482 1025 l 610 1025 q 631 1016 624 1025 q 635 993 638 1007 l 611 879 q 597 857 608 865 q 572 849 586 849 l 458 849 z "},"ẁ":{"ha":1153,"x_min":93,"x_max":1176,"o":"m 196 0 q 168 10 176 0 q 158 35 160 19 l 94 683 q 103 710 93 699 q 132 722 114 722 l 249 722 q 274 714 267 722 q 283 694 282 706 l 321 265 l 544 692 q 561 712 550 701 q 592 722 572 722 l 674 722 q 701 712 693 722 q 710 692 708 701 l 756 265 l 974 694 q 988 713 978 703 q 1017 722 999 722 l 1149 722 q 1172 709 1168 722 q 1169 681 1176 696 l 833 35 q 814 10 826 19 q 782 0 801 0 l 674 0 q 645 10 654 0 q 633 35 636 19 l 576 446 l 356 35 q 335 10 347 19 q 301 0 322 0 l 196 0 m 614 826 q 586 831 596 826 q 567 846 576 836 l 421 990 q 417 1008 415 999 q 447 1036 421 1036 l 615 1036 q 642 1031 633 1036 q 661 1010 651 1026 l 749 868 q 751 849 754 860 q 725 826 747 826 l 614 826 z "},"x":{"ha":799,"x_min":-60,"x_max":831,"o":"m -28 0 q -54 18 -49 0 q -47 50 -60 36 l 261 376 l 108 675 q 111 706 101 690 q 139 722 121 722 l 278 722 q 302 714 294 722 q 314 699 310 706 l 417 506 l 603 699 q 620 714 610 706 q 651 722 631 722 l 799 722 q 824 704 818 722 q 817 672 831 686 l 521 358 l 678 47 q 678 16 686 32 q 649 0 671 0 l 507 0 q 483 8 490 0 q 471 22 475 15 l 364 224 l 169 22 q 154 8 164 17 q 124 0 144 0 l -28 0 z "},"y":{"ha":821,"x_min":47,"x_max":861,"o":"m 75 -264 q 53 -249 58 -264 q 58 -219 47 -235 l 228 47 l 92 682 q 98 710 89 697 q 128 722 107 722 l 254 722 q 278 714 271 722 q 288 694 286 706 l 372 264 l 644 694 q 662 714 651 706 q 690 722 672 722 l 832 722 q 854 710 847 722 q 851 681 861 697 l 260 -236 q 243 -256 254 -247 q 214 -264 232 -264 l 75 -264 z "},"ý":{"ha":821,"x_min":47,"x_max":861,"o":"m 75 -264 q 53 -249 58 -264 q 58 -219 47 -235 l 228 47 l 92 682 q 98 710 89 697 q 128 722 107 722 l 254 722 q 278 714 271 722 q 288 694 286 706 l 372 264 l 644 694 q 662 714 651 706 q 690 722 672 722 l 832 722 q 854 710 847 722 q 851 681 861 697 l 260 -236 q 243 -256 254 -247 q 214 -264 232 -264 l 75 -264 m 425 826 q 407 849 403 826 q 418 867 410 860 l 567 1010 q 595 1031 585 1026 q 624 1036 606 1036 l 783 1036 q 804 1011 807 1036 q 793 992 804 999 l 585 846 q 559 831 571 836 q 529 826 547 826 l 425 826 z "},"ŷ":{"ha":821,"x_min":47,"x_max":861,"o":"m 75 -264 q 53 -249 58 -264 q 58 -219 47 -235 l 228 47 l 92 682 q 98 710 89 697 q 128 722 107 722 l 254 722 q 278 714 271 722 q 288 694 286 706 l 372 264 l 644 694 q 662 714 651 706 q 690 722 672 722 l 832 722 q 854 710 847 722 q 851 681 861 697 l 260 -236 q 243 -256 254 -247 q 214 -264 232 -264 l 75 -264 m 269 826 q 253 844 250 826 q 264 864 254 856 l 439 1013 q 467 1032 456 1028 q 492 1036 479 1036 l 583 1036 q 607 1032 597 1036 q 626 1013 617 1028 l 738 865 q 742 846 744 857 q 718 826 738 826 l 663 826 q 642 828 651 826 q 624 836 633 831 l 521 907 l 388 836 q 367 828 376 831 q 346 826 357 826 l 269 826 z "},"ÿ":{"ha":821,"x_min":47,"x_max":861,"o":"m 75 -264 q 53 -249 58 -264 q 58 -219 47 -235 l 228 47 l 92 682 q 98 710 89 697 q 128 722 107 722 l 254 722 q 278 714 271 722 q 288 694 286 706 l 372 264 l 644 694 q 662 714 651 706 q 690 722 672 722 l 832 722 q 854 710 847 722 q 851 681 861 697 l 260 -236 q 243 -256 254 -247 q 214 -264 232 -264 l 75 -264 m 583 849 q 563 857 569 849 q 558 879 557 865 l 583 993 q 597 1016 586 1007 q 621 1025 607 1025 l 735 1025 q 756 1016 749 1025 q 760 993 763 1007 l 736 879 q 722 857 733 865 q 697 849 711 849 l 583 849 m 310 849 q 289 857 296 849 q 285 879 282 865 l 310 993 q 323 1016 313 1007 q 347 1025 333 1025 l 461 1025 q 482 1016 475 1025 q 486 993 489 1007 l 463 879 q 449 857 460 865 q 424 849 438 849 l 310 849 z "},"ỳ":{"ha":821,"x_min":47,"x_max":861,"o":"m 75 -264 q 53 -249 58 -264 q 58 -219 47 -235 l 228 47 l 92 682 q 98 710 89 697 q 128 722 107 722 l 254 722 q 278 714 271 722 q 288 694 286 706 l 372 264 l 644 694 q 662 714 651 706 q 690 722 672 722 l 832 722 q 854 710 847 722 q 851 681 861 697 l 260 -236 q 243 -256 254 -247 q 214 -264 232 -264 l 75 -264 m 465 826 q 438 831 447 826 q 418 846 428 836 l 272 990 q 268 1008 267 999 q 299 1036 272 1036 l 467 1036 q 494 1031 485 1036 q 513 1010 503 1026 l 600 868 q 603 849 606 860 q 576 826 599 826 l 465 826 z "},"z":{"ha":750,"x_min":-31,"x_max":736,"o":"m 1 0 q -22 10 -14 0 q -28 35 -31 19 l -7 128 q 1 149 -4 140 q 15 165 7 158 l 439 561 l 131 561 q 109 571 117 561 q 104 594 101 581 l 124 688 q 138 713 126 703 q 165 722 150 722 l 707 722 q 729 713 722 722 q 733 688 736 703 l 714 588 q 692 553 710 568 l 276 161 l 617 161 q 640 151 632 161 q 643 128 647 142 l 624 35 q 609 10 621 19 q 583 0 597 0 l 1 0 z "},"ź":{"ha":750,"x_min":-31,"x_max":775,"o":"m 1 0 q -22 10 -14 0 q -28 35 -31 19 l -7 128 q 1 149 -4 140 q 15 165 7 158 l 439 561 l 131 561 q 109 571 117 561 q 104 594 101 581 l 124 688 q 138 713 126 703 q 165 722 150 722 l 707 722 q 729 713 722 722 q 733 688 736 703 l 714 588 q 692 553 710 568 l 276 161 l 617 161 q 640 151 632 161 q 643 128 647 142 l 624 35 q 609 10 621 19 q 583 0 597 0 l 1 0 m 394 826 q 376 849 372 826 q 388 867 379 860 l 536 1010 q 565 1031 554 1026 q 593 1036 575 1036 l 753 1036 q 774 1011 776 1036 q 763 992 774 999 l 554 846 q 528 831 540 836 q 499 826 517 826 l 394 826 z "},"ž":{"ha":750,"x_min":-31,"x_max":756,"o":"m 1 0 q -22 10 -14 0 q -28 35 -31 19 l -7 128 q 1 149 -4 140 q 15 165 7 158 l 439 561 l 131 561 q 109 571 117 561 q 104 594 101 581 l 124 688 q 138 713 126 703 q 165 722 150 722 l 707 722 q 729 713 722 722 q 733 688 736 703 l 714 588 q 692 553 710 568 l 276 161 l 617 161 q 640 151 632 161 q 643 128 647 142 l 624 35 q 609 10 621 19 q 583 0 597 0 l 1 0 m 424 826 q 401 831 411 826 q 381 850 392 836 l 269 997 q 265 1014 263 1006 q 274 1031 267 1025 q 289 1036 281 1036 l 344 1036 q 365 1034 356 1036 q 383 1026 374 1032 l 486 956 l 619 1026 q 640 1034 631 1032 q 661 1036 650 1036 l 738 1036 q 754 1017 756 1036 q 742 997 753 1007 l 568 850 q 540 831 551 836 q 515 826 529 826 l 424 826 z "},"ż":{"ha":750,"x_min":-31,"x_max":736,"o":"m 1 0 q -22 10 -14 0 q -28 35 -31 19 l -7 128 q 1 149 -4 140 q 15 165 7 158 l 439 561 l 131 561 q 109 571 117 561 q 104 594 101 581 l 124 688 q 138 713 126 703 q 165 722 150 722 l 707 722 q 729 713 722 722 q 733 688 736 703 l 714 588 q 692 553 710 568 l 276 161 l 617 161 q 640 151 632 161 q 643 128 647 142 l 624 35 q 609 10 621 19 q 583 0 597 0 l 1 0 m 406 842 q 385 850 392 842 q 381 872 378 858 l 408 999 q 422 1022 411 1013 q 446 1031 432 1031 l 571 1031 q 592 1022 585 1031 q 597 999 600 1013 l 569 872 q 556 850 567 858 q 532 842 546 842 l 406 842 z "},"ﬁ":{"ha":893,"x_min":58,"x_max":932,"o":"m 113 0 q 90 10 99 0 q 85 35 82 19 l 197 558 l 88 558 q 66 568 74 558 q 61 593 58 578 l 81 688 q 96 713 83 703 q 122 722 108 722 l 232 722 l 243 772 q 306 918 263 861 q 414 1001 349 975 q 565 1028 479 1028 l 903 1028 q 925 1018 918 1028 q 929 993 932 1008 l 908 899 q 894 874 906 883 q 868 864 882 864 l 563 864 q 483 839 511 864 q 446 765 456 814 l 436 722 l 838 722 q 860 713 853 722 q 864 688 867 703 l 725 35 q 711 10 722 19 q 685 0 700 0 l 549 0 q 526 10 535 0 q 521 35 518 19 l 632 558 l 401 558 l 289 35 q 275 10 286 19 q 249 0 264 0 l 113 0 z "}}}
